{
.appVersion = "3243";
.formatVersion = 3;
DisplayStrings = (
"ﬠ",
"יׯ "
);
axes = (
{
name = Weight;
tag = wght;
},
{
name = Width;
tag = wdth;
}
);
customParameters = (
{
name = glyphOrder;
value = (
.notdef,
NULL,
CR,
space,
uni0591,
uni0592,
uni0593,
uni0594,
uni0595,
uni0596,
uni0597,
uni0598,
uni0599,
uni059A,
uni059B,
uni059C,
uni059D,
uni059E,
uni059F,
uni05A0,
uni05A1,
uni05A2,
uni05A3,
uni05A4,
uni05A5,
uni05A6,
uni05A7,
uni05A8,
uni05A9,
uni05AA,
uni05AB,
uni05AC,
uni05AD,
uni05AE,
uni05AF,
sheva,
hatafsegol,
hatafpatah,
hatafqamats,
hiriq,
tsere,
segol,
patah,
qamats,
holam,
uni05BA,
qubuts,
dagesh,
meteg,
maqaf,
rafe,
paseq,
shindot,
sindot,
sofpasuq,
upper_dot,
lowerdot,
uni05C6,
qamatsqatan,
alef,
bet,
gimel,
dalet,
he,
vav,
zayin,
het,
tet,
yod,
finalkaf,
kaf,
lamed,
finalmem,
mem,
finalnun,
nun,
samekh,
ayin,
finalpe,
pe,
finaltsadi,
tsadi,
qof,
resh,
shin,
tav,
vavvav,
vavyod,
yodyod,
geresh,
gershayim,
sheqel,
uniFB1D,
uniFB1E,
yodyod_patah,
alternativeayin,
alefwide,
daletwide,
hewide,
kafwide,
lamedwide,
finalmemwide,
reshwide,
tavwide,
alt_plussign,
shinshindot,
shinsindot,
shindageshshindot,
shindageshsindot,
alefpatah,
alefqamats,
alefmapiq,
betdagesh,
gimeldagesh,
daletdagesh,
hedagesh,
vavdagesh,
zayindagesh,
tetdagesh,
yoddagesh,
finalkafdagesh,
kafdagesh,
lameddagesh,
memdagesh,
nundagesh,
samekhdagesh,
finalpedagesh,
pedagesh,
tsadidagesh,
qofdagesh,
reshdagesh,
shindagesh,
tavdagesh,
vavholam,
betrafe,
kafrafe,
perafe,
aleflamed,
lamedholamdagesh,
lamedholam,
finalkafqamats,
finalkafsheva,
aleflamedhatafsegol,
aleflamedsegol,
aleflamedtsere,
alternativelamed,
alefdagesh,
uni05B105BD,
uni05B205BD,
uni05B305BD,
uni25CC,
uni200C,
uni200D,
uni200E,
uni200F
);
},
{
name = fsType;
value = (
);
},
{
name = unicodeRanges;
value = (
0,
1,
11,
31,
33,
45,
62
);
},
{
name = "Has WWS Names";
value = 1;
},
{
name = "Use Typo Metrics";
value = 1;
}
);
date = "2021-08-01 17:52:00 +0000";
familyName = "Noto Sans Hebrew";
featurePrefixes = (
{

glyphs = (
{
glyphname = sheqel;
lastChange = "2016-07-07 18:36:03 +0000";
layers = (
{
layerId = "1F954AD7-537E-453D-9D07-161C7E95D0AA";
shapes = (
{
closed = 1;
nodes = (
(476,0,ls),
(577,0,o),
(636,53,o),
(636,165,cs),
(636,584,l),
(610,584,l),
(610,168,ls),
(610,66,o),
(559,27,o),
(471,27,cs),
(289,27,l),
(289,434,l),
(263,434,l),
(263,0,l)
);
},
{
closed = 1;
nodes = (
(116,0,l),
(116,557,l),
(298,557,ls),
(386,557,o),
(437,518,o),
(437,416,cs),
(437,150,l),
(463,150,l),
(463,419,ls),
(463,531,o),
(404,584,o),
(303,584,cs),
(90,584,l),
(90,0,l)
);
}
);
width = 721;
},
{
layerId = "0C04772A-F31D-4E86-90EF-3402D1EA39CA";
shapes = (
{
closed = 1;
nodes = (
(403,0,ls),
(639,0,o),
(710,75,o),
(710,307,cs),
(710,592,l),
(620,592,l),
(620,307,ls),
(620,114,o),
(576,83,o),
(403,83,cs),
(353,83,l),
(353,418,l),
(263,418,l),
(263,0,l)
);
},
{
closed = 1;
nodes = (
(175,0,l),
(175,509,l),
(325,509,ls),
(398,509,o),
(442,478,o),
(442,385,cs),
(442,184,l),
(532,184,l),
(532,403,ls),
(532,535,o),
(467,592,o),
(331,592,cs),
(85,592,l),
(85,0,l)
);
}
);
width = 790;
},
{
layerId = "3FB868F8-5CDC-4A46-BA32-95627737ABE0";
shapes = (
{
closed = 1;
nodes = (
(552,0,ls),
(759,0,o),
(841,83,o),
(841,315,cs),
(841,609,l),
(649,609,l),
(649,315,ls),
(649,185,o),
(617,159,o),
(513,159,cs),
(435,159,l),
(435,390,l),
(313,390,l),
(313,0,l)
);
},
{
closed = 1;
nodes = (
(267,0,l),
(267,450,l),
(435,450,ls),
(465,450,o),
(481,428,o),
(481,384,cs),
(481,219,l),
(603,219,l),
(603,412,ls),
(603,545,o),
(560,609,o),
(395,609,cs),
(75,609,l),
(75,0,l)
);
}
);
width = 911;
},
{
layerId = "BD31AAF9-E65B-4A30-ACC0-7018B0C27C60";
shapes = (
{
closed = 1;
nodes = (
(364,0,ls),
(465,0,o),
(509,38,o),
(509,150,cs),
(509,584,l),
(483,584,l),
(483,155,ls),
(483,53,o),
(447,27,o),
(359,27,cs),
(237,27,l),
(237,434,l),
(211,434,l),
(211,0,l)
);
},
{
closed = 1;
nodes = (
(101,0,l),
(101,557,l),
(223,557,ls),
(311,557,o),
(347,531,o),
(347,429,cs),
(347,150,l),
(373,150,l),
(373,434,ls),
(373,546,o),
(329,584,o),
(228,584,cs),
(75,584,l),
(75,0,l)
);
}
);
width = 579;
},
{
layerId = "E193C3F6-581C-4255-BA06-39B2C55FEA85";
shapes = (
{
closed = 1;
nodes = (
(385,0,ls),
(486,0,o),
(535,67,o),
(535,185,cs),
(535,592,l),
(451,592,l),
(451,201,ls),
(451,119,o),
(420,81,o),
(369,81,cs),
(278,81,l),
(278,418,l),
(194,418,l),
(194,0,l)
);
},
{
closed = 1;
nodes = (
(149,0,l),
(149,511,l),
(240,511,ls),
(291,511,o),
(322,473,o),
(322,391,cs),
(322,184,l),
(406,184,l),
(406,407,ls),
(406,525,o),
(357,592,o),
(256,592,cs),
(65,592,l),
(65,0,l)
);
}
);
width = 595;
},
{
layerId = "AD6F6DAA-2D58-4E1D-98AF-ACAAF76D7B9E";
shapes = (
{
closed = 1;
nodes = (
(456,0,ls),
(608,0,o),
(694,83,o),
(694,309,cs),
(694,609,l),
(534,609,l),
(534,309,ls),
(534,181,o),
(523,147,o),
(407,147,cs),
(358,147,l),
(358,390,l),
(258,390,l),
(258,0,l)
);
},
{
closed = 1;
nodes = (
(220,0,l),
(220,462,l),
(349,462,ls),
(387,462,o),
(396,437,o),
(396,390,cs),
(396,225,l),
(496,225,l),
(496,418,ls),
(496,560,o),
(455,609,o),
(309,609,cs),
(60,609,l),
(60,0,l)
);
}
);
width = 749;
}
);
note = sheqel;
unicode = 8362;
},
{
glyphname = uni25CC;
lastChange = "2022-07-15 07:34:55 +0000";
layers = (
{
anchors = (
{
name = bottom;
pos = (468,7);
},
{
name = bottomleft;
pos = (105,0);
},
{
name = center;
pos = (329,282);
},
{
name = hiriq;
pos = (666,0);
},
{
name = top;
pos = (439,528);
},
{
name = topleft;
pos = (69,528);
},
{
name = topright;
pos = (620,528);
}
);
layerId = "1F954AD7-537E-453D-9D07-161C7E95D0AA";
shapes = (
{
closed = 1;
nodes = (
(480,466,o),
(472,475,o),
(455,475,cs),
(437,475,o),
(428,466,o),
(428,448,cs),
(428,431,o),
(437,422,o),
(455,422,cs),
(472,422,o),
(480,431,o),
(480,448,cs)
);
},
{
closed = 1;
nodes = (
(408,514,o),
(400,523,o),
(383,523,cs),
(364,523,o),
(355,514,o),
(355,496,cs),
(355,479,o),
(364,470,o),
(383,470,cs),
(400,470,o),
(408,479,o),
(408,496,cs)
);
},
{
closed = 1;
nodes = (
(529,393,o),
(520,402,o),
(503,402,cs),
(485,402,o),
(476,393,o),
(476,376,cs),
(476,358,o),
(485,349,o),
(502,349,cs),
(520,349,o),
(529,358,o),
(529,376,cs)
);
},
{
closed = 1;
nodes = (
(546,308,o),
(538,317,o),
(521,317,cs),
(503,317,o),
(494,308,o),
(494,291,cs),
(494,274,o),
(503,265,o),
(521,265,cs),
(538,265,o),
(546,274,o),
(546,291,cs)
);
},
{
closed = 1;
nodes = (
(323,531,o),
(314,540,o),
(297,540,cs),
(280,540,o),
(271,531,o),
(271,514,cs),
(271,496,o),
(280,487,o),
(297,487,cs),
(314,487,o),
(323,496,o),
(323,514,cs)
);
},
{
closed = 1;
nodes = (
(239,514,o),
(230,523,o),
(212,523,cs),
(195,523,o),
(186,514,o),
(186,496,cs),
(186,479,o),
(195,470,o),
(212,470,cs),
(230,470,o),
(239,479,o),
(239,496,cs)
);
},
{
closed = 1;
nodes = (
(529,224,o),
(520,233,o),
(502,233,cs),
(485,233,o),
(476,224,o),
(476,206,cs),
(476,189,o),
(485,180,o),
(502,180,cs),
(520,180,o),
(529,189,o),
(529,206,cs)
);
},
{
closed = 1;
nodes = (
(167,466,o),
(158,475,o),
(140,475,cs),
(123,475,o),
(114,466,o),
(114,447,cs),
(114,430,o),
(123,422,o),
(140,422,cs),
(158,422,o),
(167,431,o),
(167,448,cs)
);
},
{
closed = 1;
nodes = (
(480,151,o),
(472,160,o),
(455,160,cs),
(437,160,o),
(428,151,o),
(428,133,cs),
(428,116,o),
(437,107,o),
(455,107,cs),
(472,107,o),
(480,116,o),
(480,133,cs)
);
},
{
closed = 1;
nodes = (
(408,103,o),
(400,112,o),
(383,112,cs),
(364,112,o),
(355,103,o),
(355,85,cs),
(355,68,o),
(364,60,o),
(383,60,cs),
(400,60,o),
(408,68,o),
(408,85,cs)
);
},
{
closed = 1;
nodes = (
(118,393,o),
(109,402,o),
(92,402,cs),
(74,402,o),
(65,393,o),
(65,376,cs),
(65,358,o),
(74,349,o),
(93,349,cs),
(110,349,o),
(118,358,o),
(118,376,cs)
);
},
{
closed = 1;
nodes = (
(101,308,o),
(92,317,o),
(75,317,cs),
(57,317,o),
(48,308,o),
(48,291,cs),
(48,274,o),
(57,265,o),
(75,265,cs),
(92,265,o),
(101,274,o),
(101,291,cs)
);
},
{
closed = 1;
nodes = (
(323,86,o),
(314,95,o),
(297,95,cs),
(280,95,o),
(271,86,o),
(271,69,cs),
(271,51,o),
(280,42,o),
(297,42,cs),
(314,42,o),
(323,51,o),
(323,69,cs)
);
},
{
closed = 1;
nodes = (
(118,224,o),
(109,233,o),
(92,233,cs),
(74,233,o),
(65,224,o),
(65,206,cs),
(65,189,o),
(74,180,o),
(92,180,cs),
(109,180,o),
(118,189,o),
(118,206,cs)
);
},
{
closed = 1;
nodes = (
(239,104,o),
(230,112,o),
(212,112,cs),
(195,112,o),
(186,103,o),
(186,85,cs),
(186,68,o),
(195,60,o),
(212,60,cs),
(230,60,o),
(239,69,o),
(239,87,cs)
);
},
{
closed = 1;
nodes = (
(167,151,o),
(158,160,o),
(140,160,cs),
(123,160,o),
(114,151,o),
(114,133,cs),
(114,116,o),
(123,107,o),
(140,107,cs),
(158,107,o),
(167,116,o),
(167,133,cs)
);
}
);
width = 594;
},
{
anchors = (
{
name = bottom;
pos = (385,8);
},
{
name = bottomleft;
pos = (71,0);
},
{
name = center;
pos = (275,288);
},
{
name = hiriq;
pos = (627,0);
},
{
name = top;
pos = (371,536);
},
{
name = topleft;
pos = (29,536);
},
{
name = topright;
pos = (589,536);
}
);
layerId = "0C04772A-F31D-4E86-90EF-3402D1EA39CA";
shapes = (
{
closed = 1;
nodes = (
(480,466,o),
(472,475,o),
(455,475,cs),
(437,475,o),
(428,466,o),
(428,448,cs),
(428,431,o),
(437,422,o),
(455,422,cs),
(472,422,o),
(480,431,o),
(480,448,cs)
);
},
{
closed = 1;
nodes = (
(408,514,o),
(400,523,o),
(383,523,cs),
(364,523,o),
(355,514,o),
(355,496,cs),
(355,479,o),
(364,470,o),
(383,470,cs),
(400,470,o),
(408,479,o),
(408,496,cs)
);
},
{
closed = 1;
nodes = (
(529,393,o),
(520,402,o),
(503,402,cs),
(485,402,o),
(476,393,o),
(476,376,cs),
(476,358,o),
(485,349,o),
(502,349,cs),
(520,349,o),
(529,358,o),
(529,376,cs)
);
},
{
closed = 1;
nodes = (
(546,308,o),
(538,317,o),
(521,317,cs),
(503,317,o),
(494,308,o),
(494,291,cs),
(494,274,o),
(503,265,o),
(521,265,cs),
(538,265,o),
(546,274,o),
(546,291,cs)
);
},
{
closed = 1;
nodes = (
(323,531,o),
(314,540,o),
(297,540,cs),
(280,540,o),
(271,531,o),
(271,514,cs),
(271,496,o),
(280,487,o),
(297,487,cs),
(314,487,o),
(323,496,o),
(323,514,cs)
);
},
{
closed = 1;
nodes = (
(239,514,o),
(230,523,o),
(212,523,cs),
(195,523,o),
(186,514,o),
(186,496,cs),
(186,479,o),
(195,470,o),
(212,470,cs),
(230,470,o),
(239,479,o),
(239,496,cs)
);
},
{
closed = 1;
nodes = (
(529,224,o),
(520,233,o),
(502,233,cs),
(485,233,o),
(476,224,o),
(476,206,cs),
(476,189,o),
(485,180,o),
(502,180,cs),
(520,180,o),
(529,189,o),
(529,206,cs)
);
},
{
closed = 1;
nodes = (
(167,466,o),
(158,475,o),
(140,475,cs),
(123,475,o),
(114,466,o),
(114,447,cs),
(114,430,o),
(123,422,o),
(140,422,cs),
(158,422,o),
(167,431,o),
(167,448,cs)
);
},
{
closed = 1;
nodes = (
(480,151,o),
(472,160,o),
(455,160,cs),
(437,160,o),
(428,151,o),
(428,133,cs),
(428,116,o),
(437,107,o),
(455,107,cs),
(472,107,o),
(480,116,o),
(480,133,cs)
);
},
{
closed = 1;
nodes = (
(408,103,o),
(400,112,o),
(383,112,cs),
(364,112,o),
(355,103,o),
(355,85,cs),
(355,68,o),
(364,60,o),
(383,60,cs),
(400,60,o),
(408,68,o),
(408,85,cs)
);
},
{
closed = 1;
nodes = (
(118,393,o),
(109,402,o),
(92,402,cs),
(74,402,o),
(65,393,o),
(65,376,cs),
(65,358,o),
(74,349,o),
(93,349,cs),
(110,349,o),
(118,358,o),
(118,376,cs)
);
},
{
closed = 1;
nodes = (
(101,308,o),
(92,317,o),
(75,317,cs),
(57,317,o),
(48,308,o),
(48,291,cs),
(48,274,o),
(57,265,o),
(75,265,cs),
(92,265,o),
(101,274,o),
(101,291,cs)
);
},
{
closed = 1;
nodes = (
(323,86,o),
(314,95,o),
(297,95,cs),
(280,95,o),
(271,86,o),
(271,69,cs),
(271,51,o),
(280,42,o),
(297,42,cs),
(314,42,o),
(323,51,o),
(323,69,cs)
);
},
{
closed = 1;
nodes = (
(118,224,o),
(109,233,o),
(92,233,cs),
(74,233,o),
(65,224,o),
(65,206,cs),
(65,189,o),
(74,180,o),
(92,180,cs),
(109,180,o),
(118,189,o),
(118,206,cs)
);
},
{
closed = 1;
nodes = (
(239,104,o),
(230,112,o),
(212,112,cs),
(195,112,o),
(186,103,o),
(186,85,cs),
(186,68,o),
(195,60,o),
(212,60,cs),
(230,60,o),
(239,69,o),
(239,87,cs)
);
},
{
closed = 1;
nodes = (
(167,151,o),
(158,160,o),
(140,160,cs),
(123,160,o),
(114,151,o),
(114,133,cs),
(114,116,o),
(123,107,o),
(140,107,cs),
(158,107,o),
(167,116,o),
(167,133,cs)
);
}
);
width = 594;
},
{
anchors = (
{
name = bottom;
pos = (332,8);
},
{
name = bottomleft;
pos = (49,0);
},
{
name = center;
pos = (232,293);
},
{
name = hiriq;
pos = (590,0);
},
{
name = top;
pos = (332,553);
},
{
name = topleft;
pos = (15,553);
},
{
name = topright;
pos = (539,553);
}
);
layerId = "3FB868F8-5CDC-4A46-BA32-95627737ABE0";
shapes = (
{
closed = 1;
nodes = (
(480,466,o),
(472,475,o),
(455,475,cs),
(437,475,o),
(428,466,o),
(428,448,cs),
(428,431,o),
(437,422,o),
(455,422,cs),
(472,422,o),
(480,431,o),
(480,448,cs)
);
},
{
closed = 1;
nodes = (
(408,514,o),
(400,523,o),
(383,523,cs),
(364,523,o),
(355,514,o),
(355,496,cs),
(355,479,o),
(364,470,o),
(383,470,cs),
(400,470,o),
(408,479,o),
(408,496,cs)
);
},
{
closed = 1;
nodes = (
(529,393,o),
(520,402,o),
(503,402,cs),
(485,402,o),
(476,393,o),
(476,376,cs),
(476,358,o),
(485,349,o),
(502,349,cs),
(520,349,o),
(529,358,o),
(529,376,cs)
);
},
{
closed = 1;
nodes = (
(546,308,o),
(538,317,o),
(521,317,cs),
(503,317,o),
(494,308,o),
(494,291,cs),
(494,274,o),
(503,265,o),
(521,265,cs),
(538,265,o),
(546,274,o),
(546,291,cs)
);
},
{
closed = 1;
nodes = (
(323,531,o),
(314,540,o),
(297,540,cs),
(280,540,o),
(271,531,o),
(271,514,cs),
(271,496,o),
(280,487,o),
(297,487,cs),
(314,487,o),
(323,496,o),
(323,514,cs)
);
},
{
closed = 1;
nodes = (
(239,514,o),
(230,523,o),
(212,523,cs),
(195,523,o),
(186,514,o),
(186,496,cs),
(186,479,o),
(195,470,o),
(212,470,cs),
(230,470,o),
(239,479,o),
(239,496,cs)
);
},
{
closed = 1;
nodes = (
(529,224,o),
(520,233,o),
(502,233,cs),
(485,233,o),
(476,224,o),
(476,206,cs),
(476,189,o),
(485,180,o),
(502,180,cs),
(520,180,o),
(529,189,o),
(529,206,cs)
);
},
{
closed = 1;
nodes = (
(167,466,o),
(158,475,o),
(140,475,cs),
(123,475,o),
(114,466,o),
(114,447,cs),
(114,430,o),
(123,422,o),
(140,422,cs),
(158,422,o),
(167,431,o),
(167,448,cs)
);
},
{
closed = 1;
nodes = (
(480,151,o),
(472,160,o),
(455,160,cs),
(437,160,o),
(428,151,o),
(428,133,cs),
(428,116,o),
(437,107,o),
(455,107,cs),
(472,107,o),
(480,116,o),
(480,133,cs)
);
},
{
closed = 1;
nodes = (
(408,103,o),
(400,112,o),
(383,112,cs),
(364,112,o),
(355,103,o),
(355,85,cs),
(355,68,o),
(364,60,o),
(383,60,cs),
(400,60,o),
(408,68,o),
(408,85,cs)
);
},
{
closed = 1;
nodes = (
(118,393,o),
(109,402,o),
(92,402,cs),
(74,402,o),
(65,393,o),
(65,376,cs),
(65,358,o),
(74,349,o),
(93,349,cs),
(110,349,o),
(118,358,o),
(118,376,cs)
);
},
{
closed = 1;
nodes = (
(101,308,o),
(92,317,o),
(75,317,cs),
(57,317,o),
(48,308,o),
(48,291,cs),
(48,274,o),
(57,265,o),
(75,265,cs),
(92,265,o),
(101,274,o),
(101,291,cs)
);
},
{
closed = 1;
nodes = (
(323,86,o),
(314,95,o),
(297,95,cs),
(280,95,o),
(271,86,o),
(271,69,cs),
(271,51,o),
(280,42,o),
(297,42,cs),
(314,42,o),
(323,51,o),
(323,69,cs)
);
},
{
closed = 1;
nodes = (
(118,224,o),
(109,233,o),
(92,233,cs),
(74,233,o),
(65,224,o),
(65,206,cs),
(65,189,o),
(74,180,o),
(92,180,cs),
(109,180,o),
(118,189,o),
(118,206,cs)
);
},
{
closed = 1;
nodes = (
(239,104,o),
(230,112,o),
(212,112,cs),
(195,112,o),
(186,103,o),
(186,85,cs),
(186,68,o),
(195,60,o),
(212,60,cs),
(230,60,o),
(239,69,o),
(239,87,cs)
);
},
{
closed = 1;
nodes = (
(167,151,o),
(158,160,o),
(140,160,cs),
(123,160,o),
(114,151,o),
(114,133,cs),
(114,116,o),
(123,107,o),
(140,107,cs),
(158,107,o),
(167,116,o),
(167,133,cs)
);
}
);
width = 594;
},
{
anchors = (
{
name = bottom;
pos = (332,8);
},
{
name = bottomleft;
pos = (49,0);
},
{
name = center;
pos = (232,293);
},
{
name = hiriq;
pos = (590,0);
},
{
name = top;
pos = (332,553);
},
{
name = topleft;
pos = (15,553);
},
{
name = topright;
pos = (539,553);
}
);
layerId = "BD31AAF9-E65B-4A30-ACC0-7018B0C27C60";
shapes = (
{
closed = 1;
nodes = (
(480,466,o),
(472,475,o),
(455,475,cs),
(437,475,o),
(428,466,o),
(428,448,cs),
(428,431,o),
(437,422,o),
(455,422,cs),
(472,422,o),
(480,431,o),
(480,448,cs)
);
},
{
closed = 1;
nodes = (
(408,514,o),
(400,523,o),
(383,523,cs),
(364,523,o),
(355,514,o),
(355,496,cs),
(355,479,o),
(364,470,o),
(383,470,cs),
(400,470,o),
(408,479,o),
(408,496,cs)
);
},
{
closed = 1;
nodes = (
(529,393,o),
(520,402,o),
(503,402,cs),
(485,402,o),
(476,393,o),
(476,376,cs),
(476,358,o),
(485,349,o),
(502,349,cs),
(520,349,o),
(529,358,o),
(529,376,cs)
);
},
{
closed = 1;
nodes = (
(546,308,o),
(538,317,o),
(521,317,cs),
(503,317,o),
(494,308,o),
(494,291,cs),
(494,274,o),
(503,265,o),
(521,265,cs),
(538,265,o),
(546,274,o),
(546,291,cs)
);
},
{
closed = 1;
nodes = (
(323,531,o),
(314,540,o),
(297,540,cs),
(280,540,o),
(271,531,o),
(271,514,cs),
(271,496,o),
(280,487,o),
(297,487,cs),
(314,487,o),
(323,496,o),
(323,514,cs)
);
},
{
closed = 1;
nodes = (
(239,514,o),
(230,523,o),
(212,523,cs),
(195,523,o),
(186,514,o),
(186,496,cs),
(186,479,o),
(195,470,o),
(212,470,cs),
(230,470,o),
(239,479,o),
(239,496,cs)
);
},
{
closed = 1;
nodes = (
(529,224,o),
(520,233,o),
(502,233,cs),
(485,233,o),
(476,224,o),
(476,206,cs),
(476,189,o),
(485,180,o),
(502,180,cs),
(520,180,o),
(529,189,o),
(529,206,cs)
);
},
{
closed = 1;
nodes = (
(167,466,o),
(158,475,o),
(140,475,cs),
(123,475,o),
(114,466,o),
(114,447,cs),
(114,430,o),
(123,422,o),
(140,422,cs),
(158,422,o),
(167,431,o),
(167,448,cs)
);
},
{
closed = 1;
nodes = (
(480,151,o),
(472,160,o),
(455,160,cs),
(437,160,o),
(428,151,o),
(428,133,cs),
(428,116,o),
(437,107,o),
(455,107,cs),
(472,107,o),
(480,116,o),
(480,133,cs)
);
},
{
closed = 1;
nodes = (
(408,103,o),
(400,112,o),
(383,112,cs),
(364,112,o),
(355,103,o),
(355,85,cs),
(355,68,o),
(364,60,o),
(383,60,cs),
(400,60,o),
(408,68,o),
(408,85,cs)
);
},
{
closed = 1;
nodes = (
(118,393,o),
(109,402,o),
(92,402,cs),
(74,402,o),
(65,393,o),
(65,376,cs),
(65,358,o),
(74,349,o),
(93,349,cs),
(110,349,o),
(118,358,o),
(118,376,cs)
);
},
{
closed = 1;
nodes = (
(101,308,o),
(92,317,o),
(75,317,cs),
(57,317,o),
(48,308,o),
(48,291,cs),
(48,274,o),
(57,265,o),
(75,265,cs),
(92,265,o),
(101,274,o),
(101,291,cs)
);
},
{
closed = 1;
nodes = (
(323,86,o),
(314,95,o),
(297,95,cs),
(280,95,o),
(271,86,o),
(271,69,cs),
(271,51,o),
(280,42,o),
(297,42,cs),
(314,42,o),
(323,51,o),
(323,69,cs)
);
},
{
closed = 1;
nodes = (
(118,224,o),
(109,233,o),
(92,233,cs),
(74,233,o),
(65,224,o),
(65,206,cs),
(65,189,o),
(74,180,o),
(92,180,cs),
(109,180,o),
(118,189,o),
(118,206,cs)
);
},
{
closed = 1;
nodes = (
(239,104,o),
(230,112,o),
(212,112,cs),
(195,112,o),
(186,103,o),
(186,85,cs),
(186,68,o),
(195,60,o),
(212,60,cs),
(230,60,o),
(239,69,o),
(239,87,cs)
);
},
{
closed = 1;
nodes = (
(167,151,o),
(158,160,o),
(140,160,cs),
(123,160,o),
(114,151,o),
(114,133,cs),
(114,116,o),
(123,107,o),
(140,107,cs),
(158,107,o),
(167,116,o),
(167,133,cs)
);
}
);
width = 594;
},
{
anchors = (
{
name = bottom;
pos = (371,8);
},
{
name = bottomleft;
pos = (54,0);
},
{
name = center;
pos = (256,283);
},
{
name = hiriq;
pos = (617,0);
},
{
name = top;
pos = (368,536);
},
{
name = topleft;
pos = (80,536);
},
{
name = topright;
pos = (565,536);
}
);
layerId = "E193C3F6-581C-4255-BA06-39B2C55FEA85";
shapes = (
{
closed = 1;
nodes = (
(480,466,o),
(472,475,o),
(455,475,cs),
(437,475,o),
(428,466,o),
(428,448,cs),
(428,431,o),
(437,422,o),
(455,422,cs),
(472,422,o),
(480,431,o),
(480,448,cs)
);
},
{
closed = 1;
nodes = (
(408,514,o),
(400,523,o),
(383,523,cs),
(364,523,o),
(355,514,o),
(355,496,cs),
(355,479,o),
(364,470,o),
(383,470,cs),
(400,470,o),
(408,479,o),
(408,496,cs)
);
},
{
closed = 1;
nodes = (
(529,393,o),
(520,402,o),
(503,402,cs),
(485,402,o),
(476,393,o),
(476,376,cs),
(476,358,o),
(485,349,o),
(502,349,cs),
(520,349,o),
(529,358,o),
(529,376,cs)
);
},
{
closed = 1;
nodes = (
(546,308,o),
(538,317,o),
(521,317,cs),
(503,317,o),
(494,308,o),
(494,291,cs),
(494,274,o),
(503,265,o),
(521,265,cs),
(538,265,o),
(546,274,o),
(546,291,cs)
);
},
{
closed = 1;
nodes = (
(323,531,o),
(314,540,o),
(297,540,cs),
(280,540,o),
(271,531,o),
(271,514,cs),
(271,496,o),
(280,487,o),
(297,487,cs),
(314,487,o),
(323,496,o),
(323,514,cs)
);
},
{
closed = 1;
nodes = (
(239,514,o),
(230,523,o),
(212,523,cs),
(195,523,o),
(186,514,o),
(186,496,cs),
(186,479,o),
(195,470,o),
(212,470,cs),
(230,470,o),
(239,479,o),
(239,496,cs)
);
},
{
closed = 1;
nodes = (
(529,224,o),
(520,233,o),
(502,233,cs),
(485,233,o),
(476,224,o),
(476,206,cs),
(476,189,o),
(485,180,o),
(502,180,cs),
(520,180,o),
(529,189,o),
(529,206,cs)
);
},
{
closed = 1;
nodes = (
(167,466,o),
(158,475,o),
(140,475,cs),
(123,475,o),
(114,466,o),
(114,447,cs),
(114,430,o),
(123,422,o),
(140,422,cs),
(158,422,o),
(167,431,o),
(167,448,cs)
);
},
{
closed = 1;
nodes = (
(480,151,o),
(472,160,o),
(455,160,cs),
(437,160,o),
(428,151,o),
(428,133,cs),
(428,116,o),
(437,107,o),
(455,107,cs),
(472,107,o),
(480,116,o),
(480,133,cs)
);
},
{
closed = 1;
nodes = (
(408,103,o),
(400,112,o),
(383,112,cs),
(364,112,o),
(355,103,o),
(355,85,cs),
(355,68,o),
(364,60,o),
(383,60,cs),
(400,60,o),
(408,68,o),
(408,85,cs)
);
},
{
closed = 1;
nodes = (
(118,393,o),
(109,402,o),
(92,402,cs),
(74,402,o),
(65,393,o),
(65,376,cs),
(65,358,o),
(74,349,o),
(93,349,cs),
(110,349,o),
(118,358,o),
(118,376,cs)
);
},
{
closed = 1;
nodes = (
(101,308,o),
(92,317,o),
(75,317,cs),
(57,317,o),
(48,308,o),
(48,291,cs),
(48,274,o),
(57,265,o),
(75,265,cs),
(92,265,o),
(101,274,o),
(101,291,cs)
);
},
{
closed = 1;
nodes = (
(323,86,o),
(314,95,o),
(297,95,cs),
(280,95,o),
(271,86,o),
(271,69,cs),
(271,51,o),
(280,42,o),
(297,42,cs),
(314,42,o),
(323,51,o),
(323,69,cs)
);
},
{
closed = 1;
nodes = (
(118,224,o),
(109,233,o),
(92,233,cs),
(74,233,o),
(65,224,o),
(65,206,cs),
(65,189,o),
(74,180,o),
(92,180,cs),
(109,180,o),
(118,189,o),
(118,206,cs)
);
},
{
closed = 1;
nodes = (
(239,104,o),
(230,112,o),
(212,112,cs),
(195,112,o),
(186,103,o),
(186,85,cs),
(186,68,o),
(195,60,o),
(212,60,cs),
(230,60,o),
(239,69,o),
(239,87,cs)
);
},
{
closed = 1;
nodes = (
(167,151,o),
(158,160,o),
(140,160,cs),
(123,160,o),
(114,151,o),
(114,133,cs),
(114,116,o),
(123,107,o),
(140,107,cs),
(158,107,o),
(167,116,o),
(167,133,cs)
);
}
);
width = 594;
},
{
anchors = (
{
name = bottom;
pos = (339,8);
},
{
name = bottomleft;
pos = (44,0);
},
{
name = center;
pos = (219,290);
},
{
name = hiriq;
pos = (576,0);
},
{
name = top;
pos = (337,553);
},
{
name = topleft;
pos = (15,553);
},
{
name = topright;
pos = (521,553);
}
);
layerId = "AD6F6DAA-2D58-4E1D-98AF-ACAAF76D7B9E";
shapes = (
{
closed = 1;
nodes = (
(480,466,o),
(472,475,o),
(455,475,cs),
(437,475,o),
(428,466,o),
(428,448,cs),
(428,431,o),
(437,422,o),
(455,422,cs),
(472,422,o),
(480,431,o),
(480,448,cs)
);
},
{
closed = 1;
nodes = (
(408,514,o),
(400,523,o),
(383,523,cs),
(364,523,o),
(355,514,o),
(355,496,cs),
(355,479,o),
(364,470,o),
(383,470,cs),
(400,470,o),
(408,479,o),
(408,496,cs)
);
},
{
closed = 1;
nodes = (
(529,393,o),
(520,402,o),
(503,402,cs),
(485,402,o),
(476,393,o),
(476,376,cs),
(476,358,o),
(485,349,o),
(502,349,cs),
(520,349,o),
(529,358,o),
(529,376,cs)
);
},
{
closed = 1;
nodes = (
(546,308,o),
(538,317,o),
(521,317,cs),
(503,317,o),
(494,308,o),
(494,291,cs),
(494,274,o),
(503,265,o),
(521,265,cs),
(538,265,o),
(546,274,o),
(546,291,cs)
);
},
{
closed = 1;
nodes = (
(323,531,o),
(314,540,o),
(297,540,cs),
(280,540,o),
(271,531,o),
(271,514,cs),
(271,496,o),
(280,487,o),
(297,487,cs),
(314,487,o),
(323,496,o),
(323,514,cs)
);
},
{
closed = 1;
nodes = (
(239,514,o),
(230,523,o),
(212,523,cs),
(195,523,o),
(186,514,o),
(186,496,cs),
(186,479,o),
(195,470,o),
(212,470,cs),
(230,470,o),
(239,479,o),
(239,496,cs)
);
},
{
closed = 1;
nodes = (
(529,224,o),
(520,233,o),
(502,233,cs),
(485,233,o),
(476,224,o),
(476,206,cs),
(476,189,o),
(485,180,o),
(502,180,cs),
(520,180,o),
(529,189,o),
(529,206,cs)
);
},
{
closed = 1;
nodes = (
(167,466,o),
(158,475,o),
(140,475,cs),
(123,475,o),
(114,466,o),
(114,447,cs),
(114,430,o),
(123,422,o),
(140,422,cs),
(158,422,o),
(167,431,o),
(167,448,cs)
);
},
{
closed = 1;
nodes = (
(480,151,o),
(472,160,o),
(455,160,cs),
(437,160,o),
(428,151,o),
(428,133,cs),
(428,116,o),
(437,107,o),
(455,107,cs),
(472,107,o),
(480,116,o),
(480,133,cs)
);
},
{
closed = 1;
nodes = (
(408,103,o),
(400,112,o),
(383,112,cs),
(364,112,o),
(355,103,o),
(355,85,cs),
(355,68,o),
(364,60,o),
(383,60,cs),
(400,60,o),
(408,68,o),
(408,85,cs)
);
},
{
closed = 1;
nodes = (
(118,393,o),
(109,402,o),
(92,402,cs),
(74,402,o),
(65,393,o),
(65,376,cs),
(65,358,o),
(74,349,o),
(93,349,cs),
(110,349,o),
(118,358,o),
(118,376,cs)
);
},
{
closed = 1;
nodes = (
(101,308,o),
(92,317,o),
(75,317,cs),
(57,317,o),
(48,308,o),
(48,291,cs),
(48,274,o),
(57,265,o),
(75,265,cs),
(92,265,o),
(101,274,o),
(101,291,cs)
);
},
{
closed = 1;
nodes = (
(323,86,o),
(314,95,o),
(297,95,cs),
(280,95,o),
(271,86,o),
(271,69,cs),
(271,51,o),
(280,42,o),
(297,42,cs),
(314,42,o),
(323,51,o),
(323,69,cs)
);
},
{
closed = 1;
nodes = (
(118,224,o),
(109,233,o),
(92,233,cs),
(74,233,o),
(65,224,o),
(65,206,cs),
(65,189,o),
(74,180,o),
(92,180,cs),
(109,180,o),
(118,189,o),
(118,206,cs)
);
},
{
closed = 1;
nodes = (
(239,104,o),
(230,112,o),
(212,112,cs),
(195,112,o),
(186,103,o),
(186,85,cs),
(186,68,o),
(195,60,o),
(212,60,cs),
(230,60,o),
(239,69,o),
(239,87,cs)
);
},
{
closed = 1;
nodes = (
(167,151,o),
(158,160,o),
(140,160,cs),
(123,160,o),
(114,151,o),
(114,133,cs),
(114,116,o),
(123,107,o),
(140,107,cs),
(158,107,o),
(167,116,o),
(167,133,cs)
);
}
);
width = 594;
}
);
note = uni25CC;
unicode = 9676;
},
{
glyphname = uni200C;
lastChange = "2016-07-07 18:36:03 +0000";
layers = (
{
layerId = "1F954AD7-537E-453D-9D07-161C7E95D0AA";
shapes = (
{
closed = 1;
nodes = (
(-18,679,l),
(-18,-45,l),
(18,-45,l),
(18,679,l)
);
}
);
width = 0;
},
{
layerId = "0C04772A-F31D-4E86-90EF-3402D1EA39CA";
shapes = (
{
closed = 1;
nodes = (
(-18,679,l),
(-18,-45,l),
(18,-45,l),
(18,679,l)
);
}
);
width = 0;
},
{
layerId = "3FB868F8-5CDC-4A46-BA32-95627737ABE0";
shapes = (
{
closed = 1;
nodes = (
(-18,679,l),
(-18,-45,l),
(18,-45,l),
(18,679,l)
);
}
);
width = 0;
},
{
layerId = "BD31AAF9-E65B-4A30-ACC0-7018B0C27C60";
shapes = (
{
closed = 1;
nodes = (
(-18,679,l),
(-18,-45,l),
(18,-45,l),
(18,679,l)
);
}
);
width = 0;
},
{
layerId = "E193C3F6-581C-4255-BA06-39B2C55FEA85";
shapes = (
{
closed = 1;
nodes = (
(-18,679,l),
(-18,-45,l),
(18,-45,l),
(18,679,l)
);
}
);
width = 0;
},
{
layerId = "AD6F6DAA-2D58-4E1D-98AF-ACAAF76D7B9E";
shapes = (
{
closed = 1;
nodes = (
(-18,679,l),
(-18,-45,l),
(18,-45,l),
(18,679,l)
);
}
);
width = 0;
}
);
note = uni200C;
unicode = 8204;
},
{
glyphname = uni200D;
lastChange = "2016-07-07 18:36:03 +0000";
layers = (
{
layerId = "1F954AD7-537E-453D-9D07-161C7E95D0AA";
shapes = (
{
closed = 1;
nodes = (
(18,533,l),
(83,467,l),
(107,491,l),
(23,573,l),
(107,655,l),
(83,679,l),
(0,596,l),
(-83,679,l),
(-107,655,l),
(-23,573,l),
(-107,491,l),
(-83,467,l),
(-18,533,l),
(-18,-45,l),
(18,-45,l)
);
}
);
width = 0;
},
{
layerId = "0C04772A-F31D-4E86-90EF-3402D1EA39CA";
shapes = (
{
closed = 1;
nodes = (
(18,533,l),
(83,467,l),
(107,491,l),
(23,573,l),
(107,655,l),
(83,679,l),
(0,596,l),
(-83,679,l),
(-107,655,l),
(-23,573,l),
(-107,491,l),
(-83,467,l),
(-18,533,l),
(-18,-45,l),
(18,-45,l)
);
}
);
width = 0;
},
{
layerId = "3FB868F8-5CDC-4A46-BA32-95627737ABE0";
shapes = (
{
closed = 1;
nodes = (
(18,533,l),
(83,467,l),
(107,491,l),
(23,573,l),
(107,655,l),
(83,679,l),
(0,596,l),
(-83,679,l),
(-107,655,l),
(-23,573,l),
(-107,491,l),
(-83,467,l),
(-18,533,l),
(-18,-45,l),
(18,-45,l)
);
}
);
width = 0;
},
{
layerId = "BD31AAF9-E65B-4A30-ACC0-7018B0C27C60";
shapes = (
{
closed = 1;
nodes = (
(18,533,l),
(83,467,l),
(107,491,l),
(23,573,l),
(107,655,l),
(83,679,l),
(0,596,l),
(-83,679,l),
(-107,655,l),
(-23,573,l),
(-107,491,l),
(-83,467,l),
(-18,533,l),
(-18,-45,l),
(18,-45,l)
);
}
);
width = 0;
},
{
layerId = "E193C3F6-581C-4255-BA06-39B2C55FEA85";
shapes = (
{
closed = 1;
nodes = (
(18,533,l),
(83,467,l),
(107,491,l),
(23,573,l),
(107,655,l),
(83,679,l),
(0,596,l),
(-83,679,l),
(-107,655,l),
(-23,573,l),
(-107,491,l),
(-83,467,l),
(-18,533,l),
(-18,-45,l),
(18,-45,l)
);
}
);
width = 0;
},
{
layerId = "AD6F6DAA-2D58-4E1D-98AF-ACAAF76D7B9E";
shapes = (
{
closed = 1;
nodes = (
(18,533,l),
(83,467,l),
(107,491,l),
(23,573,l),
(107,655,l),
(83,679,l),
(0,596,l),
(-83,679,l),
(-107,655,l),
(-23,573,l),
(-107,491,l),
(-83,467,l),
(-18,533,l),
(-18,-45,l),
(18,-45,l)
);
}
);
width = 0;
}
);
note = uni200D;
unicode = 8205;
},
{
glyphname = uni200E;
lastChange = "2016-07-07 18:36:03 +0000";
layers = (
{
layerId = "1F954AD7-537E-453D-9D07-161C7E95D0AA";
shapes = (
{
closed = 1;
nodes = (
(104,679,l),
(80,655,l),
(147,592,l),
(-18,592,l),
(-18,-45,l),
(17,-45,l),
(17,557,l),
(147,557,l),
(80,494,l),
(104,470,l),
(210,574,l)
);
}
);
width = 0;
},
{
layerId = "0C04772A-F31D-4E86-90EF-3402D1EA39CA";
shapes = (
{
closed = 1;
nodes = (
(104,679,l),
(80,655,l),
(147,592,l),
(-18,592,l),
(-18,-45,l),
(17,-45,l),
(17,557,l),
(147,557,l),
(80,494,l),
(104,470,l),
(210,574,l)
);
}
);
width = 0;
},
{
layerId = "3FB868F8-5CDC-4A46-BA32-95627737ABE0";
shapes = (
{
closed = 1;
nodes = (
(104,679,l),
(80,655,l),
(147,592,l),
(-18,592,l),
(-18,-45,l),
(17,-45,l),
(17,557,l),
(147,557,l),
(80,494,l),
(104,470,l),
(210,574,l)
);
}
);
width = 0;
},
{
layerId = "BD31AAF9-E65B-4A30-ACC0-7018B0C27C60";
shapes = (
{
closed = 1;
nodes = (
(104,679,l),
(80,655,l),
(147,592,l),
(-18,592,l),
(-18,-45,l),
(17,-45,l),
(17,557,l),
(147,557,l),
(80,494,l),
(104,470,l),
(210,574,l)
);
}
);
width = 0;
},
{
layerId = "E193C3F6-581C-4255-BA06-39B2C55FEA85";
shapes = (
{
closed = 1;
nodes = (
(104,679,l),
(80,655,l),
(147,592,l),
(-18,592,l),
(-18,-45,l),
(17,-45,l),
(17,557,l),
(147,557,l),
(80,494,l),
(104,470,l),
(210,574,l)
);
}
);
width = 0;
},
{
layerId = "AD6F6DAA-2D58-4E1D-98AF-ACAAF76D7B9E";
shapes = (
{
closed = 1;
nodes = (
(104,679,l),
(80,655,l),
(147,592,l),
(-18,592,l),
(-18,-45,l),
(17,-45,l),
(17,557,l),
(147,557,l),
(80,494,l),
(104,470,l),
(210,574,l)
);
}
);
width = 0;
}
);
note = uni200E;
unicode = 8206;
},
{
glyphname = uni200F;
lastChange = "2016-07-07 18:36:03 +0000";
layers = (
{
layerId = "1F954AD7-537E-453D-9D07-161C7E95D0AA";
shapes = (
{
closed = 1;
nodes = (
(17,592,l),
(-147,592,l),
(-81,655,l),
(-104,679,l),
(-210,574,l),
(-104,470,l),
(-81,494,l),
(-147,557,l),
(-18,557,l),
(-18,-45,l),
(17,-45,l)
);
}
);
width = 0;
},
{
layerId = "0C04772A-F31D-4E86-90EF-3402D1EA39CA";
shapes = (
{
closed = 1;
nodes = (
(17,592,l),
(-147,592,l),
(-81,655,l),
(-104,679,l),
(-210,574,l),
(-104,470,l),
(-81,494,l),
(-147,557,l),
(-18,557,l),
(-18,-45,l),
(17,-45,l)
);
}
);
width = 0;
},
{
layerId = "3FB868F8-5CDC-4A46-BA32-95627737ABE0";
shapes = (
{
closed = 1;
nodes = (
(17,592,l),
(-147,592,l),
(-81,655,l),
(-104,679,l),
(-210,574,l),
(-104,470,l),
(-81,494,l),
(-147,557,l),
(-18,557,l),
(-18,-45,l),
(17,-45,l)
);
}
);
width = 0;
},
{
layerId = "BD31AAF9-E65B-4A30-ACC0-7018B0C27C60";
shapes = (
{
closed = 1;
nodes = (
(17,592,l),
(-147,592,l),
(-81,655,l),
(-104,679,l),
(-210,574,l),
(-104,470,l),
(-81,494,l),
(-147,557,l),
(-18,557,l),
(-18,-45,l),
(17,-45,l)
);
}
);
width = 0;
},
{
layerId = "E193C3F6-581C-4255-BA06-39B2C55FEA85";
shapes = (
{
closed = 1;
nodes = (
(17,592,l),
(-147,592,l),
(-81,655,l),
(-104,679,l),
(-210,574,l),
(-104,470,l),
(-81,494,l),
(-147,557,l),
(-18,557,l),
(-18,-45,l),
(17,-45,l)
);
}
);
width = 0;
},
{
layerId = "AD6F6DAA-2D58-4E1D-98AF-ACAAF76D7B9E";
shapes = (
{
closed = 1;
nodes = (
(17,592,l),
(-147,592,l),
(-81,655,l),
(-104,679,l),
(-210,574,l),
(-104,470,l),
(-81,494,l),
(-147,557,l),
(-18,557,l),
(-18,-45,l),
(17,-45,l)
);
}
);
width = 0;
}
);
note = uni200F;
unicode = 8207;
},
{
glyphname = "alef-hb";
lastChange = "2021-08-01 15:08:25 +0000";
layers = (
{
anchors = (
{
name = bottom;
pos = (274,0);
},
{
name = bottomleft;
pos = (73,0);
},
{
name = center;
pos = (212,127);
},
{
name = top;
pos = (280,528);
},
{
name = topleft;
pos = (0,528);
}
);
layerId = "1F954AD7-537E-453D-9D07-161C7E95D0AA";
shapes = (
{
closed = 1;
nodes = (
(492,0,l),
(352,212,l),
(96,584,l),
(64,584,l),
(189,403,l),
(461,0,l)
);
},
{
closed = 1;
nodes = (
(86,0,l),
(86,179,ls),
(86,282,o),
(139,351,o),
(207,394,c),
(199,416,l),
(124,368,o),
(60,299,o),
(60,187,cs),
(60,0,l)
);
},
{
closed = 1;
nodes = (
(426,247,o),
(490,316,o),
(490,428,cs),
(490,584,l),
(464,584,l),
(464,436,ls),
(464,333,o),
(411,264,o),
(343,221,c),
(351,199,l)
);
}
);
width = 552;
},
{
anchors = (
{
name = bottom;
pos = (298,0);
},
{
name = bottomleft;
pos = (101,0);
},
{
name = center;
pos = (250,158);
},
{
name = top;
pos = (304,536);
},
{
name = topleft;
pos = (0,536);
}
);
layerId = "0C04772A-F31D-4E86-90EF-3402D1EA39CA";
shapes = (
{
closed = 1;
nodes = (
(556,0,l),
(397,234,l),
(156,592,l),
(50,592,l),
(193,382,l),
(450,0,l)
);
},
{
closed = 1;
nodes = (
(146,0,l),
(146,164,ls),
(146,270,o),
(179,332,o),
(246,356,c),
(219,423,l),
(117,390,o),
(56,307,o),
(56,158,cs),
(56,0,l)
);
},
{
closed = 1;
nodes = (
(484,218,o),
(542,301,o),
(542,446,cs),
(542,592,l),
(452,592,l),
(452,440,ls),
(452,336,o),
(420,274,o),
(355,250,c),
(385,184,l)
);
}
);
width = 606;
},
{
anchors = (
{
name = bottom;
pos = (351,0);
},
{
name = bottomleft;
pos = (125,0);
},
{
name = center;
pos = (324,80);
},
{
name = top;
pos = (351,553);
},
{
name = topleft;
pos = (0,553);
}
);
layerId = "3FB868F8-5CDC-4A46-BA32-95627737ABE0";
shapes = (
{
closed = 1;
nodes = (
(673,0,l),
(473,274,l),
(246,609,l),
(30,609,l),
(230,349,l),
(458,0,l)
);
},
{
closed = 1;
nodes = (
(244,0,l),
(244,172,ls),
(244,248,o),
(261,281,o),
(325,281,c),
(285,404,l),
(134,404,o),
(55,309,o),
(55,185,cs),
(55,0,l)
);
},
{
closed = 1;
nodes = (
(565,215,o),
(644,310,o),
(644,434,cs),
(644,609,l),
(455,609,l),
(455,447,ls),
(455,371,o),
(438,338,o),
(374,338,c),
(414,215,l)
);
}
);
width = 703;
},
{
anchors = (
{
name = bottom;
pos = (194,0);
},
{
name = bottomleft;
pos = (58,0);
},
{
name = center;
pos = (159,127);
},
{
name = top;
pos = (200,528);
},
{
name = topleft;
pos = (0,528);
}
);
layerId = "BD31AAF9-E65B-4A30-ACC0-7018B0C27C60";
shapes = (
{
closed = 1;
nodes = (
(342,0,l),
(237,230,l),
(76,584,l),
(49,583,l),
(142,380,l),
(316,-1,l)
);
},
{
closed = 1;
nodes = (
(71,0,l),
(71,189,ls),
(71,296,o),
(109,344,o),
(163,379,c),
(154,400,l),
(82,364,o),
(45,293,o),
(45,197,cs),
(45,0,l)
);
},
{
closed = 1;
nodes = (
(295,254,o),
(339,310,o),
(339,408,cs),
(339,584,l),
(313,584,l),
(313,413,ls),
(313,324,o),
(278,276,o),
(219,233,c),
(227,207,l)
);
}
);
width = 386;
},
{
anchors = (
{
name = bottom;
pos = (206,0);
},
{
name = bottomleft;
pos = (13,0);
},
{
name = center;
pos = (183,88);
},
{
name = top;
pos = (206,536);
},
{
name = topleft;
pos = (0,536);
}
);
layerId = "E193C3F6-581C-4255-BA06-39B2C55FEA85";
shapes = (
{
closed = 1;
nodes = (
(381,0,l),
(271,248,l),
(119,592,l),
(30,592,l),
(136,353,l),
(292,0,l)
);
},
{
closed = 1;
nodes = (
(120,0,l),
(120,164,ls),
(120,269,o),
(152,331,o),
(220,356,c),
(191,421,l),
(86,386,o),
(36,297,o),
(36,158,cs),
(36,0,l)
);
},
{
closed = 1;
nodes = (
(326,222,o),
(377,310,o),
(377,446,cs),
(377,592,l),
(293,592,l),
(293,440,ls),
(293,337,o),
(262,275,o),
(196,250,c),
(225,186,l)
);
}
);
width = 411;
},
{
anchors = (
{
name = bottom;
pos = (257,0);
},
{
name = bottomleft;
pos = (24,0);
},
{
name = center;
pos = (238,60);
},
{
name = top;
pos = (249,553);
},
{
name = topleft;
pos = (0,553);
}
);
layerId = "AD6F6DAA-2D58-4E1D-98AF-ACAAF76D7B9E";
shapes = (
{
closed = 1;
nodes = (
(495,0,l),
(329,314,l),
(189,609,l),
(20,609,l),
(165,333,l),
(326,0,l)
);
},
{
closed = 1;
nodes = (
(186,0,l),
(186,177,ls),
(186,255,o),
(194,280,o),
(245,298,c),
(215,398,l),
(86,394,o),
(25,318,o),
(25,190,cs),
(25,0,l)
);
},
{
closed = 1;
nodes = (
(415,253,o),
(476,328,o),
(476,456,cs),
(476,609,l),
(315,609,l),
(315,469,ls),
(315,379,o),
(314,353,o),
(256,349,c),
(286,249,l)
);
}
);
width = 515;
}
);
unicode = 1488;
},
{
glyphname = "bet-hb";
lastChange = "2021-08-01 15:25:28 +0000";
layers = (
{
anchors = (
{
name = bottom;
pos = (264,0);
},
{
name = bottomleft;
pos = (35,0);
},
{
name = center;
pos = (214,296);
},
{
name = top;
pos = (206,528);
},
{
name = topleft;
pos = (0,528);
}
);
layerId = "1F954AD7-537E-453D-9D07-161C7E95D0AA";
shapes = (
{
closed = 1;
nodes = (
(418,0,l),
(418,419,ls),
(418,531,o),
(359,584,o),
(258,584,cs),
(35,584,l),
(35,557,l),
(253,557,ls),
(341,557,o),
(392,518,o),
(392,416,cs),
(392,0,l)
);
},
{
closed = 1;
nodes = (
(493,0,l),
(493,27,l),
(35,27,l),
(35,0,l)
);
}
);
width = 523;
},
{
anchors = (
{
name = bottom;
pos = (274,0);
},
{
name = bottomleft;
pos = (30,0);
},
{
name = center;
pos = (190,300);
},
{
name = top;
pos = (217,536);
},
{
name = topleft;
pos = (0,536);
}
);
layerId = "0C04772A-F31D-4E86-90EF-3402D1EA39CA";
shapes = (
{
closed = 1;
nodes = (
(439,0,l),
(439,403,ls),
(439,535,o),
(374,592,o),
(238,592,cs),
(30,592,l),
(30,509,l),
(232,509,ls),
(305,509,o),
(349,478,o),
(349,385,cs),
(349,0,l)
);
},
{
closed = 1;
nodes = (
(517,0,l),
(517,83,l),
(30,83,l),
(30,0,l)
);
}
);
width = 542;
},
{
anchors = (
{
name = bottom;
pos = (310,0);
},
{
name = bottomleft;
pos = (15,0);
},
{
name = center;
pos = (175,306);
},
{
name = top;
pos = (247,553);
},
{
name = topleft;
pos = (0,553);
}
);
layerId = "3FB868F8-5CDC-4A46-BA32-95627737ABE0";
shapes = (
{
closed = 1;
nodes = (
(526,0,l),
(526,382,ls),
(526,533,o),
(441,609,o),
(274,609,cs),
(15,609,l),
(15,451,l),
(265,451,ls),
(308,451,o),
(334,427,o),
(334,379,cs),
(334,0,l)
);
},
{
closed = 1;
nodes = (
(604,0,l),
(604,158,l),
(15,158,l),
(15,0,l)
);
}
);
width = 614;
},
{
anchors = (
{
name = bottom;
pos = (174,0);
},
{
name = bottomleft;
pos = (24,0);
},
{
name = center;
pos = (123,296);
},
{
name = top;
pos = (123,528);
},
{
name = topleft;
pos = (0,528);
}
);
layerId = "BD31AAF9-E65B-4A30-ACC0-7018B0C27C60";
shapes = (
{
closed = 1;
nodes = (
(247,0,l),
(247,433,ls),
(247,545,o),
(203,584,o),
(102,584,cs),
(25,584,l),
(25,557,l),
(97,557,ls),
(185,557,o),
(221,530,o),
(221,428,cs),
(221,0,l)
);
},
{
closed = 1;
nodes = (
(322,0,l),
(322,27,l),
(25,27,l),
(25,0,l)
);
}
);
width = 327;
},
{
anchors = (
{
name = bottom;
pos = (196,0);
},
{
name = bottomleft;
pos = (17,0);
},
{
name = center;
pos = (114,300);
},
{
name = top;
pos = (151,536);
},
{
name = topleft;
pos = (20,536);
}
);
layerId = "E193C3F6-581C-4255-BA06-39B2C55FEA85";
shapes = (
{
closed = 1;
nodes = (
(292,0,l),
(292,404,ls),
(292,534,o),
(236,592,o),
(145,592,cs),
(20,592,l),
(20,511,l),
(122,511,ls),
(172,511,o),
(208,483,o),
(208,386,cs),
(208,0,l)
);
},
{
closed = 1;
nodes = (
(362,0,l),
(362,81,l),
(20,81,l),
(20,0,l)
);
}
);
width = 367;
},
{
anchors = (
{
name = bottom;
pos = (225,0);
},
{
name = bottomleft;
pos = (14,0);
},
{
name = center;
pos = (105,306);
},
{
name = top;
pos = (195,553);
},
{
name = topleft;
pos = (0,553);
}
);
layerId = "AD6F6DAA-2D58-4E1D-98AF-ACAAF76D7B9E";
shapes = (
{
closed = 1;
nodes = (
(364,0,l),
(364,409,ls),
(364,544,o),
(295,609,o),
(185,609,cs),
(15,609,l),
(15,463,l),
(141,463,ls),
(177,463,o),
(194,440,o),
(194,395,cs),
(194,0,l)
);
},
{
closed = 1;
nodes = (
(434,0,l),
(434,146,l),
(15,146,l),
(15,0,l)
);
}
);
width = 444;
}
);
unicode = 1489;
},
{
glyphname = "gimel-hb";
lastChange = "2021-08-01 15:25:27 +0000";
layers = (
{
anchors = (
{
name = bottom;
pos = (150,0);
},
{
name = bottomleft;
pos = (15,0);
},
{
name = center;
pos = (126,296);
},
{
name = top;
pos = (149,528);
},
{
name = topleft;
pos = (0,528);
}
);
layerId = "1F954AD7-537E-453D-9D07-161C7E95D0AA";
shapes = (
{
closed = 1;
nodes = (
(81,17,o),
(197,94,o),
(238,171,c),
(239,171,l),
(260,0,l),
(285,0,l),
(263,178,l),
(263,479,ls),
(263,550,o),
(224,584,o),
(158,584,cs),
(59,584,l),
(59,557,l),
(153,557,ls),
(206,557,o),
(237,535,o),
(237,476,cs),
(237,247,ls),
(237,194,o),
(200,141,o),
(143,95,cs),
(109,67,o),
(59,38,o),
(15,17,c),
(15,-10,l)
);
}
);
width = 320;
},
{
anchors = (
{
name = bottom;
pos = (176,0);
},
{
name = bottomleft;
pos = (15,0);
},
{
name = center;
pos = (116,342);
},
{
name = top;
pos = (175,536);
},
{
name = topleft;
pos = (0,536);
}
);
layerId = "0C04772A-F31D-4E86-90EF-3402D1EA39CA";
shapes = (
{
closed = 1;
nodes = (
(72,13,o),
(156,67,o),
(211,164,c),
(215,164,l),
(243,0,l),
(317,0,l),
(296,179,l),
(296,456,ls),
(296,555,o),
(245,592,o),
(175,592,cs),
(53,592,l),
(53,509,l),
(149,509,ls),
(187,509,o),
(207,492,o),
(207,445,cs),
(207,342,ls),
(207,281,o),
(184,220,o),
(142,171,cs),
(110,134,o),
(67,104,o),
(15,86,c),
(15,-10,l)
);
}
);
width = 347;
},
{
anchors = (
{
name = bottom;
pos = (214,0);
},
{
name = bottomleft;
pos = (15,0);
},
{
name = center;
pos = (114,306);
},
{
name = top;
pos = (226,553);
},
{
name = topleft;
pos = (0,553);
}
);
layerId = "3FB868F8-5CDC-4A46-BA32-95627737ABE0";
shapes = (
{
closed = 1;
nodes = (
(90,6,o),
(161,51,o),
(219,115,c),
(224,115,l),
(260,0,l),
(425,0,l),
(399,199,l),
(399,434,ls),
(399,539,o),
(343,609,o),
(226,609,cs),
(53,609,l),
(53,450,l),
(173,450,ls),
(198,450,o),
(207,439,o),
(207,415,cs),
(207,324,ls),
(207,277,o),
(185,236,o),
(148,205,cs),
(114,177,o),
(69,158,o),
(15,152,c),
(15,-10,l)
);
}
);
width = 440;
},
{
anchors = (
{
name = bottom;
pos = (94,0);
},
{
name = bottomleft;
pos = (5,0);
},
{
name = center;
pos = (76,296);
},
{
name = top;
pos = (106,528);
},
{
name = topleft;
pos = (0,528);
}
);
layerId = "BD31AAF9-E65B-4A30-ACC0-7018B0C27C60";
shapes = (
{
closed = 1;
nodes = (
(78,40,o),
(120,93,o),
(145,171,c),
(147,171,l),
(171,0,l),
(193,0,l),
(168,178,l),
(168,487,ls),
(168,553,o),
(145,584,o),
(91,584,cs),
(44,584,l),
(44,557,l),
(86,557,ls),
(129,557,o),
(142,537,o),
(142,479,cs),
(142,275,ls),
(142,209,o),
(126,158,o),
(99,113,cs),
(81,83,o),
(60,59,o),
(10,19,c),
(10,-12,l)
);
}
);
width = 230;
},
{
anchors = (
{
name = bottom;
pos = (124,0);
},
{
name = bottomleft;
pos = (10,0);
},
{
name = center;
pos = (58,342);
},
{
name = top;
pos = (138,536);
},
{
name = topleft;
pos = (59,536);
}
);
layerId = "E193C3F6-581C-4255-BA06-39B2C55FEA85";
shapes = (
{
closed = 1;
nodes = (
(59,13,o),
(114,72,o),
(139,144,c),
(141,144,l),
(169,0,l),
(237,0,l),
(216,183,l),
(216,449,ls),
(216,545,o),
(185,592,o),
(114,592,cs),
(59,592,l),
(59,511,l),
(84,511,ls),
(123,511,o),
(133,484,o),
(133,430,cs),
(133,342,ls),
(133,275,o),
(125,219,o),
(94,170,cs),
(75,140,o),
(48,112,o),
(10,86,c),
(10,-10,l)
);
}
);
width = 277;
},
{
anchors = (
{
name = bottom;
pos = (317,3);
},
{
name = bottomleft;
pos = (-1,0);
},
{
name = center;
pos = (52,306);
},
{
name = top;
pos = (166,553);
},
{
name = topleft;
pos = (0,553);
}
);
layerId = "AD6F6DAA-2D58-4E1D-98AF-ACAAF76D7B9E";
shapes = (
{
closed = 1;
nodes = (
(76,21,o),
(121,52,o),
(153,115,c),
(157,115,l),
(183,0,l),
(317,0,l),
(292,192,l),
(292,417,ls),
(292,547,o),
(249,609,o),
(140,609,cs),
(38,609,l),
(38,463,l),
(83,463,ls),
(110,463,o),
(123,445,o),
(123,409,cs),
(123,291,ls),
(123,253,o),
(112,226,o),
(93,203,cs),
(74,181,o),
(46,164,o),
(10,148,c),
(10,-12,l)
);
}
);
width = 347;
}
);
unicode = 1490;
},
{
glyphname = "dalet-hb";
lastChange = "2021-08-01 15:34:17 +0000";
layers = (
{
anchors = (
{
name = bottom;
pos = (330,0);
},
{
name = bottomleft;
pos = (178,0);
},
{
name = center;
pos = (178,296);
},
{
name = top;
pos = (239,528);
},
{
name = topleft;
pos = (-12,528);
}
);
layerId = "1F954AD7-537E-453D-9D07-161C7E95D0AA";
shapes = (
{
closed = 1;
nodes = (
(372,0,l),
(372,572,l),
(346,572,l),
(346,0,l)
);
},
{
closed = 1;
nodes = (
(467,555,l),
(467,584,l),
(10,584,l),
(10,555,l)
);
}
);
width = 502;
},
{
anchors = (
{
name = bottom;
pos = (362,0);
},
{
name = bottomleft;
pos = (164,0);
},
{
name = center;
pos = (164,300);
},
{
name = top;
pos = (254,536);
},
{
name = topleft;
pos = (-12,536);
}
);
layerId = "0C04772A-F31D-4E86-90EF-3402D1EA39CA";
shapes = (
{
closed = 1;
nodes = (
(407,0,l),
(407,544,l),
(317,544,l),
(317,0,l)
);
},
{
closed = 1;
nodes = (
(498,509,l),
(498,592,l),
(10,592,l),
(10,509,l)
);
}
);
width = 523;
},
{
anchors = (
{
name = bottom;
pos = (418,0);
},
{
name = bottomleft;
pos = (25,0);
},
{
name = center;
pos = (169,306);
},
{
name = top;
pos = (320,553);
},
{
name = topleft;
pos = (-20,553);
}
);
layerId = "3FB868F8-5CDC-4A46-BA32-95627737ABE0";
shapes = (
{
closed = 1;
nodes = (
(514,0,l),
(514,570,l),
(322,570,l),
(322,0,l)
);
},
{
closed = 1;
nodes = (
(605,451,l),
(605,609,l),
(15,609,l),
(15,451,l)
);
}
);
width = 620;
},
{
anchors = (
{
name = bottom;
pos = (219,0);
},
{
name = bottomleft;
pos = (68,0);
},
{
name = center;
pos = (108,296);
},
{
name = top;
pos = (159,528);
},
{
name = topleft;
pos = (-10,528);
}
);
layerId = "BD31AAF9-E65B-4A30-ACC0-7018B0C27C60";
shapes = (
{
closed = 1;
nodes = (
(232,0,l),
(232,572,l),
(206,572,l),
(206,0,l)
);
},
{
closed = 1;
nodes = (
(307,557,l),
(307,584,l),
(10,584,l),
(10,557,l)
);
}
);
width = 317;
},
{
anchors = (
{
name = bottom;
pos = (239,0);
},
{
name = bottomleft;
pos = (46,0);
},
{
name = center;
pos = (104,300);
},
{
name = top;
pos = (181,536);
},
{
name = topleft;
pos = (-12,536);
}
);
layerId = "E193C3F6-581C-4255-BA06-39B2C55FEA85";
shapes = (
{
closed = 1;
nodes = (
(281,0,l),
(281,542,l),
(197,542,l),
(197,0,l)
);
},
{
closed = 1;
nodes = (
(352,511,l),
(352,592,l),
(10,592,l),
(10,511,l)
);
}
);
width = 362;
},
{
anchors = (
{
name = bottom;
pos = (282,0);
},
{
name = bottomleft;
pos = (20,0);
},
{
name = center;
pos = (104,306);
},
{
name = top;
pos = (224,553);
},
{
name = topleft;
pos = (-10,553);
}
);
layerId = "AD6F6DAA-2D58-4E1D-98AF-ACAAF76D7B9E";
shapes = (
{
closed = 1;
nodes = (
(367,0,l),
(367,570,l),
(197,570,l),
(197,0,l)
);
},
{
closed = 1;
nodes = (
(437,463,l),
(437,609,l),
(10,609,l),
(10,463,l)
);
}
);
width = 447;
}
);
unicode = 1491;
},
{
glyphname = "he-hb";
lastChange = "2021-08-01 15:25:23 +0000";
layers = (
{
anchors = (
{
name = bottom;
pos = (321,0);
},
{
name = bottomleft;
pos = (90,0);
},
{
name = center;
pos = (321,296);
},
{
name = top;
pos = (292,528);
},
{
name = topleft;
pos = (0,528);
}
);
layerId = "1F954AD7-537E-453D-9D07-161C7E95D0AA";
shapes = (
{
closed = 1;
nodes = (
(551,0,l),
(551,419,ls),
(551,531,o),
(492,584,o),
(391,584,cs),
(90,584,l),
(90,557,l),
(386,557,ls),
(474,557,o),
(525,518,o),
(525,416,cs),
(525,0,l)
);
},
{
closed = 1;
nodes = (
(116,0,l),
(116,360,l),
(90,360,l),
(90,0,l)
);
}
);
width = 636;
},
{
anchors = (
{
name = bottom;
pos = (329,0);
},
{
name = bottomleft;
pos = (85,0);
},
{
name = center;
pos = (329,300);
},
{
name = top;
pos = (301,536);
},
{
name = topleft;
pos = (0,536);
}
);
layerId = "0C04772A-F31D-4E86-90EF-3402D1EA39CA";
shapes = (
{
closed = 1;
nodes = (
(572,0,l),
(572,403,ls),
(572,535,o),
(507,592,o),
(371,592,cs),
(85,592,l),
(85,509,l),
(365,509,ls),
(438,509,o),
(482,478,o),
(482,385,cs),
(482,0,l)
);
},
{
closed = 1;
nodes = (
(175,0,l),
(175,354,l),
(85,354,l),
(85,0,l)
);
}
);
width = 652;
},
{
anchors = (
{
name = bottom;
pos = (365,0);
},
{
name = bottomleft;
pos = (70,0);
},
{
name = center;
pos = (362,306);
},
{
name = top;
pos = (365,553);
},
{
name = topleft;
pos = (0,553);
}
);
layerId = "3FB868F8-5CDC-4A46-BA32-95627737ABE0";
shapes = (
{
closed = 1;
nodes = (
(659,0,l),
(659,382,ls),
(659,533,o),
(574,609,o),
(407,609,cs),
(70,609,l),
(70,451,l),
(398,451,ls),
(441,451,o),
(467,427,o),
(467,379,cs),
(467,0,l)
);
},
{
closed = 1;
nodes = (
(262,0,l),
(262,336,l),
(70,336,l),
(70,0,l)
);
}
);
width = 724;
},
{
anchors = (
{
name = bottom;
pos = (235,0);
},
{
name = bottomleft;
pos = (75,0);
},
{
name = center;
pos = (226,296);
},
{
name = top;
pos = (206,528);
},
{
name = topleft;
pos = (0,528);
}
);
layerId = "BD31AAF9-E65B-4A30-ACC0-7018B0C27C60";
shapes = (
{
closed = 1;
nodes = (
(376,0,l),
(376,433,ls),
(376,545,o),
(332,584,o),
(231,584,cs),
(75,584,l),
(75,557,l),
(226,557,ls),
(314,557,o),
(350,530,o),
(350,428,cs),
(350,0,l)
);
},
{
closed = 1;
nodes = (
(101,0,l),
(101,390,l),
(75,390,l),
(75,0,l)
);
}
);
width = 446;
},
{
anchors = (
{
name = bottom;
pos = (231,0);
},
{
name = bottomleft;
pos = (62,0);
},
{
name = center;
pos = (231,300);
},
{
name = top;
pos = (231,536);
},
{
name = topleft;
pos = (65,536);
}
);
layerId = "E193C3F6-581C-4255-BA06-39B2C55FEA85";
shapes = (
{
closed = 1;
nodes = (
(396,0,l),
(396,407,ls),
(396,525,o),
(347,592,o),
(246,592,cs),
(65,592,l),
(65,511,l),
(230,511,ls),
(281,511,o),
(312,473,o),
(312,391,cs),
(312,0,l)
);
},
{
closed = 1;
nodes = (
(149,0,l),
(149,354,l),
(65,354,l),
(65,0,l)
);
}
);
width = 456;
},
{
anchors = (
{
name = bottom;
pos = (279,0);
},
{
name = bottomleft;
pos = (55,0);
},
{
name = center;
pos = (279,306);
},
{
name = top;
pos = (289,553);
},
{
name = topleft;
pos = (0,553);
}
);
layerId = "AD6F6DAA-2D58-4E1D-98AF-ACAAF76D7B9E";
shapes = (
{
closed = 1;
nodes = (
(502,0,l),
(502,409,ls),
(502,544,o),
(433,609,o),
(323,609,cs),
(55,609,l),
(55,463,l),
(279,463,ls),
(315,463,o),
(332,440,o),
(332,395,cs),
(332,0,l)
);
},
{
closed = 1;
nodes = (
(225,0,l),
(225,336,l),
(55,336,l),
(55,0,l)
);
}
);
width = 552;
}
);
unicode = 1492;
},
{
glyphname = "vav-hb";
lastChange = "2021-12-21 12:18:25 +0000";
layers = (
{
anchors = (
{
name = bottom;
pos = (103,0);
},
{
name = bottomleft;
pos = (31,0);
},
{
name = center;
pos = (31,296);
},
{
name = top;
pos = (103,528);
},
{
name = topleft;
pos = (103,528);
}
);
layerId = "1F954AD7-537E-453D-9D07-161C7E95D0AA";
shapes = (
{
closed = 1;
nodes = (
(116,0,l),
(116,584,l),
(90,584,l),
(90,0,l)
);
}
);
width = 206;
},
{
anchors = (
{
name = bottom;
pos = (130,0);
},
{
name = bottomleft;
pos = (14,0);
},
{
name = center;
pos = (14,300);
},
{
name = top;
pos = (130,536);
},
{
name = topleft;
pos = (130,536);
}
);
guides = (
{
angle = 90;
pos = (85,425);
}
);
layerId = "0C04772A-F31D-4E86-90EF-3402D1EA39CA";
shapes = (
{
closed = 1;
nodes = (
(175,0,l),
(175,592,l),
(85,592,l),
(85,0,l)
);
}
);
width = 260;
},
{
anchors = (
{
name = bottom;
pos = (166,0);
},
{
name = bottomleft;
pos = (32,0);
},
{
name = center;
pos = (-11,306);
},
{
name = top;
pos = (166,553);
},
{
name = topleft;
pos = (166,553);
}
);
layerId = "3FB868F8-5CDC-4A46-BA32-95627737ABE0";
shapes = (
{
closed = 1;
nodes = (
(262,0,l),
(262,609,l),
(70,609,l),
(70,0,l)
);
}
);
width = 332;
},
{
anchors = (
{
name = bottom;
pos = (88,0);
},
{
name = bottomleft;
pos = (16,0);
},
{
name = center;
pos = (16,296);
},
{
name = top;
pos = (88,528);
},
{
name = topleft;
pos = (0,528);
}
);
layerId = "BD31AAF9-E65B-4A30-ACC0-7018B0C27C60";
shapes = (
{
closed = 1;
nodes = (
(101,0,l),
(101,584,l),
(75,584,l),
(75,0,l)
);
}
);
width = 176;
},
{
anchors = (
{
name = bottom;
pos = (107,0);
},
{
name = bottomleft;
},
{
name = center;
pos = (0,300);
},
{
name = top;
pos = (107,536);
},
{
name = topleft;
pos = (177,536);
}
);
guides = (
{
angle = 90;
pos = (62,425);
}
);
layerId = "E193C3F6-581C-4255-BA06-39B2C55FEA85";
shapes = (
{
closed = 1;
nodes = (
(149,0,l),
(149,592,l),
(65,592,l),
(65,0,l)
);
}
);
width = 214;
},
{
anchors = (
{
name = bottom;
pos = (140,0);
},
{
name = bottomleft;
pos = (6,0);
},
{
name = center;
pos = (0,306);
},
{
name = top;
pos = (140,553);
},
{
name = topleft;
pos = (140,553);
}
);
layerId = "AD6F6DAA-2D58-4E1D-98AF-ACAAF76D7B9E";
shapes = (
{
closed = 1;
nodes = (
(225,0,l),
(225,609,l),
(55,609,l),
(55,0,l)
);
}
);
width = 280;
}
);
unicode = 1493;
},
{
glyphname = "zayin-hb";
lastChange = "2021-08-01 15:40:44 +0000";
layers = (
{
anchors = (
{
name = bottom;
pos = (147,0);
},
{
name = bottomleft;
},
{
name = center;
pos = (57,296);
},
{
name = top;
pos = (138,528);
},
{
name = topleft;
pos = (0,528);
}
);
layerId = "1F954AD7-537E-453D-9D07-161C7E95D0AA";
shapes = (
{
closed = 1;
nodes = (
(160,0,l),
(160,411,ls),
(160,495,o),
(216,543,o),
(246,560,c),
(246,584,l),
(30,584,l),
(30,557,l),
(201,557,l),
(201,555,l),
(149,511,o),
(134,467,o),
(134,400,cs),
(134,0,l)
);
}
);
width = 276;
},
{
anchors = (
{
name = bottom;
pos = (144,0);
},
{
name = bottomleft;
pos = (-10,0);
},
{
name = center;
pos = (-10,300);
},
{
name = top;
pos = (150,536);
},
{
name = topleft;
pos = (-12,536);
}
);
layerId = "0C04772A-F31D-4E86-90EF-3402D1EA39CA";
shapes = (
{
closed = 1;
nodes = (
(189,0,l),
(189,360,ls),
(189,465,o),
(256,503,o),
(275,516,c),
(275,592,l),
(25,592,l),
(25,509,l),
(175,509,l),
(175,506,l),
(147,488,o),
(99,445,o),
(99,349,cs),
(99,0,l)
);
}
);
width = 300;
},
{
anchors = (
{
name = bottom;
pos = (180,0);
},
{
name = bottomleft;
pos = (-5,0);
},
{
name = center;
pos = (-5,306);
},
{
name = top;
pos = (186,553);
},
{
name = topleft;
pos = (-20,553);
}
);
layerId = "3FB868F8-5CDC-4A46-BA32-95627737ABE0";
shapes = (
{
closed = 1;
nodes = (
(276,0,l),
(276,293,ls),
(276,418,o),
(332,467,o),
(362,489,c),
(362,609,l),
(10,609,l),
(10,451,l),
(160,451,l),
(160,447,l),
(109,404,o),
(84,347,o),
(84,274,cs),
(84,0,l)
);
}
);
width = 372;
},
{
anchors = (
{
name = bottom;
pos = (82,0);
},
{
name = bottomleft;
pos = (14,0);
},
{
name = center;
pos = (33,296);
},
{
name = top;
pos = (98,528);
},
{
name = topleft;
pos = (0,528);
}
);
layerId = "BD31AAF9-E65B-4A30-ACC0-7018B0C27C60";
shapes = (
{
closed = 1;
nodes = (
(95,0,l),
(95,409,ls),
(95,493,o),
(131,543,o),
(161,560,c),
(161,584,l),
(35,584,l),
(35,557,l),
(126,557,l),
(126,555,l),
(74,511,o),
(69,465,o),
(69,398,cs),
(69,0,l)
);
}
);
width = 171;
},
{
anchors = (
{
name = bottom;
pos = (106,0);
},
{
name = bottomleft;
pos = (-48,0);
},
{
name = center;
pos = (-4,300);
},
{
name = top;
pos = (137,536);
},
{
name = topleft;
pos = (-6,536);
}
);
layerId = "E193C3F6-581C-4255-BA06-39B2C55FEA85";
shapes = (
{
closed = 1;
nodes = (
(148,0,l),
(148,351,ls),
(148,454,o),
(193,511,o),
(214,525,c),
(214,592,l),
(40,592,l),
(40,511,l),
(140,511,l),
(140,509,l),
(113,492,o),
(64,438,o),
(64,340,cs),
(64,0,l)
);
}
);
width = 224;
},
{
anchors = (
{
name = bottom;
pos = (144,0);
},
{
name = bottomleft;
pos = (14,0);
},
{
name = center;
pos = (-31,306);
},
{
name = top;
pos = (160,553);
},
{
name = topleft;
pos = (0,553);
}
);
layerId = "AD6F6DAA-2D58-4E1D-98AF-ACAAF76D7B9E";
shapes = (
{
closed = 1;
nodes = (
(224,0,l),
(224,299,ls),
(224,389,o),
(231,451,o),
(290,496,c),
(290,609,l),
(30,609,l),
(30,463,l),
(130,463,l),
(130,459,l),
(80,418,o),
(54,353,o),
(54,280,cs),
(54,0,l)
);
}
);
width = 300;
}
);
unicode = 1494;
},
{
glyphname = "het-hb";
lastChange = "2021-08-01 15:25:18 +0000";
layers = (
{
anchors = (
{
name = bottom;
pos = (324,0);
},
{
name = bottomleft;
pos = (90,0);
},
{
name = center;
pos = (324,296);
},
{
name = top;
pos = (324,528);
},
{
name = topleft;
pos = (0,528);
}
);
layerId = "1F954AD7-537E-453D-9D07-161C7E95D0AA";
shapes = (
{
closed = 1;
nodes = (
(90,584,l),
(90,0,l),
(116,0,l),
(116,557,l),
(393,557,ls),
(481,557,o),
(532,518,o),
(532,416,cs),
(532,0,l),
(558,0,l),
(558,419,ls),
(558,531,o),
(499,584,o),
(398,584,cs)
);
}
);
width = 643;
},
{
anchors = (
{
name = bottom;
pos = (339,0);
},
{
name = bottomleft;
pos = (85,0);
},
{
name = center;
pos = (339,300);
},
{
name = top;
pos = (339,536);
},
{
name = topleft;
pos = (0,536);
}
);
layerId = "0C04772A-F31D-4E86-90EF-3402D1EA39CA";
shapes = (
{
closed = 1;
nodes = (
(85,592,l),
(85,0,l),
(175,0,l),
(175,509,l),
(385,509,ls),
(458,509,o),
(502,478,o),
(502,385,cs),
(502,0,l),
(592,0,l),
(592,403,ls),
(592,535,o),
(527,592,o),
(391,592,cs)
);
}
);
width = 672;
},
{
anchors = (
{
name = bottom;
pos = (369,0);
},
{
name = bottomleft;
pos = (70,0);
},
{
name = center;
pos = (369,306);
},
{
name = top;
pos = (369,553);
},
{
name = topleft;
pos = (0,553);
}
);
layerId = "3FB868F8-5CDC-4A46-BA32-95627737ABE0";
shapes = (
{
closed = 1;
nodes = (
(70,609,l),
(70,0,l),
(262,0,l),
(262,451,l),
(413,451,ls),
(456,451,o),
(482,427,o),
(482,379,cs),
(482,0,l),
(674,0,l),
(674,382,ls),
(674,533,o),
(589,609,o),
(422,609,cs)
);
}
);
width = 739;
},
{
anchors = (
{
name = bottom;
pos = (230,0);
},
{
name = bottomleft;
pos = (75,0);
},
{
name = center;
pos = (230,296);
},
{
name = top;
pos = (230,528);
},
{
name = topleft;
pos = (0,528);
}
);
layerId = "BD31AAF9-E65B-4A30-ACC0-7018B0C27C60";
shapes = (
{
closed = 1;
nodes = (
(75,584,l),
(75,0,l),
(101,0,l),
(101,557,l),
(234,557,ls),
(322,557,o),
(358,531,o),
(358,429,cs),
(358,0,l),
(384,0,l),
(384,434,ls),
(384,546,o),
(340,584,o),
(239,584,cs)
);
}
);
width = 454;
},
{
anchors = (
{
name = bottom;
pos = (236,0);
},
{
name = bottomleft;
pos = (65,0);
},
{
name = center;
pos = (236,300);
},
{
name = top;
pos = (236,536);
},
{
name = topleft;
pos = (65,536);
}
);
layerId = "E193C3F6-581C-4255-BA06-39B2C55FEA85";
shapes = (
{
closed = 1;
nodes = (
(65,592,l),
(65,0,l),
(149,0,l),
(149,511,l),
(240,511,ls),
(291,511,o),
(322,473,o),
(322,391,cs),
(322,0,l),
(406,0,l),
(406,407,ls),
(406,525,o),
(357,592,o),
(256,592,cs)
);
}
);
width = 466;
},
{
anchors = (
{
name = bottom;
pos = (281,0);
},
{
name = bottomleft;
pos = (55,0);
},
{
name = center;
pos = (281,306);
},
{
name = top;
pos = (281,553);
},
{
name = topleft;
pos = (0,553);
}
);
layerId = "AD6F6DAA-2D58-4E1D-98AF-ACAAF76D7B9E";
shapes = (
{
closed = 1;
nodes = (
(55,609,l),
(55,0,l),
(225,0,l),
(225,463,l),
(284,463,ls),
(320,463,o),
(337,440,o),
(337,395,cs),
(337,0,l),
(507,0,l),
(507,409,ls),
(507,544,o),
(438,609,o),
(328,609,cs)
);
}
);
width = 557;
}
);
unicode = 1495;
},
{
glyphname = "tet-hb";
lastChange = "2021-08-01 15:25:16 +0000";
layers = (
{
anchors = (
{
name = bottom;
pos = (336,0);
},
{
name = bottomleft;
pos = (90,0);
},
{
name = center;
pos = (336,296);
},
{
name = top;
pos = (323,528);
},
{
name = topleft;
pos = (0,528);
}
);
layerId = "1F954AD7-537E-453D-9D07-161C7E95D0AA";
shapes = (
{
closed = 1;
nodes = (
(502,-10,o),
(591,75,o),
(591,331,cs),
(591,504,o),
(550,594,o),
(426,594,cs),
(383,594,o),
(347,584,o),
(322,576,c),
(322,547,l),
(347,557,o),
(380,569,o),
(422,569,cs),
(534,569,o),
(565,477,o),
(565,328,cs),
(565,148,o),
(520,15,o),
(337,15,cs),
(174,15,o),
(106,121,o),
(106,315,cs),
(106,584,l),
(80,584,l),
(80,315,ls),
(80,90,o),
(159,-10,o),
(337,-10,cs)
);
}
);
width = 646;
},
{
anchors = (
{
name = bottom;
pos = (350,0);
},
{
name = bottomleft;
pos = (85,0);
},
{
name = center;
pos = (347,300);
},
{
name = top;
pos = (347,536);
},
{
name = topleft;
pos = (0,536);
}
);
layerId = "0C04772A-F31D-4E86-90EF-3402D1EA39CA";
shapes = (
{
closed = 1;
nodes = (
(516,-13,o),
(624,98,o),
(624,296,cs),
(624,466,o),
(609,602,o),
(444,602,cs),
(389,602,o),
(344,584,o),
(319,572,c),
(319,486,l),
(353,504,o),
(400,518,o),
(434,518,cs),
(529,518,o),
(529,399,o),
(529,296,cs),
(529,153,o),
(472,65,o),
(347,65,cs),
(221,65,o),
(165,153,o),
(165,296,cs),
(165,592,l),
(75,592,l),
(75,296,ls),
(75,72,o),
(180,-13,o),
(345,-13,cs)
);
}
);
width = 674;
},
{
anchors = (
{
name = bottom;
pos = (386,0);
},
{
name = bottomleft;
pos = (70,0);
},
{
name = center;
pos = (383,306);
},
{
name = top;
pos = (383,553);
},
{
name = topleft;
pos = (0,553);
}
);
layerId = "3FB868F8-5CDC-4A46-BA32-95627737ABE0";
shapes = (
{
closed = 1;
nodes = (
(609,-12,o),
(711,99,o),
(711,328,cs),
(711,526,o),
(635,619,o),
(464,619,cs),
(396,619,o),
(360,604,o),
(339,596,c),
(339,448,l),
(359,454,o),
(387,466,o),
(429,466,cs),
(478,466,o),
(514,449,o),
(514,319,cs),
(514,191,o),
(479,142,o),
(390,142,cs),
(296,142,o),
(252,196,o),
(252,319,cs),
(252,609,l),
(60,609,l),
(60,319,ls),
(60,99,o),
(169,-12,o),
(389,-12,cs)
);
}
);
width = 746;
},
{
anchors = (
{
name = bottom;
pos = (219,0);
},
{
name = bottomleft;
pos = (60,0);
},
{
name = center;
pos = (219,296);
},
{
name = top;
pos = (219,528);
},
{
name = topleft;
pos = (0,528);
}
);
layerId = "BD31AAF9-E65B-4A30-ACC0-7018B0C27C60";
shapes = (
{
closed = 1;
nodes = (
(338,-12,o),
(387,83,o),
(387,317,cs),
(387,515,o),
(352,596,o),
(262,596,cs),
(222,596,o),
(193,580,o),
(190,579,c),
(190,550,l),
(202,557,o),
(228,571,o),
(259,571,cs),
(334,571,o),
(361,492,o),
(361,316,cs),
(361,105,o),
(322,13,o),
(223,13,cs),
(122,13,o),
(76,110,o),
(76,289,cs),
(76,585,l),
(50,585,l),
(50,289,ls),
(50,85,o),
(109,-12,o),
(224,-12,cs)
);
}
);
width = 437;
},
{
anchors = (
{
name = bottom;
pos = (236,0);
},
{
name = bottomleft;
pos = (50,0);
},
{
name = center;
pos = (236,300);
},
{
name = top;
pos = (236,536);
},
{
name = topleft;
pos = (40,536);
}
);
layerId = "E193C3F6-581C-4255-BA06-39B2C55FEA85";
shapes = (
{
closed = 1;
nodes = (
(359,-12,o),
(431,87,o),
(431,319,cs),
(431,533,o),
(370,604,o),
(267,604,cs),
(234,604,o),
(212,597,o),
(200,592,c),
(200,521,l),
(212,529,o),
(242,533,o),
(257,533,cs),
(334,533,o),
(348,430,o),
(348,319,cs),
(348,159,o),
(319,59,o),
(237,59,cs),
(159,59,o),
(124,148,o),
(124,293,cs),
(124,592,l),
(40,592,l),
(40,296,ls),
(40,173,o),
(70,-12,o),
(237,-12,cs)
);
}
);
width = 471;
},
{
anchors = (
{
name = bottom;
pos = (275,0);
},
{
name = bottomleft;
pos = (40,0);
},
{
name = center;
pos = (271,306);
},
{
name = top;
pos = (275,553);
},
{
name = topleft;
pos = (0,553);
}
);
layerId = "AD6F6DAA-2D58-4E1D-98AF-ACAAF76D7B9E";
shapes = (
{
closed = 1;
nodes = (
(458,-12,o),
(519,135,o),
(519,338,cs),
(519,502,o),
(479,619,o),
(325,619,cs),
(300,619,o),
(279,617,o),
(256,609,c),
(256,463,l),
(262,467,o),
(275,468,o),
(284,468,cs),
(319,468,o),
(342,437,o),
(342,304,cs),
(342,204,o),
(329,137,o),
(276,137,cs),
(227,137,o),
(200,192,o),
(200,298,cs),
(200,609,l),
(30,609,l),
(30,300,ls),
(30,142,o),
(100,-12,o),
(281,-12,cs)
);
}
);
width = 549;
}
);
unicode = 1496;
},
{
glyphname = "yod-hb";
lastChange = "2021-08-01 15:25:15 +0000";
layers = (
{
anchors = (
{
name = bottom;
pos = (93,0);
},
{
name = bottomleft;
pos = (8,0);
},
{
name = center;
pos = (16,427);
},
{
name = top;
pos = (93,528);
},
{
name = topleft;
pos = (0,528);
}
);
layerId = "1F954AD7-537E-453D-9D07-161C7E95D0AA";
shapes = (
{
closed = 1;
nodes = (
(93,240,l),
(106,308,l),
(106,584,l),
(80,584,l),
(80,240,l)
);
}
);
width = 181;
},
{
anchors = (
{
name = bottom;
pos = (120,0);
},
{
name = bottomleft;
pos = (-11,0);
},
{
name = center;
pos = (9,408);
},
{
name = top;
pos = (120,536);
},
{
name = topleft;
pos = (0,536);
}
);
layerId = "0C04772A-F31D-4E86-90EF-3402D1EA39CA";
shapes = (
{
closed = 1;
nodes = (
(120,213,l),
(165,303,l),
(165,592,l),
(75,592,l),
(75,213,l)
);
}
);
width = 235;
},
{
anchors = (
{
name = bottom;
pos = (156,0);
},
{
name = bottomleft;
pos = (-40,0);
},
{
name = center;
pos = (-15,404);
},
{
name = top;
pos = (156,553);
},
{
name = topleft;
pos = (0,553);
}
);
layerId = "3FB868F8-5CDC-4A46-BA32-95627737ABE0";
shapes = (
{
closed = 1;
nodes = (
(156,213,l),
(252,346,l),
(252,609,l),
(60,609,l),
(60,213,l)
);
}
);
width = 307;
},
{
anchors = (
{
name = bottom;
pos = (78,0);
},
{
name = bottomleft;
pos = (-7,0);
},
{
name = center;
pos = (11,427);
},
{
name = top;
pos = (78,528);
},
{
name = topleft;
pos = (0,528);
}
);
layerId = "BD31AAF9-E65B-4A30-ACC0-7018B0C27C60";
shapes = (
{
closed = 1;
nodes = (
(77,240,l),
(91,308,l),
(91,584,l),
(65,584,l),
(65,240,l)
);
}
);
width = 151;
},
{
anchors = (
{
name = bottom;
pos = (100,0);
},
{
name = bottomleft;
pos = (-31,0);
},
{
name = center;
pos = (-11,408);
},
{
name = top;
pos = (100,536);
},
{
name = topleft;
pos = (55,536);
}
);
layerId = "E193C3F6-581C-4255-BA06-39B2C55FEA85";
shapes = (
{
closed = 1;
nodes = (
(100,213,l),
(145,303,l),
(145,592,l),
(55,592,l),
(55,213,l)
);
}
);
width = 195;
},
{
anchors = (
{
name = bottom;
pos = (130,0);
},
{
name = bottomleft;
pos = (-33,0);
},
{
name = center;
pos = (-26,404);
},
{
name = top;
pos = (130,553);
},
{
name = topleft;
pos = (0,553);
}
);
layerId = "AD6F6DAA-2D58-4E1D-98AF-ACAAF76D7B9E";
shapes = (
{
closed = 1;
nodes = (
(130,213,l),
(215,340,l),
(215,609,l),
(45,609,l),
(45,213,l)
);
}
);
width = 255;
}
);
unicode = 1497;
},
{
glyphname = "finalkaf-hb";
lastChange = "2021-08-01 15:41:43 +0000";
layers = (
{
anchors = (
{
name = bottom;
pos = (217,199);
},
{
name = bottomleft;
pos = (15,0);
},
{
name = center;
pos = (217,296);
},
{
name = top;
pos = (172,528);
},
{
name = topleft;
pos = (-7,528);
}
);
layerId = "1F954AD7-537E-453D-9D07-161C7E95D0AA";
shapes = (
{
closed = 1;
nodes = (
(445,-240,l),
(445,314,ls),
(445,484,o),
(349,584,o),
(175,584,cs),
(15,584,l),
(15,557,l),
(172,557,ls),
(331,557,o),
(419,468,o),
(419,314,cs),
(419,-240,l)
);
}
);
width = 520;
},
{
anchors = (
{
name = bottom;
pos = (198,240);
},
{
name = bottomleft;
pos = (25,0);
},
{
name = center;
pos = (198,300);
},
{
name = top;
pos = (245,536);
},
{
name = topleft;
pos = (-12,536);
}
);
layerId = "0C04772A-F31D-4E86-90EF-3402D1EA39CA";
shapes = (
{
closed = 1;
nodes = (
(475,-240,l),
(475,289,ls),
(475,520,o),
(339,592,o),
(162,592,cs),
(15,592,l),
(15,509,l),
(150,509,ls),
(276,509,o),
(381,473,o),
(381,289,cs),
(381,-240,l)
);
}
);
width = 545;
},
{
anchors = (
{
name = bottom;
pos = (169,241);
},
{
name = bottomleft;
pos = (15,0);
},
{
name = center;
pos = (183,306);
},
{
name = top;
pos = (279,553);
},
{
name = topleft;
pos = (-20,553);
}
);
layerId = "3FB868F8-5CDC-4A46-BA32-95627737ABE0";
shapes = (
{
closed = 1;
nodes = (
(552,-240,l),
(552,297,ls),
(552,490,o),
(423,609,o),
(218,609,cs),
(5,609,l),
(5,451,l),
(210,451,ls),
(310,451,o),
(360,398,o),
(360,297,cs),
(360,-240,l)
);
}
);
width = 607;
},
{
anchors = (
{
name = bottom;
pos = (137,199);
},
{
name = bottomleft;
pos = (15,0);
},
{
name = center;
pos = (137,296);
},
{
name = top;
pos = (137,528);
},
{
name = topleft;
pos = (-10,528);
}
);
layerId = "BD31AAF9-E65B-4A30-ACC0-7018B0C27C60";
shapes = (
{
closed = 1;
nodes = (
(285,-240,l),
(285,389,ls),
(285,533,o),
(223,584,o),
(95,584,cs),
(15,584,l),
(15,559,l),
(95,559,ls),
(206,559,o),
(259,515,o),
(259,390,cs),
(259,-240,l)
);
}
);
width = 355;
},
{
anchors = (
{
name = bottom;
pos = (130,240);
},
{
name = bottomleft;
pos = (29,0);
},
{
name = center;
pos = (130,300);
},
{
name = top;
pos = (174,536);
},
{
name = topleft;
pos = (-12,536);
}
);
layerId = "E193C3F6-581C-4255-BA06-39B2C55FEA85";
shapes = (
{
closed = 1;
nodes = (
(327,-240,l),
(327,297,ls),
(327,491,o),
(255,592,o),
(134,592,cs),
(20,592,l),
(20,511,l),
(126,511,ls),
(197,511,o),
(239,443,o),
(239,297,cs),
(239,-240,l)
);
}
);
width = 367;
},
{
anchors = (
{
name = bottom;
pos = (35,241);
},
{
name = bottomleft;
pos = (21,0);
},
{
name = center;
pos = (118,306);
},
{
name = top;
pos = (203,553);
},
{
name = topleft;
pos = (-10,553);
}
);
layerId = "AD6F6DAA-2D58-4E1D-98AF-ACAAF76D7B9E";
shapes = (
{
closed = 1;
nodes = (
(395,-240,l),
(395,305,ls),
(395,499,o),
(297,609,o),
(152,609,cs),
(10,609,l),
(10,463,l),
(149,463,ls),
(198,463,o),
(225,423,o),
(225,304,cs),
(225,-240,l)
);
}
);
width = 425;
}
);
unicode = 1498;
},
{
glyphname = "kaf-hb";
lastChange = "2021-08-01 15:41:39 +0000";
layers = (
{
anchors = (
{
name = bottom;
pos = (179,0);
},
{
name = bottomleft;
pos = (45,0);
},
{
name = center;
pos = (237,296);
},
{
name = top;
pos = (195,528);
},
{
name = topleft;
pos = (0,528);
}
);
layerId = "1F954AD7-537E-453D-9D07-161C7E95D0AA";
shapes = (
{
closed = 1;
nodes = (
(195,0,ls),
(369,0,o),
(466,110,o),
(466,292,cs),
(466,474,o),
(369,584,o),
(195,584,cs),
(35,584,l),
(35,557,l),
(187,557,ls),
(341,557,o),
(438,459,o),
(438,292,cs),
(438,125,o),
(351,27,o),
(187,27,cs),
(35,27,l),
(35,0,l)
);
}
);
width = 521;
},
{
anchors = (
{
name = bottom;
pos = (231,0);
},
{
name = bottomleft;
pos = (40,0);
},
{
name = center;
pos = (214,300);
},
{
name = top;
pos = (207,536);
},
{
name = topleft;
pos = (-12,536);
}
);
layerId = "0C04772A-F31D-4E86-90EF-3402D1EA39CA";
shapes = (
{
closed = 1;
nodes = (
(222,0,ls),
(397,0,o),
(490,130,o),
(490,299,cs),
(490,472,o),
(392,592,o),
(207,592,cs),
(30,592,l),
(30,509,l),
(197,509,ls),
(330,509,o),
(397,435,o),
(397,296,cs),
(397,171,o),
(343,83,o),
(222,83,cs),
(30,83,l),
(30,0,l)
);
}
);
width = 540;
},
{
anchors = (
{
name = bottom;
pos = (214,0);
},
{
name = bottomleft;
pos = (15,0);
},
{
name = center;
pos = (205,306);
},
{
name = top;
pos = (215,553);
},
{
name = topleft;
pos = (-20,553);
}
);
layerId = "3FB868F8-5CDC-4A46-BA32-95627737ABE0";
shapes = (
{
closed = 1;
nodes = (
(228,0,ls),
(440,0,o),
(562,110,o),
(562,297,cs),
(562,490,o),
(433,609,o),
(228,609,cs),
(15,609,l),
(15,451,l),
(218,451,ls),
(316,451,o),
(367,398,o),
(367,297,cs),
(367,201,o),
(321,158,o),
(218,158,cs),
(15,158,l),
(15,0,l)
);
}
);
width = 597;
},
{
anchors = (
{
name = bottom;
pos = (175,0);
},
{
name = bottomleft;
pos = (44,0);
},
{
name = center;
pos = (160,296);
},
{
name = top;
pos = (137,528);
},
{
name = topleft;
pos = (0,528);
}
);
layerId = "BD31AAF9-E65B-4A30-ACC0-7018B0C27C60";
shapes = (
{
closed = 1;
nodes = (
(144,0,ls),
(255,0,o),
(310,90,o),
(310,293,cs),
(310,476,o),
(265,584,o),
(142,584,cs),
(35,584,l),
(35,557,l),
(142,557,ls),
(246,557,o),
(284,461,o),
(284,293,cs),
(284,110,o),
(239,27,o),
(143,27,cs),
(35,27,l),
(35,0,l)
);
}
);
width = 365;
},
{
anchors = (
{
name = bottom;
pos = (167,0);
},
{
name = bottomleft;
pos = (30,0);
},
{
name = center;
pos = (130,300);
},
{
name = top;
pos = (139,536);
},
{
name = topleft;
pos = (-12,536);
}
);
layerId = "E193C3F6-581C-4255-BA06-39B2C55FEA85";
shapes = (
{
closed = 1;
nodes = (
(134,0,ls),
(267,0,o),
(327,119,o),
(327,297,cs),
(327,491,o),
(255,592,o),
(134,592,cs),
(20,592,l),
(20,511,l),
(126,511,ls),
(197,511,o),
(240,443,o),
(240,297,cs),
(240,149,o),
(195,81,o),
(124,81,cs),
(20,81,l),
(20,0,l)
);
}
);
width = 367;
},
{
anchors = (
{
name = bottom;
pos = (172,0);
},
{
name = bottomleft;
pos = (14,0);
},
{
name = center;
pos = (119,306);
},
{
name = top;
pos = (183,553);
},
{
name = topleft;
pos = (-10,553);
}
);
layerId = "AD6F6DAA-2D58-4E1D-98AF-ACAAF76D7B9E";
shapes = (
{
closed = 1;
nodes = (
(150,0,ls),
(329,0,o),
(400,131,o),
(400,297,cs),
(400,460,o),
(335,609,o),
(149,609,cs),
(15,609,l),
(15,463,l),
(145,463,ls),
(212,463,o),
(230,413,o),
(230,303,cs),
(230,202,o),
(215,146,o),
(147,146,cs),
(15,146,l),
(15,0,l)
);
}
);
width = 430;
}
);
unicode = 1499;
},
{
glyphname = "lamed-hb";
lastChange = "2021-08-01 15:39:30 +0000";
layers = (
{
anchors = (
{
name = bottom;
pos = (238,0);
},
{
name = bottomleft;
pos = (232,0);
},
{
name = center;
pos = (147,296);
},
{
name = top;
pos = (244,528);
},
{
name = topleft;
pos = (-20,528);
}
);
layerId = "1F954AD7-537E-453D-9D07-161C7E95D0AA";
shapes = (
{
closed = 1;
nodes = (
(46,760,l),
(20,760,l),
(20,557,l),
(415,557,l),
(225,0,l),
(251,0,l),
(441,557,l),
(441,584,l),
(46,584,l)
);
}
);
width = 481;
},
{
anchors = (
{
name = bottom;
pos = (241,0);
},
{
name = bottomleft;
pos = (225,0);
},
{
name = center;
pos = (165,300);
},
{
name = top;
pos = (290,536);
},
{
name = topleft;
pos = (-37,536);
}
);
layerId = "0C04772A-F31D-4E86-90EF-3402D1EA39CA";
shapes = (
{
closed = 1;
nodes = (
(105,760,l),
(15,760,l),
(15,509,l),
(381,509,l),
(193,0,l),
(288,0,l),
(475,524,l),
(475,592,l),
(105,592,l)
);
}
);
width = 510;
},
{
anchors = (
{
name = bottom;
pos = (278,0);
},
{
name = bottomleft;
pos = (254,0);
},
{
name = center;
pos = (150,306);
},
{
name = top;
pos = (392,553);
},
{
name = topleft;
pos = (-58,553);
}
);
layerId = "3FB868F8-5CDC-4A46-BA32-95627737ABE0";
shapes = (
{
closed = 1;
nodes = (
(207,760,l),
(15,760,l),
(15,451,l),
(365,451,l),
(177,0,l),
(378,0,l),
(577,499,l),
(577,609,l),
(207,609,l)
);
}
);
width = 597;
},
{
anchors = (
{
name = bottom;
pos = (128,0);
},
{
name = bottomleft;
pos = (106,0);
},
{
name = center;
pos = (105,296);
},
{
name = top;
pos = (156,528);
},
{
name = topleft;
pos = (-26,528);
}
);
layerId = "BD31AAF9-E65B-4A30-ACC0-7018B0C27C60";
shapes = (
{
closed = 1;
nodes = (
(36,760,l),
(10,760,l),
(10,555,l),
(254,555,l),
(115,0,l),
(141,0,l),
(280,555,l),
(280,584,l),
(36,584,l)
);
}
);
width = 310;
},
{
anchors = (
{
name = bottom;
pos = (151,0);
},
{
name = bottomleft;
pos = (132,0);
},
{
name = center;
pos = (80,300);
},
{
name = top;
pos = (213,536);
},
{
name = topleft;
pos = (-42,536);
}
);
layerId = "E193C3F6-581C-4255-BA06-39B2C55FEA85";
shapes = (
{
closed = 1;
nodes = (
(94,760,l),
(10,760,l),
(10,511,l),
(248,511,l),
(109,0,l),
(193,0,l),
(331,525,l),
(331,592,l),
(94,592,l)
);
}
);
width = 351;
},
{
anchors = (
{
name = bottom;
pos = (183,0);
},
{
name = bottomleft;
pos = (130,0);
},
{
name = center;
pos = (93,306);
},
{
name = top;
pos = (300,553);
},
{
name = topleft;
pos = (-55,553);
}
);
layerId = "AD6F6DAA-2D58-4E1D-98AF-ACAAF76D7B9E";
shapes = (
{
closed = 1;
nodes = (
(185,760,l),
(15,760,l),
(15,463,l),
(232,463,l),
(98,0,l),
(268,0,l),
(415,505,l),
(415,609,l),
(185,609,l)
);
}
);
width = 430;
}
);
unicode = 1500;
},
{
glyphname = "finalmem-hb";
lastChange = "2021-08-01 16:04:41 +0000";
layers = (
{
anchors = (
{
name = bottom;
pos = (309,0);
},
{
name = bottomleft;
pos = (75,0);
},
{
name = center;
pos = (309,292);
},
{
name = hiriq;
pos = (530,0);
},
{
name = top;
pos = (309,528);
},
{
name = topleft;
pos = (0,528);
}
);
layerId = "1F954AD7-537E-453D-9D07-161C7E95D0AA";
shapes = (
{
closed = 1;
nodes = (
(543,0,l),
(543,419,ls),
(543,531,o),
(484,584,o),
(383,584,cs),
(75,584,l),
(75,0,l)
);
},
{
closed = 1;
nodes = (
(101,557,l),
(378,557,ls),
(466,557,o),
(517,518,o),
(517,416,cs),
(517,27,l),
(101,27,l)
);
}
);
width = 628;
},
{
anchors = (
{
name = bottom;
pos = (321,0);
},
{
name = bottomleft;
pos = (70,0);
},
{
name = center;
pos = (321,296);
},
{
name = hiriq;
pos = (530,0);
},
{
name = top;
pos = (321,536);
},
{
name = topleft;
pos = (0,536);
}
);
layerId = "0C04772A-F31D-4E86-90EF-3402D1EA39CA";
shapes = (
{
closed = 1;
nodes = (
(572,0,l),
(572,403,ls),
(572,535,o),
(507,592,o),
(371,592,cs),
(70,592,l),
(70,0,l)
);
},
{
closed = 1;
nodes = (
(160,509,l),
(365,509,ls),
(438,509,o),
(482,478,o),
(482,385,cs),
(482,83,l),
(160,83,l)
);
}
);
width = 652;
},
{
anchors = (
{
name = bottom;
pos = (357,0);
},
{
name = bottomleft;
pos = (55,0);
},
{
name = center;
pos = (357,304);
},
{
name = hiriq;
pos = (600,0);
},
{
name = top;
pos = (357,553);
},
{
name = topleft;
pos = (0,553);
}
);
layerId = "3FB868F8-5CDC-4A46-BA32-95627737ABE0";
shapes = (
{
closed = 1;
nodes = (
(659,0,l),
(659,382,ls),
(659,533,o),
(574,609,o),
(407,609,cs),
(55,609,l),
(55,0,l)
);
},
{
closed = 1;
nodes = (
(247,451,l),
(398,451,ls),
(441,451,o),
(467,427,o),
(467,379,cs),
(467,158,l),
(247,158,l)
);
}
);
width = 724;
},
{
anchors = (
{
name = bottom;
pos = (215,0);
},
{
name = bottomleft;
pos = (60,0);
},
{
name = center;
pos = (215,292);
},
{
name = hiriq;
pos = (355,0);
},
{
name = top;
pos = (215,528);
},
{
name = topleft;
pos = (0,528);
}
);
layerId = "BD31AAF9-E65B-4A30-ACC0-7018B0C27C60";
shapes = (
{
closed = 1;
nodes = (
(369,0,l),
(369,434,ls),
(369,546,o),
(325,585,o),
(224,585,cs),
(60,585,l),
(60,0,l)
);
},
{
closed = 1;
nodes = (
(86,558,l),
(219,558,ls),
(307,558,o),
(343,531,o),
(343,429,cs),
(343,27,l),
(86,27,l)
);
}
);
width = 439;
},
{
anchors = (
{
name = bottom;
pos = (221,0);
},
{
name = bottomleft;
pos = (72,0);
},
{
name = center;
pos = (221,296);
},
{
name = hiriq;
pos = (354,0);
},
{
name = top;
pos = (221,536);
},
{
name = topleft;
pos = (50,536);
}
);
layerId = "E193C3F6-581C-4255-BA06-39B2C55FEA85";
shapes = (
{
closed = 1;
nodes = (
(391,0,l),
(391,407,ls),
(391,525,o),
(342,592,o),
(241,592,cs),
(50,592,l),
(50,0,l)
);
},
{
closed = 1;
nodes = (
(134,511,l),
(225,511,ls),
(276,511,o),
(307,473,o),
(307,391,cs),
(307,81,l),
(134,81,l)
);
}
);
width = 451;
},
{
anchors = (
{
name = bottom;
pos = (269,0);
},
{
name = bottomleft;
pos = (40,0);
},
{
name = center;
pos = (269,304);
},
{
name = hiriq;
pos = (443,0);
},
{
name = top;
pos = (269,553);
},
{
name = topleft;
pos = (0,553);
}
);
layerId = "AD6F6DAA-2D58-4E1D-98AF-ACAAF76D7B9E";
shapes = (
{
closed = 1;
nodes = (
(497,0,l),
(497,409,ls),
(497,544,o),
(428,609,o),
(318,609,cs),
(40,609,l),
(40,0,l)
);
},
{
closed = 1;
nodes = (
(210,463,l),
(274,463,ls),
(310,463,o),
(327,440,o),
(327,395,cs),
(327,146,l),
(210,146,l)
);
}
);
width = 547;
}
);
unicode = 1501;
},
{
glyphname = "mem-hb";
lastChange = "2021-08-01 15:25:06 +0000";
layers = (
{
anchors = (
{
name = bottom;
pos = (332,0);
},
{
name = bottomleft;
pos = (68,0);
},
{
name = center;
pos = (332,296);
},
{
name = top;
pos = (347,528);
},
{
name = topleft;
pos = (0,528);
}
);
layerId = "1F954AD7-537E-453D-9D07-161C7E95D0AA";
shapes = (
{
closed = 1;
nodes = (
(260,594,o),
(177,556,o),
(144,467,c),
(142,467,l),
(119,584,l),
(93,584,l),
(123,434,l),
(55,0,l),
(81,0,l),
(141,388,ls),
(153,468,o),
(213,569,o),
(347,569,cs),
(452,569,o),
(522,506,o),
(522,388,cs),
(522,27,l),
(311,27,l),
(311,0,l),
(548,0,l),
(548,388,ls),
(548,517,o),
(478,594,o),
(350,594,cs)
);
}
);
width = 633;
},
{
anchors = (
{
name = bottom;
pos = (325,0);
},
{
name = bottomleft;
pos = (95,0);
},
{
name = center;
pos = (325,300);
},
{
name = top;
pos = (346,536);
},
{
name = topleft;
pos = (0,536);
}
);
layerId = "0C04772A-F31D-4E86-90EF-3402D1EA39CA";
shapes = (
{
closed = 1;
nodes = (
(248,604,o),
(200,558,o),
(165,508,c),
(162,508,l),
(145,592,l),
(55,592,l),
(95,410,l),
(50,0,l),
(140,0,l),
(175,327,ls),
(188,449,o),
(239,525,o),
(344,525,cs),
(434,525,o),
(475,470,o),
(475,387,cs),
(475,83,l),
(305,83,l),
(305,0,l),
(565,0,l),
(565,401,ls),
(565,521,o),
(488,604,o),
(350,604,cs)
);
}
);
width = 645;
},
{
anchors = (
{
name = bottom;
pos = (370,0);
},
{
name = bottomleft;
pos = (131,0);
},
{
name = center;
pos = (370,306);
},
{
name = top;
pos = (377,553);
},
{
name = topleft;
pos = (0,553);
}
);
layerId = "3FB868F8-5CDC-4A46-BA32-95627737ABE0";
shapes = (
{
closed = 1;
nodes = (
(312,619,o),
(266,536,o),
(250,511,c),
(246,511,l),
(227,609,l),
(35,609,l),
(84,376,l),
(35,0,l),
(227,0,l),
(266,290,ls),
(282,410,o),
(324,458,o),
(387,458,cs),
(446,458,o),
(475,425,o),
(475,322,cs),
(475,158,l),
(345,158,l),
(345,0,l),
(667,0,l),
(667,368,ls),
(667,520,o),
(587,619,o),
(441,619,cs)
);
}
);
width = 732;
},
{
anchors = (
{
name = bottom;
pos = (240,0);
},
{
name = bottomleft;
pos = (55,0);
},
{
name = center;
pos = (238,296);
},
{
name = top;
pos = (253,528);
},
{
name = topleft;
pos = (0,528);
}
);
layerId = "BD31AAF9-E65B-4A30-ACC0-7018B0C27C60";
shapes = (
{
closed = 1;
nodes = (
(194,596,o),
(148,556,o),
(126,472,c),
(124,472,l),
(99,584,l),
(73,584,l),
(110,435,l),
(55,0,l),
(81,0,l),
(134,418,ls),
(146,510,o),
(189,569,o),
(255,569,cs),
(316,569,o),
(342,511,o),
(342,405,cs),
(342,27,l),
(211,27,l),
(211,0,l),
(368,0,l),
(368,416,ls),
(368,536,o),
(332,596,o),
(254,596,cs)
);
}
);
width = 438;
},
{
anchors = (
{
name = bottom;
pos = (240,0);
},
{
name = bottomleft;
pos = (75,0);
},
{
name = center;
pos = (240,300);
},
{
name = top;
pos = (261,536);
},
{
name = topleft;
pos = (30,536);
}
);
layerId = "E193C3F6-581C-4255-BA06-39B2C55FEA85";
shapes = (
{
closed = 1;
nodes = (
(217,604,o),
(169,570,o),
(148,506,c),
(144,506,l),
(129,592,l),
(45,592,l),
(87,425,l),
(50,0,l),
(134,0,l),
(162,326,ls),
(174,465,o),
(207,527,o),
(263,527,cs),
(316,527,o),
(333,472,o),
(333,386,cs),
(333,81,l),
(233,81,l),
(233,0,l),
(417,0,l),
(417,400,ls),
(417,515,o),
(384,604,o),
(281,604,cs)
);
}
);
width = 477;
},
{
anchors = (
{
name = bottom;
pos = (275,0);
},
{
name = bottomleft;
pos = (129,0);
},
{
name = center;
pos = (298,306);
},
{
name = top;
pos = (299,553);
},
{
name = topleft;
pos = (0,553);
}
);
layerId = "AD6F6DAA-2D58-4E1D-98AF-ACAAF76D7B9E";
shapes = (
{
closed = 1;
nodes = (
(288,621,o),
(244,578,o),
(224,535,c),
(220,535,l),
(205,609,l),
(35,609,l),
(83,382,l),
(35,0,l),
(205,0,l),
(253,382,ls),
(262,453,o),
(285,472,o),
(308,472,cs),
(342,472,o),
(349,432,o),
(349,388,cs),
(349,146,l),
(279,146,l),
(279,0,l),
(519,0,l),
(519,374,ls),
(519,519,o),
(498,621,o),
(371,621,cs)
);
}
);
width = 569;
}
);
unicode = 1502;
},
{
glyphname = "finalnun-hb";
lastChange = "2021-08-01 15:40:14 +0000";
layers = (
{
anchors = (
{
name = bottomleft;
pos = (25,0);
},
{
name = center;
pos = (77,296);
},
{
name = top;
pos = (98,528);
},
{
name = topleft;
pos = (0,528);
}
);
layerId = "1F954AD7-537E-453D-9D07-161C7E95D0AA";
shapes = (
{
closed = 1;
nodes = (
(170,-240,l),
(170,484,ls),
(170,552,o),
(137,584,o),
(80,584,cs),
(25,584,l),
(25,557,l),
(75,557,ls),
(118,557,o),
(144,536,o),
(144,481,cs),
(144,-240,l)
);
}
);
width = 255;
},
{
anchors = (
{
name = bottomleft;
pos = (20,0);
},
{
name = center;
pos = (60,300);
},
{
name = top;
pos = (117,536);
},
{
name = topleft;
pos = (-12,536);
}
);
layerId = "0C04772A-F31D-4E86-90EF-3402D1EA39CA";
shapes = (
{
closed = 1;
nodes = (
(214,-240,ls),
(214,456,ls),
(214,555,o),
(162,592,o),
(92,592,cs),
(20,592,l),
(20,509,l),
(66,509,ls),
(104,509,o),
(124,492,o),
(124,445,cs),
(124,-240,l)
);
}
);
width = 294;
},
{
anchors = (
{
name = bottomleft;
pos = (15,0);
},
{
name = center;
pos = (35,306);
},
{
name = top;
pos = (181,553);
},
{
name = topleft;
pos = (-20,553);
}
);
layerId = "3FB868F8-5CDC-4A46-BA32-95627737ABE0";
shapes = (
{
closed = 1;
nodes = (
(301,-240,l),
(301,434,ls),
(301,539,o),
(245,609,o),
(128,609,cs),
(5,609,l),
(5,451,l),
(75,451,ls),
(100,451,o),
(109,440,o),
(109,416,cs),
(109,-240,l)
);
}
);
width = 366;
},
{
anchors = (
{
name = bottomleft;
pos = (34,0);
},
{
name = center;
pos = (53,296);
},
{
name = top;
pos = (102,528);
},
{
name = topleft;
pos = (0,528);
}
);
layerId = "BD31AAF9-E65B-4A30-ACC0-7018B0C27C60";
shapes = (
{
closed = 1;
nodes = (
(129,-240,l),
(129,487,ls),
(129,553,o),
(106,584,o),
(52,584,cs),
(35,584,l),
(35,557,l),
(47,557,ls),
(90,557,o),
(103,537,o),
(103,479,cs),
(103,-240,l)
);
}
);
width = 199;
},
{
anchors = (
{
name = bottomleft;
pos = (7,0);
},
{
name = center;
pos = (26,300);
},
{
name = top;
pos = (84,536);
},
{
name = topleft;
pos = (-18,536);
}
);
layerId = "E193C3F6-581C-4255-BA06-39B2C55FEA85";
shapes = (
{
closed = 1;
nodes = (
(158,-240,l),
(158,449,ls),
(158,545,o),
(126,592,o),
(55,592,cs),
(10,592,l),
(10,511,l),
(25,511,ls),
(64,511,o),
(74,484,o),
(74,430,cs),
(74,-240,l)
);
}
);
width = 218;
},
{
anchors = (
{
name = bottomleft;
pos = (20,0);
},
{
name = center;
pos = (29,306);
},
{
name = top;
pos = (138,553);
},
{
name = topleft;
pos = (-10,553);
}
);
layerId = "AD6F6DAA-2D58-4E1D-98AF-ACAAF76D7B9E";
shapes = (
{
closed = 1;
nodes = (
(265,-240,l),
(265,417,ls),
(265,547,o),
(221,609,o),
(112,609,cs),
(10,609,l),
(10,463,l),
(55,463,ls),
(82,463,o),
(95,445,o),
(95,409,cs),
(95,-240,l)
);
}
);
width = 315;
}
);
unicode = 1503;
},
{
glyphname = "nun-hb";
lastChange = "2021-08-01 15:25:03 +0000";
layers = (
{
anchors = (
{
name = bottom;
pos = (160,0);
},
{
name = bottomleft;
pos = (19,0);
},
{
name = center;
pos = (137,296);
},
{
name = top;
pos = (149,528);
},
{
name = topleft;
pos = (0,528);
}
);
layerId = "1F954AD7-537E-453D-9D07-161C7E95D0AA";
shapes = (
{
closed = 1;
nodes = (
(265,0,l),
(265,419,ls),
(265,531,o),
(206,584,o),
(105,584,cs),
(70,584,l),
(70,557,l),
(100,557,ls),
(188,557,o),
(239,518,o),
(239,416,cs),
(239,27,l),
(35,27,l),
(35,0,l)
);
}
);
width = 350;
},
{
anchors = (
{
name = bottom;
pos = (184,0);
},
{
name = bottomleft;
pos = (7,0);
},
{
name = center;
pos = (124,300);
},
{
name = top;
pos = (184,536);
},
{
name = topleft;
pos = (0,536);
}
);
layerId = "0C04772A-F31D-4E86-90EF-3402D1EA39CA";
shapes = (
{
closed = 1;
nodes = (
(317,0,l),
(317,456,ls),
(317,555,o),
(265,592,o),
(195,592,cs),
(63,592,l),
(63,509,l),
(169,509,ls),
(207,509,o),
(227,492,o),
(227,445,cs),
(227,83,l),
(30,83,l),
(30,0,l)
);
}
);
width = 397;
},
{
anchors = (
{
name = bottom;
pos = (205,0);
},
{
name = bottomleft;
pos = (-15,0);
},
{
name = center;
pos = (109,306);
},
{
name = top;
pos = (221,553);
},
{
name = topleft;
pos = (0,553);
}
);
layerId = "3FB868F8-5CDC-4A46-BA32-95627737ABE0";
shapes = (
{
closed = 1;
nodes = (
(394,0,l),
(394,435,ls),
(394,540,o),
(338,609,o),
(221,609,cs),
(48,609,l),
(48,451,l),
(168,451,ls),
(193,451,o),
(202,440,o),
(202,416,cs),
(202,158,l),
(15,158,l),
(15,0,l)
);
}
);
width = 459;
},
{
anchors = (
{
name = bottom;
pos = (105,0);
},
{
name = bottomleft;
pos = (19,0);
},
{
name = center;
pos = (87,296);
},
{
name = top;
pos = (118,528);
},
{
name = topleft;
pos = (0,528);
}
);
layerId = "BD31AAF9-E65B-4A30-ACC0-7018B0C27C60";
shapes = (
{
closed = 1;
nodes = (
(175,0,l),
(175,487,ls),
(175,553,o),
(152,584,o),
(98,584,cs),
(61,584,l),
(61,557,l),
(93,557,ls),
(136,557,o),
(149,537,o),
(149,479,c),
(149,29,l),
(35,29,l),
(35,0,l)
);
}
);
width = 245;
},
{
anchors = (
{
name = bottom;
pos = (129,0);
},
{
name = bottomleft;
pos = (11,0);
},
{
name = center;
pos = (87,300);
},
{
name = top;
pos = (149,536);
},
{
name = topleft;
pos = (70,536);
}
);
layerId = "E193C3F6-581C-4255-BA06-39B2C55FEA85";
shapes = (
{
closed = 1;
nodes = (
(228,0,l),
(228,449,ls),
(228,545,o),
(196,592,o),
(125,592,cs),
(70,592,l),
(70,511,l),
(95,511,ls),
(134,511,o),
(144,484,o),
(144,430,cs),
(144,81,l),
(30,81,l),
(30,0,l)
);
}
);
width = 288;
},
{
anchors = (
{
name = bottom;
pos = (164,0);
},
{
name = bottomleft;
pos = (-12,0);
},
{
name = center;
pos = (79,306);
},
{
name = top;
pos = (180,553);
},
{
name = topleft;
pos = (0,553);
}
);
layerId = "AD6F6DAA-2D58-4E1D-98AF-ACAAF76D7B9E";
shapes = (
{
closed = 1;
nodes = (
(308,0,l),
(308,417,ls),
(308,547,o),
(263,609,o),
(154,609,cs),
(52,609,l),
(52,463,l),
(98,463,ls),
(125,463,o),
(138,445,o),
(138,409,cs),
(138,146,l),
(20,146,l),
(20,0,l)
);
}
);
width = 358;
}
);
unicode = 1504;
},
{
glyphname = "samekh-hb";
lastChange = "2021-08-01 15:40:15 +0000";
layers = (
{
anchors = (
{
name = bottom;
pos = (349,0);
},
{
name = bottomleft;
pos = (84,0);
},
{
name = center;
pos = (348,296);
},
{
name = top;
pos = (332,528);
},
{
name = topleft;
pos = (0,528);
}
);
layerId = "1F954AD7-537E-453D-9D07-161C7E95D0AA";
shapes = (
{
closed = 1;
nodes = (
(536,-10,o),
(612,119,o),
(612,295,cs),
(612,471,o),
(536,584,o),
(352,584,cs),
(40,584,l),
(40,557,l),
(133,557,l),
(114,506,o),
(84,418,o),
(84,300,cs),
(84,112,o),
(167,-10,o),
(349,-10,cs)
);
},
{
closed = 1;
nodes = (
(191,22,o),
(110,121,o),
(110,304,cs),
(110,420,o),
(141,500,o),
(160,557,c),
(352,557,ls),
(500,557,o),
(586,466,o),
(586,297,cs),
(586,147,o),
(519,7,o),
(339,15,cs)
);
}
);
width = 667;
},
{
anchors = (
{
name = bottom;
pos = (357,0);
},
{
name = bottomleft;
pos = (79,0);
},
{
name = center;
pos = (355,300);
},
{
name = top;
pos = (355,536);
},
{
name = topleft;
pos = (-12,536);
}
);
layerId = "0C04772A-F31D-4E86-90EF-3402D1EA39CA";
shapes = (
{
closed = 1;
nodes = (
(523,-13,o),
(631,101,o),
(631,292,cs),
(631,473,o),
(535,592,o),
(351,592,cs),
(35,592,l),
(35,509,l),
(109,509,l),
(94,450,o),
(79,374,o),
(79,299,cs),
(79,92,o),
(195,-13,o),
(356,-13,cs)
);
},
{
closed = 1;
nodes = (
(223,65,o),
(172,151,o),
(172,308,cs),
(172,404,o),
(191,476,o),
(199,509,c),
(335,509,ls),
(458,509,o),
(538,459,o),
(538,294,cs),
(538,154,o),
(481,65,o),
(351,65,cs)
);
}
);
width = 681;
},
{
anchors = (
{
name = bottom;
pos = (390,0);
},
{
name = bottomleft;
pos = (64,0);
},
{
name = center;
pos = (391,306);
},
{
name = top;
pos = (391,553);
},
{
name = topleft;
pos = (-20,553);
}
);
layerId = "3FB868F8-5CDC-4A46-BA32-95627737ABE0";
shapes = (
{
closed = 1;
nodes = (
(590,-13,o),
(718,109,o),
(718,300,cs),
(718,489,o),
(593,609,o),
(387,609,cs),
(20,609,l),
(20,451,l),
(95,451,l),
(76,403,o),
(64,353,o),
(64,298,cs),
(64,118,o),
(190,-13,o),
(394,-13,cs)
);
},
{
closed = 1;
nodes = (
(295,140,o),
(255,194,o),
(255,304,cs),
(255,372,o),
(270,426,o),
(277,451,c),
(371,451,ls),
(481,451,o),
(527,416,o),
(527,302,cs),
(527,190,o),
(482,140,o),
(390,140,cs)
);
}
);
width = 753;
},
{
anchors = (
{
name = bottom;
pos = (223,0);
},
{
name = bottomleft;
pos = (85,0);
},
{
name = center;
pos = (219,296);
},
{
name = top;
pos = (206,527);
},
{
name = topleft;
pos = (0,528);
}
);
layerId = "BD31AAF9-E65B-4A30-ACC0-7018B0C27C60";
shapes = (
{
closed = 1;
nodes = (
(332,-12,o),
(387,85,o),
(387,287,cs),
(387,470,o),
(342,584,o),
(219,584,cs),
(45,584,l),
(45,557,l),
(99,557,l),
(79,506,o),
(50,414,o),
(50,286,cs),
(50,89,o),
(109,-12,o),
(222,-12,cs)
);
},
{
closed = 1;
nodes = (
(123,13,o),
(76,110,o),
(76,289,cs),
(76,414,o),
(106,500,o),
(125,557,c),
(219,557,ls),
(323,557,o),
(361,455,o),
(361,287,cs),
(361,104,o),
(316,13,o),
(221,13,cs)
);
}
);
width = 437;
},
{
anchors = (
{
name = bottom;
pos = (248,0);
},
{
name = bottomleft;
pos = (68,0);
},
{
name = center;
pos = (248,300);
},
{
name = top;
pos = (248,536);
},
{
name = topleft;
pos = (-12,536);
}
);
layerId = "E193C3F6-581C-4255-BA06-39B2C55FEA85";
shapes = (
{
closed = 1;
nodes = (
(382,-12,o),
(443,109,o),
(443,291,cs),
(443,489,o),
(372,592,o),
(249,592,c),
(25,592,l),
(25,511,l),
(83,511,l),
(68,449,o),
(52,368,o),
(52,291,cs),
(52,108,o),
(118,-12,o),
(247,-12,cs)
);
},
{
closed = 1;
nodes = (
(175,59,o),
(135,142,o),
(135,291,cs),
(135,353,o),
(144,430,o),
(163,511,c),
(249,511,ls),
(321,511,o),
(360,440,o),
(360,291,cs),
(360,140,o),
(321,59,o),
(249,59,cs)
);
}
);
width = 483;
},
{
anchors = (
{
name = bottom;
pos = (284,0);
},
{
name = bottomleft;
pos = (59,0);
},
{
name = center;
pos = (280,306);
},
{
name = top;
pos = (284,553);
},
{
name = topleft;
pos = (-10,553);
}
);
layerId = "AD6F6DAA-2D58-4E1D-98AF-ACAAF76D7B9E";
shapes = (
{
closed = 1;
nodes = (
(465,-12,o),
(528,146,o),
(528,302,cs),
(528,496,o),
(430,609,o),
(285,609,cs),
(15,609,l),
(15,463,l),
(72,463,l),
(51,410,o),
(39,356,o),
(39,294,cs),
(39,140,o),
(112,-12,o),
(287,-12,cs)
);
},
{
closed = 1;
nodes = (
(238,137,o),
(216,191,o),
(216,291,cs),
(216,368,o),
(229,427,o),
(239,463,c),
(284,463,ls),
(333,463,o),
(351,410,o),
(351,301,cs),
(351,191,o),
(333,137,o),
(286,137,cs)
);
}
);
width = 558;
}
);
unicode = 1505;
},
{
glyphname = "ayin-hb";
lastChange = "2021-08-01 15:25:00 +0000";
layers = (
{
anchors = (
{
name = bottom;
pos = (289,0);
},
{
name = bottomleft;
pos = (25,0);
},
{
name = center;
pos = (335,316);
},
{
name = top;
pos = (317,528);
},
{
name = topleft;
pos = (0,528);
}
);
layerId = "1F954AD7-537E-453D-9D07-161C7E95D0AA";
shapes = (
{
closed = 1;
nodes = (
(210,0,ls),
(375,0,o),
(507,98,o),
(529,330,cs),
(553,584,l),
(527,584,l),
(502,326,ls),
(482,118,o),
(357,27,o),
(210,27,cs),
(25,27,l),
(25,0,l)
);
},
{
closed = 1;
nodes = (
(235,17,l),
(106,584,l),
(80,584,l),
(209,17,l)
);
}
);
width = 588;
},
{
anchors = (
{
name = bottom;
pos = (279,0);
},
{
name = bottomleft;
pos = (25,0);
},
{
name = center;
pos = (347,356);
},
{
name = top;
pos = (324,536);
},
{
name = topleft;
pos = (0,536);
}
);
layerId = "0C04772A-F31D-4E86-90EF-3402D1EA39CA";
shapes = (
{
closed = 1;
nodes = (
(206,0,ls),
(493,0,o),
(543,205,o),
(556,355,cs),
(578,592,l),
(488,592,l),
(466,355,ls),
(449,158,o),
(365,83,o),
(206,83,cs),
(25,83,l),
(25,0,l)
);
},
{
closed = 1;
nodes = (
(279,67,l),
(159,592,l),
(69,592,l),
(191,67,l)
);
}
);
width = 608;
},
{
anchors = (
{
name = bottom;
pos = (322,0);
},
{
name = bottomleft;
pos = (15,0);
},
{
name = center;
pos = (377,416);
},
{
name = top;
pos = (362,553);
},
{
name = topleft;
pos = (0,553);
}
);
layerId = "3FB868F8-5CDC-4A46-BA32-95627737ABE0";
shapes = (
{
closed = 1;
nodes = (
(247,0,ls),
(572,0,o),
(633,234,o),
(650,390,cs),
(674,609,l),
(482,609,l),
(459,397,ls),
(439,214,o),
(371,158,o),
(247,158,cs),
(15,158,l),
(15,0,l)
);
},
{
closed = 1;
nodes = (
(365,67,l),
(242,609,l),
(50,609,l),
(190,67,l)
);
}
);
width = 689;
},
{
anchors = (
{
name = bottom;
pos = (174,0);
},
{
name = bottomleft;
pos = (17,0);
},
{
name = center;
pos = (232,325);
},
{
name = top;
pos = (224,528);
},
{
name = topleft;
pos = (0,528);
}
);
layerId = "BD31AAF9-E65B-4A30-ACC0-7018B0C27C60";
shapes = (
{
closed = 1;
nodes = (
(115,0,ls),
(269,0,o),
(332,88,o),
(353,313,cs),
(378,584,l),
(352,584,l),
(327,319,ls),
(307,103,o),
(252,27,o),
(111,27,cs),
(20,27,l),
(20,0,l)
);
},
{
closed = 1;
nodes = (
(164,17,l),
(95,584,l),
(70,584,l),
(139,17,l)
);
}
);
width = 403;
},
{
anchors = (
{
name = bottom;
pos = (205,0);
},
{
name = bottomleft;
pos = (20,0);
},
{
name = center;
pos = (241,406);
},
{
name = top;
pos = (231,536);
},
{
name = topleft;
pos = (54,536);
}
);
layerId = "E193C3F6-581C-4255-BA06-39B2C55FEA85";
shapes = (
{
closed = 1;
nodes = (
(135,0,ls),
(363,0,o),
(373,219,o),
(385,354,cs),
(407,592,l),
(323,592,l),
(301,354,ls),
(282,152,o),
(264,81,o),
(108,81,cs),
(20,81,l),
(20,0,l)
);
},
{
closed = 1;
nodes = (
(218,67,l),
(138,592,l),
(54,592,l),
(136,67,l)
);
}
);
width = 427;
},
{
anchors = (
{
name = bottom;
pos = (241,0);
},
{
name = bottomleft;
pos = (2,0);
},
{
name = center;
pos = (274,444);
},
{
name = top;
pos = (272,553);
},
{
name = topleft;
pos = (0,553);
}
);
layerId = "AD6F6DAA-2D58-4E1D-98AF-ACAAF76D7B9E";
shapes = (
{
closed = 1;
nodes = (
(164,0,ls),
(396,0,o),
(465,135,o),
(483,372,cs),
(501,609,l),
(331,609,l),
(313,372,ls),
(300,199,o),
(279,146,o),
(161,146,cs),
(10,146,l),
(10,0,l)
);
},
{
closed = 1;
nodes = (
(258,67,l),
(212,609,l),
(42,609,l),
(98,67,l)
);
}
);
width = 511;
}
);
unicode = 1506;
},
{
glyphname = "finalpe-hb";
lastChange = "2021-08-01 15:41:56 +0000";
layers = (
{
anchors = (
{
name = bottomleft;
pos = (15,0);
},
{
name = center;
pos = (327,269);
},
{
name = top;
pos = (227,528);
},
{
name = topleft;
pos = (-7,528);
}
);
layerId = "1F954AD7-537E-453D-9D07-161C7E95D0AA";
shapes = (
{
closed = 1;
nodes = (
(492,-240,l),
(492,292,ls),
(492,474,o),
(395,584,o),
(221,584,cs),
(15,584,l),
(15,557,l),
(213,557,ls),
(368,557,o),
(466,461,o),
(466,294,cs),
(466,-240,l)
);
},
{
closed = 1;
nodes = (
(174,253,o),
(182,254,o),
(188,255,c),
(188,283,l),
(182,282,o),
(176,281,o),
(169,281,cs),
(78,281,o),
(41,338,o),
(41,440,cs),
(41,584,l),
(15,584,l),
(15,431,ls),
(15,313,o),
(66,253,o),
(166,253,cs)
);
}
);
width = 567;
},
{
anchors = (
{
name = bottomleft;
pos = (10,0);
},
{
name = center;
pos = (325,256);
},
{
name = top;
pos = (262,536);
},
{
name = topleft;
pos = (-24,536);
}
);
layerId = "0C04772A-F31D-4E86-90EF-3402D1EA39CA";
shapes = (
{
closed = 1;
nodes = (
(513,-240,l),
(513,299,ls),
(513,472,o),
(415,592,o),
(230,592,cs),
(10,592,l),
(10,509,l),
(220,509,ls),
(355,509,o),
(423,435,o),
(423,296,cs),
(423,-240,l)
);
},
{
closed = 1;
nodes = (
(194,213,o),
(211,214,o),
(226,216,c),
(226,299,l),
(215,298,o),
(203,297,o),
(193,297,cs),
(134,297,o),
(100,333,o),
(100,412,cs),
(100,592,l),
(10,592,l),
(10,404,ls),
(10,289,o),
(63,213,o),
(181,213,cs)
);
}
);
width = 583;
},
{
anchors = (
{
name = bottomleft;
pos = (20,0);
},
{
name = center;
pos = (353,282);
},
{
name = top;
pos = (308,553);
},
{
name = topleft;
pos = (-20,553);
}
);
layerId = "3FB868F8-5CDC-4A46-BA32-95627737ABE0";
shapes = (
{
closed = 1;
nodes = (
(620,-240,l),
(620,278,ls),
(620,481,o),
(491,609,o),
(286,609,cs),
(5,609,l),
(5,451,l),
(276,451,ls),
(380,451,o),
(428,395,o),
(428,276,cs),
(428,-240,l)
);
},
{
closed = 1;
nodes = (
(243,201,o),
(265,204,o),
(278,206,c),
(278,353,l),
(267,352,o),
(262,351,o),
(250,351,cs),
(204,351,o),
(186,369,o),
(186,429,cs),
(186,609,l),
(5,609,l),
(5,434,ls),
(5,282,o),
(82,201,o),
(217,201,cs)
);
}
);
width = 675;
},
{
anchors = (
{
name = bottomleft;
pos = (31,0);
},
{
name = center;
pos = (250,269);
},
{
name = top;
pos = (159,528);
},
{
name = topleft;
pos = (-4,528);
}
);
layerId = "BD31AAF9-E65B-4A30-ACC0-7018B0C27C60";
shapes = (
{
closed = 1;
nodes = (
(348,-240,l),
(348,292,ls),
(348,475,o),
(303,584,o),
(180,584,cs),
(37,584,l),
(37,557,l),
(180,557,ls),
(284,557,o),
(322,460,o),
(322,292,cs),
(322,-240,l)
);
},
{
closed = 1;
nodes = (
(165,252,o),
(172,253,o),
(178,254,c),
(178,281,l),
(172,280,o),
(167,279,o),
(156,279,cs),
(68,279,o),
(51,338,o),
(51,438,cs),
(51,584,l),
(25,584,l),
(25,430,ls),
(25,314,o),
(56,252,o),
(153,252,cs)
);
}
);
width = 418;
},
{
anchors = (
{
name = bottomleft;
pos = (40,0);
},
{
name = center;
pos = (257,279);
},
{
name = top;
pos = (216,536);
},
{
name = topleft;
pos = (-12,536);
}
);
layerId = "E193C3F6-581C-4255-BA06-39B2C55FEA85";
shapes = (
{
closed = 1;
nodes = (
(391,-242,l),
(391,297,ls),
(391,491,o),
(319,592,o),
(198,592,cs),
(84,592,l),
(84,511,l),
(190,511,ls),
(261,511,o),
(307,442,o),
(307,296,cs),
(307,-242,l)
);
},
{
closed = 1;
nodes = (
(187,235,o),
(195,236,o),
(207,238,c),
(207,319,l),
(201,318,o),
(196,317,o),
(188,317,cs),
(138,317,o),
(124,358,o),
(124,433,cs),
(124,592,l),
(40,592,l),
(40,425,ls),
(40,301,o),
(87,235,o),
(176,235,cs)
);
}
);
width = 431;
},
{
anchors = (
{
name = bottomleft;
pos = (35,0);
},
{
name = center;
pos = (265,288);
},
{
name = top;
pos = (257,553);
},
{
name = topleft;
pos = (-10,553);
}
);
layerId = "AD6F6DAA-2D58-4E1D-98AF-ACAAF76D7B9E";
shapes = (
{
closed = 1;
nodes = (
(483,-240,l),
(483,297,ls),
(483,460,o),
(423,609,o),
(226,609,cs),
(20,609,l),
(20,463,l),
(228,463,ls),
(295,463,o),
(313,413,o),
(313,303,cs),
(313,-240,l)
);
},
{
closed = 1;
nodes = (
(203,217,o),
(204,219,o),
(217,221,c),
(217,356,l),
(212,355,o),
(208,355,o),
(201,355,cs),
(182,355,o),
(177,363,o),
(177,439,cs),
(177,609,l),
(20,609,l),
(20,394,ls),
(20,270,o),
(56,217,o),
(179,217,cs)
);
}
);
width = 513;
}
);
unicode = 1507;
},
{
glyphname = "pe-hb";
lastChange = "2021-08-01 15:40:29 +0000";
layers = (
{
anchors = (
{
name = bottom;
pos = (253,0);
},
{
name = bottomleft;
pos = (55,0);
},
{
name = center;
pos = (366,269);
},
{
name = top;
pos = (242,528);
},
{
name = topleft;
pos = (0,528);
}
);
layerId = "1F954AD7-537E-453D-9D07-161C7E95D0AA";
shapes = (
{
closed = 1;
nodes = (
(261,0,ls),
(435,0,o),
(532,110,o),
(532,292,cs),
(532,474,o),
(435,584,o),
(261,584,cs),
(67,584,l),
(67,557,l),
(253,557,ls),
(407,557,o),
(504,459,o),
(504,292,cs),
(504,125,o),
(417,27,o),
(253,27,cs),
(55,27,l),
(55,0,l)
);
},
{
closed = 1;
nodes = (
(214,253,o),
(222,254,o),
(228,255,c),
(228,281,l),
(222,280,o),
(216,279,o),
(209,279,cs),
(118,279,o),
(81,336,o),
(81,438,cs),
(81,584,l),
(55,584,l),
(55,431,ls),
(55,313,o),
(106,253,o),
(206,253,cs)
);
}
);
width = 587;
},
{
anchors = (
{
name = bottom;
pos = (270,0);
},
{
name = bottomleft;
pos = (50,0);
},
{
name = center;
pos = (363,279);
},
{
name = top;
pos = (271,536);
},
{
name = topleft;
pos = (-6,536);
}
);
layerId = "0C04772A-F31D-4E86-90EF-3402D1EA39CA";
shapes = (
{
closed = 1;
nodes = (
(285,0,ls),
(460,0,o),
(553,130,o),
(553,299,cs),
(553,472,o),
(455,592,o),
(270,592,cs),
(87,592,l),
(87,509,l),
(260,509,ls),
(393,509,o),
(460,435,o),
(460,296,cs),
(460,171,o),
(406,83,o),
(285,83,cs),
(50,83,l),
(50,0,l)
);
},
{
closed = 1;
nodes = (
(234,233,o),
(251,234,o),
(266,236,c),
(266,319,l),
(255,318,o),
(243,317,o),
(233,317,cs),
(174,317,o),
(140,353,o),
(140,432,cs),
(140,592,l),
(50,592,l),
(50,424,ls),
(50,309,o),
(103,233,o),
(221,233,cs)
);
}
);
width = 603;
},
{
anchors = (
{
name = bottom;
pos = (309,0);
},
{
name = bottomleft;
pos = (35,0);
},
{
name = center;
pos = (382,292);
},
{
name = top;
pos = (316,553);
},
{
name = topleft;
pos = (-14,553);
}
);
layerId = "3FB868F8-5CDC-4A46-BA32-95627737ABE0";
shapes = (
{
closed = 1;
nodes = (
(331,0,ls),
(529,0,o),
(650,110,o),
(650,299,cs),
(650,493,o),
(523,609,o),
(316,609,cs),
(127,609,l),
(127,460,l),
(319,460,ls),
(408,460,o),
(455,413,o),
(455,308,cs),
(455,201,o),
(407,156,o),
(319,156,cs),
(35,156,l),
(35,0,l)
);
},
{
closed = 1;
nodes = (
(273,211,o),
(295,214,o),
(308,216,c),
(308,363,l),
(297,362,o),
(292,361,o),
(280,361,cs),
(234,361,o),
(216,379,o),
(216,439,cs),
(216,609,l),
(35,609,l),
(35,444,ls),
(35,292,o),
(112,211,o),
(247,211,cs)
);
}
);
width = 685;
},
{
anchors = (
{
name = bottom;
pos = (213,0);
},
{
name = bottomleft;
pos = (58,0);
},
{
name = center;
pos = (270,269);
},
{
name = top;
pos = (192,528);
},
{
name = topleft;
pos = (0,528);
}
);
layerId = "BD31AAF9-E65B-4A30-ACC0-7018B0C27C60";
shapes = (
{
closed = 1;
nodes = (
(202,0,ls),
(313,0,o),
(368,90,o),
(368,293,cs),
(368,476,o),
(323,584,o),
(200,584,cs),
(57,584,l),
(57,557,l),
(200,557,ls),
(304,557,o),
(342,461,o),
(342,293,cs),
(342,110,o),
(297,27,o),
(201,27,cs),
(58,27,l),
(58,0,l)
);
},
{
closed = 1;
nodes = (
(185,253,o),
(192,254,o),
(198,255,c),
(198,282,l),
(192,281,o),
(187,280,o),
(176,280,cs),
(88,280,o),
(71,339,o),
(71,439,cs),
(71,584,l),
(45,584,l),
(45,431,ls),
(45,315,o),
(76,253,o),
(173,253,cs)
);
}
);
width = 418;
},
{
anchors = (
{
name = bottom;
pos = (210,0);
},
{
name = bottomleft;
pos = (60,0);
},
{
name = center;
pos = (256,279);
},
{
name = top;
pos = (198,536);
},
{
name = topleft;
pos = (-12,536);
}
);
layerId = "E193C3F6-581C-4255-BA06-39B2C55FEA85";
shapes = (
{
closed = 1;
nodes = (
(198,0,ls),
(331,0,o),
(391,119,o),
(391,297,cs),
(391,491,o),
(319,592,o),
(198,592,cs),
(84,592,l),
(84,511,l),
(190,511,ls),
(261,511,o),
(304,443,o),
(304,297,cs),
(304,149,o),
(259,81,o),
(188,81,cs),
(60,81,l),
(60,0,l)
);
},
{
closed = 1;
nodes = (
(187,235,o),
(195,236,o),
(207,238,c),
(207,319,l),
(201,318,o),
(196,317,o),
(188,317,cs),
(138,317,o),
(124,358,o),
(124,433,cs),
(124,592,l),
(40,592,l),
(40,425,ls),
(40,301,o),
(87,235,o),
(176,235,cs)
);
}
);
width = 431;
},
{
anchors = (
{
name = bottom;
pos = (232,0);
},
{
name = bottomleft;
pos = (30,0);
},
{
name = center;
pos = (275,292);
},
{
name = top;
pos = (247,553);
},
{
name = topleft;
pos = (0,553);
}
);
layerId = "AD6F6DAA-2D58-4E1D-98AF-ACAAF76D7B9E";
shapes = (
{
closed = 1;
nodes = (
(232,0,ls),
(424,0,o),
(493,131,o),
(493,297,cs),
(493,460,o),
(433,609,o),
(236,609,cs),
(100,609,l),
(100,463,l),
(238,463,ls),
(305,463,o),
(323,413,o),
(323,303,cs),
(323,202,o),
(308,146,o),
(240,146,cs),
(30,146,l),
(30,0,l)
);
},
{
closed = 1;
nodes = (
(213,217,o),
(214,219,o),
(227,221,c),
(227,356,l),
(222,355,o),
(219,355,o),
(212,355,cs),
(193,355,o),
(187,363,o),
(187,439,cs),
(187,609,l),
(30,609,l),
(30,394,ls),
(30,270,o),
(66,217,o),
(189,217,cs)
);
}
);
width = 523;
}
);
unicode = 1508;
},
{
glyphname = "finaltsadi-hb";
lastChange = "2021-08-01 15:42:08 +0000";
layers = (
{
anchors = (
{
name = bottomleft;
pos = (5,0);
},
{
name = center;
pos = (222,424);
},
{
name = top;
pos = (215,528);
},
{
name = topleft;
pos = (-15,528);
}
);
layerId = "1F954AD7-537E-453D-9D07-161C7E95D0AA";
shapes = (
{
closed = 1;
nodes = (
(150,-240,l),
(150,213,l),
(31,584,l),
(5,584,l),
(124,212,l),
(124,-240,l)
);
},
{
closed = 1;
nodes = (
(254,222,ls),
(375,261,o),
(385,303,o),
(397,423,cs),
(413,584,l),
(387,584,l),
(369,401,ls),
(360,309,o),
(346,276,o),
(259,248,cs),
(147,212,l),
(149,188,l)
);
}
);
width = 433;
},
{
anchors = (
{
name = bottomleft;
pos = (6,0);
},
{
name = center;
pos = (260,444);
},
{
name = top;
pos = (240,536);
},
{
name = topleft;
pos = (-12,536);
}
);
layerId = "0C04772A-F31D-4E86-90EF-3402D1EA39CA";
shapes = (
{
closed = 1;
nodes = (
(226,-240,l),
(226,230,l),
(100,592,l),
(5,592,l),
(136,239,l),
(136,-240,l)
);
},
{
closed = 1;
nodes = (
(287,192,ls),
(429,234,o),
(443,307,o),
(453,420,cs),
(469,592,l),
(379,592,l),
(361,402,ls),
(354,327,o),
(329,289,o),
(274,272,cs),
(190,246,l),
(197,165,l)
);
}
);
width = 479;
},
{
anchors = (
{
name = bottomleft;
pos = (28,0);
},
{
name = center;
pos = (318,504);
},
{
name = top;
pos = (304,553);
},
{
name = topleft;
pos = (-20,553);
}
);
layerId = "3FB868F8-5CDC-4A46-BA32-95627737ABE0";
shapes = (
{
closed = 1;
nodes = (
(342,-240,l),
(342,213,l),
(204,609,l),
(3,609,l),
(150,213,l),
(150,-240,l)
);
},
{
closed = 1;
nodes = (
(367,135,ls),
(538,187,o),
(558,275,o),
(569,396,cs),
(589,609,l),
(396,609,l),
(375,385,ls),
(369,324,o),
(355,297,o),
(324,287,cs),
(202,249,l),
(216,89,l)
);
}
);
width = 594;
},
{
anchors = (
{
name = bottomleft;
pos = (10,0);
},
{
name = center;
pos = (153,450);
},
{
name = top;
pos = (152,528);
},
{
name = topleft;
pos = (-6,528);
}
);
layerId = "BD31AAF9-E65B-4A30-ACC0-7018B0C27C60";
shapes = (
{
closed = 1;
nodes = (
(125,-240,l),
(125,215,l),
(36,584,l),
(10,584,l),
(99,215,l),
(99,-240,l)
);
},
{
closed = 1;
nodes = (
(149,216,ls),
(242,237,o),
(251,307,o),
(262,419,cs),
(278,584,l),
(252,584,l),
(234,397,ls),
(226,312,o),
(206,256,o),
(154,244,cs),
(112,234,l),
(114,208,l)
);
}
);
width = 293;
},
{
anchors = (
{
name = bottomleft;
pos = (10,0);
},
{
name = center;
pos = (178,438);
},
{
name = top;
pos = (171,536);
},
{
name = topleft;
pos = (-12,536);
}
);
layerId = "E193C3F6-581C-4255-BA06-39B2C55FEA85";
shapes = (
{
closed = 1;
nodes = (
(159,-240,l),
(159,238,l),
(99,592,l),
(10,592,l),
(72,221,l),
(75,-240,l)
);
},
{
closed = 1;
nodes = (
(145,175,ls),
(285,216,o),
(298,289,o),
(309,402,cs),
(327,592,l),
(243,592,l),
(223,384,ls),
(216,308,o),
(197,272,o),
(134,253,cs),
(84,238,l),
(84,157,l)
);
}
);
width = 342;
},
{
anchors = (
{
name = bottomleft;
pos = (27,0);
},
{
name = center;
pos = (248,535);
},
{
name = top;
pos = (236,553);
},
{
name = topleft;
pos = (-10,553);
}
);
layerId = "AD6F6DAA-2D58-4E1D-98AF-ACAAF76D7B9E";
shapes = (
{
closed = 1;
nodes = (
(290,-240,l),
(290,170,l),
(171,609,l),
(5,609,l),
(120,213,l),
(120,-240,l)
);
},
{
closed = 1;
nodes = (
(140,95,ls),
(380,195,o),
(441,238,o),
(459,467,cs),
(470,610,l),
(300,610,l),
(286,434,ls),
(276,307,o),
(270,301,o),
(137,241,cs),
(126,236,l),
(128,90,l)
);
}
);
width = 475;
}
);
unicode = 1509;
},
{
glyphname = "tsadi-hb";
lastChange = "2021-08-01 15:24:52 +0000";
layers = (
{
anchors = (
{
name = bottom;
pos = (234,0);
},
{
name = bottomleft;
pos = (20,0);
},
{
name = center;
pos = (141,239);
},
{
name = top;
pos = (274,528);
},
{
name = topleft;
pos = (0,528);
}
);
layerId = "1F954AD7-537E-453D-9D07-161C7E95D0AA";
shapes = (
{
closed = 1;
nodes = (
(448,27,l),
(323,215,l),
(79,584,l),
(48,584,l),
(428,10,l)
);
},
{
closed = 1;
nodes = (
(448,0,l),
(448,27,l),
(433,27,l),
(20,27,l),
(20,0,l)
);
},
{
closed = 1;
nodes = (
(398,247,o),
(462,316,o),
(462,428,cs),
(462,584,l),
(436,584,l),
(436,431,ls),
(436,328,o),
(383,264,o),
(315,221,c),
(323,199,l)
);
}
);
width = 517;
},
{
anchors = (
{
name = bottom;
pos = (253,0);
},
{
name = bottomleft;
pos = (25,0);
},
{
name = center;
pos = (117,243);
},
{
name = top;
pos = (278,536);
},
{
name = topleft;
pos = (0,536);
}
);
layerId = "0C04772A-F31D-4E86-90EF-3402D1EA39CA";
shapes = (
{
closed = 1;
nodes = (
(481,66,l),
(359,252,l),
(137,592,l),
(31,592,l),
(430,8,l)
);
},
{
closed = 1;
nodes = (
(481,0,l),
(481,66,l),
(460,83,l),
(25,83,l),
(25,0,l)
);
},
{
closed = 1;
nodes = (
(451,244,o),
(509,327,o),
(509,472,cs),
(509,592,l),
(419,592,l),
(419,466,ls),
(419,362,o),
(387,300,o),
(322,276,c),
(352,210,l)
);
}
);
width = 559;
},
{
anchors = (
{
name = bottom;
pos = (318,0);
},
{
name = bottomleft;
pos = (36,0);
},
{
name = center;
pos = (127,288);
},
{
name = top;
pos = (334,553);
},
{
name = topleft;
pos = (0,553);
}
);
layerId = "3FB868F8-5CDC-4A46-BA32-95627737ABE0";
shapes = (
{
closed = 1;
nodes = (
(599,116,l),
(454,306,l),
(235,609,l),
(15,609,l),
(481,0,l)
);
},
{
closed = 1;
nodes = (
(599,0,l),
(599,116,l),
(549,156,l),
(36,156,l),
(36,0,l)
);
},
{
closed = 1;
nodes = (
(516,235,o),
(627,303,o),
(627,469,cs),
(627,609,l),
(435,609,l),
(435,454,ls),
(435,374,o),
(428,340,o),
(347,340,c),
(387,235,l)
);
}
);
width = 662;
},
{
anchors = (
{
name = bottom;
pos = (164,0);
},
{
name = bottomleft;
pos = (30,0);
},
{
name = center;
pos = (94,239);
},
{
name = top;
pos = (188,528);
},
{
name = topleft;
pos = (0,528);
}
);
layerId = "BD31AAF9-E65B-4A30-ACC0-7018B0C27C60";
shapes = (
{
closed = 1;
nodes = (
(298,29,l),
(215,249,l),
(89,584,l),
(63,584,l),
(279,10,l)
);
},
{
closed = 1;
nodes = (
(298,0,l),
(298,29,l),
(283,29,l),
(30,29,l),
(30,0,l)
);
},
{
closed = 1;
nodes = (
(269,273,o),
(312,316,o),
(312,408,cs),
(312,584,l),
(286,584,l),
(286,416,ls),
(286,334,o),
(265,307,o),
(205,253,c),
(212,227,l)
);
}
);
width = 367;
},
{
anchors = (
{
name = bottom;
pos = (175,0);
},
{
name = bottomleft;
pos = (41,0);
},
{
name = center;
pos = (85,243);
},
{
name = top;
pos = (196,536);
},
{
name = topleft;
pos = (44,536);
}
);
layerId = "E193C3F6-581C-4255-BA06-39B2C55FEA85";
shapes = (
{
closed = 1;
nodes = (
(320,65,l),
(243,275,l),
(126,592,l),
(42,592,l),
(261,11,l)
);
},
{
closed = 1;
nodes = (
(320,0,l),
(320,65,l),
(300,81,l),
(30,81,l),
(30,0,l)
);
},
{
closed = 1;
nodes = (
(298,242,o),
(349,330,o),
(349,466,cs),
(349,592,l),
(265,592,l),
(265,460,ls),
(265,357,o),
(234,295,o),
(168,270,c),
(197,206,l)
);
}
);
width = 379;
},
{
anchors = (
{
name = bottom;
pos = (237,0);
},
{
name = bottomleft;
pos = (36,0);
},
{
name = center;
pos = (116,288);
},
{
name = top;
pos = (266,553);
},
{
name = topleft;
pos = (0,553);
}
);
layerId = "AD6F6DAA-2D58-4E1D-98AF-ACAAF76D7B9E";
shapes = (
{
closed = 1;
nodes = (
(437,119,l),
(329,314,l),
(189,609,l),
(20,609,l),
(339,0,l)
);
},
{
closed = 1;
nodes = (
(437,0,l),
(437,119,l),
(393,144,l),
(36,144,l),
(36,0,l)
);
},
{
closed = 1;
nodes = (
(415,263,o),
(476,338,o),
(476,466,cs),
(476,609,l),
(316,609,l),
(316,479,ls),
(316,389,o),
(314,363,o),
(256,359,c),
(286,259,l)
);
}
);
width = 496;
}
);
unicode = 1510;
},
{
glyphname = "qof-hb";
lastChange = "2021-08-01 15:24:50 +0000";
layers = (
{
anchors = (
{
name = bottom;
pos = (359,0);
},
{
name = bottomleft;
pos = (45,0);
},
{
name = center;
pos = (275,296);
},
{
name = top;
pos = (311,528);
},
{
name = topleft;
pos = (0,528);
}
);
layerId = "1F954AD7-537E-453D-9D07-161C7E95D0AA";
shapes = (
{
closed = 1;
nodes = (
(372,0,l),
(562,557,l),
(562,584,l),
(85,584,l),
(85,557,l),
(536,557,l),
(346,0,l)
);
},
{
closed = 1;
nodes = (
(111,-240,l),
(111,330,l),
(85,330,l),
(85,-240,l)
);
}
);
width = 602;
},
{
anchors = (
{
name = bottom;
pos = (361,0);
},
{
name = bottomleft;
pos = (36,0);
},
{
name = center;
pos = (293,300);
},
{
name = top;
pos = (338,536);
},
{
name = topleft;
pos = (0,536);
}
);
layerId = "0C04772A-F31D-4E86-90EF-3402D1EA39CA";
shapes = (
{
closed = 1;
nodes = (
(408,0,l),
(595,524,l),
(595,592,l),
(80,592,l),
(80,509,l),
(501,509,l),
(313,0,l)
);
},
{
closed = 1;
nodes = (
(170,-241,l),
(170,362,l),
(80,362,l),
(80,-241,l)
);
}
);
width = 630;
},
{
anchors = (
{
name = bottom;
pos = (445,0);
},
{
name = bottomleft;
pos = (1,0);
},
{
name = center;
pos = (337,306);
},
{
name = top;
pos = (374,553);
},
{
name = topleft;
pos = (0,553);
}
);
layerId = "3FB868F8-5CDC-4A46-BA32-95627737ABE0";
shapes = (
{
closed = 1;
nodes = (
(483,0,l),
(682,498,l),
(682,609,l),
(65,609,l),
(65,453,l),
(484,453,l),
(291,0,l)
);
},
{
closed = 1;
nodes = (
(257,-240,l),
(257,336,l),
(65,336,l),
(65,-240,l)
);
}
);
width = 702;
},
{
anchors = (
{
name = bottom;
pos = (241,0);
},
{
name = bottomleft;
pos = (45,0);
},
{
name = center;
pos = (208,296);
},
{
name = top;
pos = (244,528);
},
{
name = topleft;
pos = (0,528);
}
);
layerId = "BD31AAF9-E65B-4A30-ACC0-7018B0C27C60";
shapes = (
{
closed = 1;
nodes = (
(252,0,l),
(402,557,l),
(402,584,l),
(85,584,l),
(85,557,l),
(376,557,l),
(226,0,l)
);
},
{
closed = 1;
nodes = (
(111,-240,l),
(111,390,l),
(85,390,l),
(85,-240,l)
);
}
);
width = 442;
},
{
anchors = (
{
name = bottom;
pos = (288,0);
},
{
name = bottomleft;
pos = (22,0);
},
{
name = center;
pos = (207,300);
},
{
name = top;
pos = (236,536);
},
{
name = topleft;
pos = (65,536);
}
);
layerId = "E193C3F6-581C-4255-BA06-39B2C55FEA85";
shapes = (
{
closed = 1;
nodes = (
(288,0,l),
(406,525,l),
(406,592,l),
(65,592,l),
(65,511,l),
(323,511,l),
(204,0,l)
);
},
{
closed = 1;
nodes = (
(149,-241,l),
(149,362,l),
(65,362,l),
(65,-241,l)
);
}
);
width = 426;
},
{
anchors = (
{
name = bottom;
pos = (395,0);
},
{
name = bottomleft;
pos = (1,0);
},
{
name = center;
pos = (274,306);
},
{
name = top;
pos = (295,553);
},
{
name = topleft;
pos = (0,553);
}
);
layerId = "AD6F6DAA-2D58-4E1D-98AF-ACAAF76D7B9E";
shapes = (
{
closed = 1;
nodes = (
(428,0,l),
(535,505,l),
(535,609,l),
(55,609,l),
(55,463,l),
(360,463,l),
(262,0,l)
);
},
{
closed = 1;
nodes = (
(225,-240,l),
(225,336,l),
(55,336,l),
(55,-240,l)
);
}
);
width = 545;
}
);
unicode = 1511;
},
{
glyphname = "resh-hb";
lastChange = "2021-08-01 15:42:12 +0000";
layers = (
{
anchors = (
{
name = bottom;
pos = (414,0);
},
{
name = bottomleft;
pos = (208,0);
},
{
name = center;
pos = (208,296);
},
{
name = top;
pos = (198,528);
},
{
name = topleft;
pos = (-7,528);
}
);
layerId = "1F954AD7-537E-453D-9D07-161C7E95D0AA";
shapes = (
{
closed = 1;
nodes = (
(427,0,l),
(427,419,ls),
(427,531,o),
(368,584,o),
(267,584,cs),
(15,584,l),
(15,557,l),
(262,557,ls),
(350,557,o),
(401,518,o),
(401,416,cs),
(401,0,l)
);
}
);
width = 512;
},
{
anchors = (
{
name = bottom;
pos = (417,0);
},
{
name = bottomleft;
pos = (194,0);
},
{
name = center;
pos = (194,300);
},
{
name = top;
pos = (234,536);
},
{
name = topleft;
pos = (-12,536);
}
);
layerId = "0C04772A-F31D-4E86-90EF-3402D1EA39CA";
shapes = (
{
closed = 1;
nodes = (
(462,0,l),
(462,403,ls),
(462,535,o),
(397,592,o),
(261,592,cs),
(15,592,l),
(15,509,l),
(255,509,ls),
(328,509,o),
(372,478,o),
(372,385,cs),
(372,0,l)
);
}
);
width = 542;
},
{
anchors = (
{
name = bottom;
pos = (468,0);
},
{
name = bottomleft;
pos = (194,0);
},
{
name = center;
pos = (194,306);
},
{
name = top;
pos = (290,553);
},
{
name = topleft;
pos = (-20,553);
}
);
layerId = "3FB868F8-5CDC-4A46-BA32-95627737ABE0";
shapes = (
{
closed = 1;
nodes = (
(564,0,l),
(564,382,ls),
(564,533,o),
(479,609,o),
(312,609,cs),
(15,609,l),
(15,451,l),
(303,451,ls),
(346,451,o),
(372,427,o),
(372,379,cs),
(372,0,l)
);
}
);
width = 629;
},
{
anchors = (
{
name = bottom;
pos = (252,0);
},
{
name = bottomleft;
pos = (86,0);
},
{
name = center;
pos = (126,296);
},
{
name = top;
pos = (124,528);
},
{
name = topleft;
pos = (-5,528);
}
);
layerId = "BD31AAF9-E65B-4A30-ACC0-7018B0C27C60";
shapes = (
{
closed = 1;
nodes = (
(263,0,l),
(263,433,ls),
(263,545,o),
(219,584,o),
(118,584,cs),
(15,584,l),
(15,557,l),
(113,557,ls),
(201,557,o),
(237,530,o),
(237,428,cs),
(237,0,l)
);
}
);
width = 333;
},
{
anchors = (
{
name = bottom;
pos = (259,0);
},
{
name = bottomleft;
pos = (85,0);
},
{
name = center;
pos = (114,300);
},
{
name = top;
pos = (136,536);
},
{
name = topleft;
pos = (-12,536);
}
);
layerId = "E193C3F6-581C-4255-BA06-39B2C55FEA85";
shapes = (
{
closed = 1;
nodes = (
(301,0,l),
(301,407,ls),
(301,525,o),
(252,592,o),
(151,592,cs),
(10,592,l),
(10,511,l),
(135,511,ls),
(186,511,o),
(217,473,o),
(217,391,cs),
(217,0,l)
);
}
);
width = 361;
},
{
anchors = (
{
name = bottom;
pos = (304,0);
},
{
name = bottomleft;
pos = (178,0);
},
{
name = center;
pos = (115,306);
},
{
name = top;
pos = (200,553);
},
{
name = topleft;
pos = (-10,553);
}
);
layerId = "AD6F6DAA-2D58-4E1D-98AF-ACAAF76D7B9E";
shapes = (
{
closed = 1;
nodes = (
(389,0,l),
(389,409,ls),
(389,544,o),
(320,609,o),
(210,609,cs),
(10,609,l),
(10,463,l),
(166,463,ls),
(202,463,o),
(219,440,o),
(219,395,cs),
(219,0,l)
);
}
);
width = 439;
}
);
unicode = 1512;
},
{
glyphname = "shin-hb";
lastChange = "2021-08-01 15:24:35 +0000";
layers = (
{
anchors = (
{
name = bottom;
pos = (333,0);
},
{
name = bottomleft;
pos = (97,0);
},
{
name = center;
pos = (401,213);
},
{
name = top;
pos = (359,528);
},
{
name = topleft;
pos = (-10,528);
},
{
name = topright;
pos = (624,528);
}
);
layerId = "1F954AD7-537E-453D-9D07-161C7E95D0AA";
shapes = (
{
closed = 1;
nodes = (
(279,0,ls),
(486,0,o),
(592,88,o),
(614,330,cs),
(637,584,l),
(611,584,l),
(588,330,ls),
(567,100,o),
(458,27,o),
(279,27,cs),
(120,27,l),
(71,584,l),
(45,584,l),
(97,0,l)
);
},
{
closed = 1;
nodes = (
(215,236,ls),
(334,276,o),
(347,326,o),
(358,440,cs),
(372,584,l),
(346,584,l),
(330,418,ls),
(322,333,o),
(298,292,o),
(220,265,cs),
(98,223,l),
(100,197,l)
);
}
);
width = 672;
},
{
anchors = (
{
name = bottom;
pos = (338,0);
},
{
name = bottomleft;
pos = (92,0);
},
{
name = center;
pos = (412,217);
},
{
name = top;
pos = (372,536);
},
{
name = topleft;
pos = (-16,536);
},
{
name = topright;
pos = (628,536);
}
);
layerId = "0C04772A-F31D-4E86-90EF-3402D1EA39CA";
shapes = (
{
closed = 1;
nodes = (
(301,0,ls),
(578,0,o),
(639,227,o),
(651,355,cs),
(673,592,l),
(583,592,l),
(561,355,ls),
(543,163,o),
(435,83,o),
(301,83,cs),
(175,83,l),
(130,592,l),
(40,592,l),
(92,0,l)
);
},
{
closed = 1;
nodes = (
(239,229,ls),
(381,272,o),
(395,344,o),
(405,457,cs),
(417,592,l),
(327,592,l),
(313,439,ls),
(306,364,o),
(281,326,o),
(226,309,cs),
(142,283,l),
(149,202,l)
);
}
);
width = 703;
},
{
anchors = (
{
name = bottom;
pos = (365,0);
},
{
name = bottomleft;
pos = (84,0);
},
{
name = center;
pos = (451,246);
},
{
name = top;
pos = (416,553);
},
{
name = topleft;
pos = (-6,553);
},
{
name = topright;
pos = (692,553);
}
);
layerId = "3FB868F8-5CDC-4A46-BA32-95627737ABE0";
shapes = (
{
closed = 1;
nodes = (
(341,0,ls),
(591,0,o),
(738,143,o),
(764,385,cs),
(788,609,l),
(598,609,l),
(573,393,ls),
(553,222,o),
(514,154,o),
(343,154,cs),
(257,154,l),
(215,609,l),
(25,609,l),
(84,0,l)
);
},
{
closed = 1;
nodes = (
(294,235,ls),
(445,282,o),
(481,344,o),
(496,481,cs),
(510,609,l),
(325,609,l),
(304,445,ls),
(295,378,o),
(286,369,o),
(254,359,cs),
(146,324,l),
(146,189,l)
);
}
);
width = 803;
},
{
anchors = (
{
name = bottom;
pos = (215,0);
},
{
name = bottomleft;
pos = (87,0);
},
{
name = center;
pos = (283,213);
},
{
name = top;
pos = (257,528);
},
{
name = topleft;
pos = (-5,528);
},
{
name = topright;
pos = (443,528);
}
);
layerId = "BD31AAF9-E65B-4A30-ACC0-7018B0C27C60";
shapes = (
{
closed = 1;
nodes = (
(162,0,ls),
(369,0,o),
(415,88,o),
(437,330,cs),
(460,584,l),
(434,584,l),
(411,330,ls),
(390,100,o),
(341,27,o),
(162,27,cs),
(110,27,l),
(61,584,l),
(35,584,l),
(87,0,l)
);
},
{
closed = 1;
nodes = (
(163,252,ls),
(232,282,o),
(252,312,o),
(261,412,cs),
(276,584,l),
(250,584,l),
(234,405,ls),
(226,317,o),
(203,295,o),
(156,275,cs),
(72,239,l),
(72,213,l)
);
}
);
width = 495;
},
{
anchors = (
{
name = bottom;
pos = (220,0);
},
{
name = bottomleft;
pos = (72,0);
},
{
name = center;
pos = (255,193);
},
{
name = top;
pos = (255,536);
},
{
name = topleft;
pos = (-16,536);
},
{
name = topright;
pos = (431,536);
}
);
layerId = "E193C3F6-581C-4255-BA06-39B2C55FEA85";
shapes = (
{
closed = 1;
nodes = (
(201,0,ls),
(429,0,o),
(439,219,o),
(451,354,cs),
(473,592,l),
(389,592,l),
(367,354,ls),
(348,152,o),
(330,81,o),
(174,81,cs),
(149,81,l),
(104,592,l),
(20,592,l),
(72,0,l)
);
},
{
closed = 1;
nodes = (
(184,252,ls),
(264,287,o),
(273,341,o),
(283,444,cs),
(297,592,l),
(213,592,l),
(200,453,ls),
(191,359,o),
(187,347,o),
(140,325,cs),
(70,293,l),
(78,206,l)
);
}
);
width = 488;
},
{
anchors = (
{
name = bottom;
pos = (293,0);
},
{
name = bottomleft;
pos = (57,0);
},
{
name = center;
pos = (327,215);
},
{
name = top;
pos = (318,553);
},
{
name = topleft;
pos = (-20,553);
},
{
name = topright;
pos = (523,553);
}
);
layerId = "AD6F6DAA-2D58-4E1D-98AF-ACAAF76D7B9E";
shapes = (
{
closed = 1;
nodes = (
(271,0,ls),
(494,0,o),
(571,155,o),
(589,386,cs),
(606,609,l),
(441,609,l),
(425,392,ls),
(410,182,o),
(363,140,o),
(248,140,cs),
(211,140,l),
(175,609,l),
(10,609,l),
(64,0,l)
);
},
{
closed = 1;
nodes = (
(235,229,ls),
(319,262,o),
(374,329,o),
(386,484,cs),
(396,609,l),
(240,609,l),
(228,452,ls),
(223,392,o),
(217,359,o),
(177,337,cs),
(127,309,l),
(127,187,l)
);
}
);
width = 611;
}
);
unicode = 1513;
},
{
glyphname = "tav-hb";
lastChange = "2021-08-01 15:24:25 +0000";
layers = (
{
anchors = (
{
name = bottom;
pos = (359,0);
},
{
name = bottomleft;
pos = (40,0);
},
{
name = center;
pos = (359,296);
},
{
name = top;
pos = (322,528);
},
{
name = topleft;
pos = (0,528);
}
);
layerId = "1F954AD7-537E-453D-9D07-161C7E95D0AA";
shapes = (
{
closed = 1;
nodes = (
(567,0,l),
(567,419,ls),
(567,531,o),
(508,584,o),
(407,584,cs),
(44,584,l),
(44,557,l),
(402,557,ls),
(490,557,o),
(541,518,o),
(541,416,cs),
(541,0,l)
);
},
{
closed = 1;
nodes = (
(69,0,ls),
(131,0,o),
(177,37,o),
(177,120,cs),
(177,572,l),
(151,572,l),
(151,134,ls),
(151,58,o),
(125,27,o),
(69,27,cs),
(40,27,l),
(40,0,l)
);
}
);
width = 652;
},
{
anchors = (
{
name = bottom;
pos = (362,0);
},
{
name = bottomleft;
pos = (35,0);
},
{
name = center;
pos = (362,300);
},
{
name = top;
pos = (326,536);
},
{
name = topleft;
pos = (0,536);
}
);
layerId = "0C04772A-F31D-4E86-90EF-3402D1EA39CA";
shapes = (
{
closed = 1;
nodes = (
(587,0,l),
(587,403,ls),
(587,535,o),
(522,592,o),
(386,592,cs),
(39,592,l),
(39,509,l),
(380,509,ls),
(453,509,o),
(497,478,o),
(497,385,cs),
(497,0,l)
);
},
{
closed = 1;
nodes = (
(76,0,ls),
(183,0,o),
(226,60,o),
(226,180,cs),
(226,548,l),
(136,548,l),
(136,175,ls),
(136,113,o),
(117,83,o),
(81,83,cs),
(35,83,l),
(35,0,l)
);
}
);
width = 667;
},
{
anchors = (
{
name = bottom;
pos = (394,0);
},
{
name = bottomleft;
pos = (20,0);
},
{
name = center;
pos = (394,306);
},
{
name = top;
pos = (394,553);
},
{
name = topleft;
pos = (0,553);
}
);
layerId = "3FB868F8-5CDC-4A46-BA32-95627737ABE0";
shapes = (
{
closed = 1;
nodes = (
(670,0,l),
(670,382,ls),
(670,533,o),
(585,609,o),
(418,609,cs),
(20,609,l),
(20,451,l),
(409,451,ls),
(452,451,o),
(478,427,o),
(478,379,cs),
(478,0,l)
);
},
{
closed = 1;
nodes = (
(128,0,ls),
(249,0,o),
(309,66,o),
(309,198,cs),
(309,574,l),
(117,574,l),
(117,188,ls),
(117,165,o),
(106,158,o),
(87,158,cs),
(20,158,l),
(20,0,l)
);
}
);
width = 735;
},
{
anchors = (
{
name = bottom;
pos = (229,0);
},
{
name = bottomleft;
pos = (26,0);
},
{
name = center;
pos = (229,296);
},
{
name = top;
pos = (229,528);
},
{
name = topleft;
pos = (0,528);
}
);
layerId = "BD31AAF9-E65B-4A30-ACC0-7018B0C27C60";
shapes = (
{
closed = 1;
nodes = (
(356,0,l),
(356,433,ls),
(356,545,o),
(312,584,o),
(211,584,cs),
(30,584,l),
(30,557,l),
(206,557,ls),
(294,557,o),
(330,530,o),
(330,428,cs),
(330,0,l)
);
},
{
closed = 1;
nodes = (
(50,0,ls),
(104,0,o),
(127,31,o),
(127,97,cs),
(127,569,l),
(101,569,l),
(101,105,ls),
(101,47,o),
(88,27,o),
(45,27,cs),
(30,27,l),
(30,0,l)
);
}
);
width = 426;
},
{
anchors = (
{
name = bottom;
pos = (278,0);
},
{
name = bottomleft;
pos = (36,0);
},
{
name = center;
pos = (278,300);
},
{
name = top;
pos = (278,536);
},
{
name = topleft;
pos = (0,536);
}
);
layerId = "E193C3F6-581C-4255-BA06-39B2C55FEA85";
shapes = (
{
closed = 1;
nodes = (
(446,0,l),
(446,407,ls),
(446,525,o),
(397,592,o),
(296,592,cs),
(40,592,l),
(40,511,l),
(280,511,ls),
(331,511,o),
(362,473,o),
(362,391,cs),
(362,0,l)
);
},
{
closed = 1;
nodes = (
(91,0,ls),
(162,0,o),
(194,47,o),
(194,143,cs),
(194,558,l),
(110,558,l),
(110,162,ls),
(110,108,o),
(100,81,o),
(61,81,cs),
(40,81,l),
(40,0,l)
);
}
);
width = 506;
},
{
anchors = (
{
name = bottom;
pos = (302,0);
},
{
name = bottomleft;
pos = (30,0);
},
{
name = center;
pos = (302,306);
},
{
name = top;
pos = (302,553);
},
{
name = topleft;
pos = (0,553);
}
);
layerId = "AD6F6DAA-2D58-4E1D-98AF-ACAAF76D7B9E";
shapes = (
{
closed = 1;
nodes = (
(517,0,l),
(517,409,ls),
(517,544,o),
(448,609,o),
(338,609,cs),
(30,609,l),
(30,463,l),
(294,463,ls),
(330,463,o),
(347,440,o),
(347,395,cs),
(347,0,l)
);
},
{
closed = 1;
nodes = (
(103,0,ls),
(212,0,o),
(257,62,o),
(257,192,cs),
(257,609,l),
(87,609,l),
(87,200,ls),
(87,164,o),
(74,146,o),
(47,146,cs),
(30,146,l),
(30,0,l)
);
}
);
width = 547;
}
);
unicode = 1514;
},
{
color = 10;
glyphname = "ayinaltone-hb";
lastChange = "2024-04-22 08:29:10 +0000";
layers = (
{
anchors = (
{
name = bottom;
pos = (286,0);
},
{
name = bottomleft;
pos = (20,0);
},
{
name = top;
pos = (301,528);
},
{
name = topleft;
pos = (0,528);
}
);
layerId = "1F954AD7-537E-453D-9D07-161C7E95D0AA";
shapes = (
{
closed = 1;
nodes = (
(189,-2,ls),
(349,36,o),
(482,96,o),
(508,328,cs),
(537,584,l),
(511,584,l),
(481,324,ls),
(457,114,o),
(327,58,o),
(189,25,cs),
(20,-15,l),
(20,-42,l)
);
},
{
closed = 1;
nodes = (
(219,17,l),
(90,584,l),
(64,584,l),
(193,17,l)
);
}
);
width = 572;
},
{
anchors = (
{
name = bottom;
pos = (304,0);
},
{
name = bottomleft;
pos = (14,0);
},
{
name = top;
pos = (299,536);
},
{
name = topleft;
pos = (58,536);
}
);
layerId = "0C04772A-F31D-4E86-90EF-3402D1EA39CA";
shapes = (
{
closed = 1;
nodes = (
(327,60,ls),
(478,114,o),
(501,195,o),
(516,355,cs),
(538,592,l),
(448,592,l),
(426,355,ls),
(412,199,o),
(400,173,o),
(250,123,cs),
(15,44,l),
(15,-51,l)
);
},
{
closed = 1;
nodes = (
(269,67,l),
(149,592,l),
(59,592,l),
(181,67,l)
);
}
);
width = 568;
},
{
anchors = (
{
name = bottom;
pos = (299,0);
},
{
name = bottomleft;
pos = (10,0);
},
{
name = top;
pos = (337,553);
},
{
name = topleft;
pos = (37,553);
}
);
layerId = "3FB868F8-5CDC-4A46-BA32-95627737ABE0";
shapes = (
{
closed = 1;
nodes = (
(388,63,ls),
(545,129,o),
(587,194,o),
(609,389,cs),
(634,609,l),
(442,609,l),
(418,396,ls),
(402,254,o),
(379,236,o),
(271,190,cs),
(5,78,l),
(5,-98,l)
);
},
{
closed = 1;
nodes = (
(360,67,l),
(232,609,l),
(40,609,l),
(180,67,l)
);
}
);
width = 649;
},
{
anchors = (
{
name = bottom;
pos = (231,0);
},
{
name = bottomleft;
pos = (22,0);
},
{
name = top;
pos = (219,528);
},
{
name = topleft;
pos = (65,528);
}
);
layerId = "BD31AAF9-E65B-4A30-ACC0-7018B0C27C60";
shapes = (
{
closed = 1;
nodes = (
(110,0,ls),
(258,51,o),
(328,78,o),
(348,303,cs),
(373,584,l),
(347,584,l),
(322,309,ls),
(302,94,o),
(241,76,o),
(106,27,cs),
(15,-6,l),
(15,-33,l)
);
},
{
closed = 1;
nodes = (
(179,27,l),
(90,584,l),
(65,584,l),
(154,27,l)
);
}
);
width = 393;
},
{
anchors = (
{
name = bottom;
pos = (218,0);
},
{
name = bottomleft;
pos = (19,0);
},
{
name = top;
pos = (226,536);
},
{
name = topleft;
pos = (49,536);
}
);
layerId = "E193C3F6-581C-4255-BA06-39B2C55FEA85";
shapes = (
{
closed = 1;
nodes = (
(130,-4,ls),
(354,71,o),
(368,217,o),
(380,350,cs),
(402,592,l),
(318,592,l),
(296,350,ls),
(279,166,o),
(256,129,o),
(113,75,cs),
(20,40,l),
(20,-41,l)
);
},
{
closed = 1;
nodes = (
(223,63,l),
(133,592,l),
(49,592,l),
(141,63,l)
);
}
);
width = 422;
},
{
anchors = (
{
name = bottom;
pos = (287,0);
},
{
name = bottomleft;
pos = (-2,0);
},
{
name = top;
pos = (272,553);
},
{
name = topleft;
pos = (41,553);
}
);
layerId = "AD6F6DAA-2D58-4E1D-98AF-ACAAF76D7B9E";
shapes = (
{
closed = 1;
nodes = (
(164,-5,ls),
(403,94,o),
(466,138,o),
(483,367,cs),
(501,609,l),
(331,609,l),
(313,367,ls),
(301,212,o),
(279,191,o),
(161,141,cs),
(10,77,l),
(10,-69,l)
);
},
{
closed = 1;
nodes = (
(278,52,l),
(202,609,l),
(32,609,l),
(113,52,l)
);
}
);
width = 511;
}
);
note = alternativeayin;
unicode = 64288;
},
{
glyphname = "widealef-hb";
lastChange = "2016-07-07 18:36:03 +0000";
layers = (
{
layerId = "1F954AD7-537E-453D-9D07-161C7E95D0AA";
shapes = (
{
closed = 1;
nodes = (
(614,0,l),
(449,183,l),
(88,584,l),
(49,584,l),
(180,439,l),
(576,0,l)
);
},
{
closed = 1;
nodes = (
(71,0,l),
(71,209,ls),
(71,312,o),
(124,381,o),
(192,424,c),
(184,446,l),
(109,398,o),
(45,329,o),
(45,217,cs),
(45,0,l)
);
},
{
closed = 1;
nodes = (
(522,211,o),
(605,291,o),
(605,398,cs),
(605,584,l),
(579,584,l),
(579,406,ls),
(579,307,o),
(507,228,o),
(439,187,c),
(447,165,l)
);
}
);
width = 659;
},
{
layerId = "0C04772A-F31D-4E86-90EF-3402D1EA39CA";
shapes = (
{
closed = 1;
nodes = (
(685,0,l),
(497,207,l),
(157,592,l),
(40,592,l),
(204,412,l),
(570,0,l)
);
},
{
closed = 1;
nodes = (
(136,0,l),
(136,184,ls),
(136,290,o),
(169,352,o),
(236,376,c),
(209,443,l),
(107,410,o),
(46,327,o),
(46,178,cs),
(46,0,l)
);
},
{
closed = 1;
nodes = (
(604,198,o),
(662,281,o),
(662,426,cs),
(662,592,l),
(572,592,l),
(572,420,ls),
(572,316,o),
(540,254,o),
(475,230,c),
(505,164,l)
);
}
);
width = 725;
},
{
layerId = "3FB868F8-5CDC-4A46-BA32-95627737ABE0";
shapes = (
{
closed = 1;
nodes = (
(865,0,l),
(617,233,l),
(266,609,l),
(25,609,l),
(249,386,l),
(625,0,l)
);
},
{
closed = 1;
nodes = (
(270,0,l),
(270,211,ls),
(270,278,o),
(285,325,o),
(358,325,c),
(318,430,l),
(189,430,o),
(78,362,o),
(78,196,cs),
(78,0,l)
);
},
{
closed = 1;
nodes = (
(683,179,o),
(794,247,o),
(794,413,cs),
(794,609,l),
(602,609,l),
(602,398,ls),
(602,331,o),
(587,284,o),
(514,284,c),
(554,179,l)
);
}
);
width = 890;
},
{
layerId = "BD31AAF9-E65B-4A30-ACC0-7018B0C27C60";
shapes = (
{
closed = 1;
nodes = (
(481,0,l),
(335,215,l),
(84,584,l),
(55,584,l),
(178,403,l),
(452,0,l)
);
},
{
closed = 1;
nodes = (
(71,0,l),
(71,179,ls),
(71,282,o),
(124,351,o),
(192,394,c),
(184,416,l),
(109,368,o),
(45,299,o),
(45,187,cs),
(45,0,l)
);
},
{
closed = 1;
nodes = (
(411,247,o),
(475,316,o),
(475,428,cs),
(475,584,l),
(449,584,l),
(449,436,ls),
(449,333,o),
(395,263,o),
(327,221,c),
(336,199,l)
);
}
);
width = 522;
},
{
layerId = "E193C3F6-581C-4255-BA06-39B2C55FEA85";
shapes = (
{
closed = 1;
nodes = (
(528,0,l),
(371,233,l),
(130,592,l),
(30,592,l),
(171,383,l),
(428,0,l)
);
},
{
closed = 1;
nodes = (
(119,0,l),
(119,164,ls),
(119,269,o),
(151,331,o),
(219,356,c),
(193,421,l),
(88,386,o),
(35,297,o),
(35,158,cs),
(35,0,l)
);
},
{
closed = 1;
nodes = (
(464,222,o),
(515,310,o),
(515,446,cs),
(515,592,l),
(431,592,l),
(431,440,ls),
(431,337,o),
(400,275,o),
(334,250,c),
(363,186,l)
);
}
);
width = 558;
},
{
layerId = "AD6F6DAA-2D58-4E1D-98AF-ACAAF76D7B9E";
shapes = (
{
closed = 1;
nodes = (
(631,0,l),
(438,270,l),
(213,609,l),
(20,609,l),
(213,352,l),
(439,0,l)
);
},
{
closed = 1;
nodes = (
(207,0,l),
(207,172,ls),
(207,250,o),
(228,283,o),
(286,287,c),
(250,398,l),
(121,394,o),
(40,313,o),
(40,185,cs),
(40,0,l)
);
},
{
closed = 1;
nodes = (
(526,225,o),
(607,306,o),
(607,434,cs),
(607,609,l),
(440,609,l),
(440,447,ls),
(440,369,o),
(419,336,o),
(361,332,c),
(397,221,l)
);
}
);
width = 651;
}
);
note = alefwide;
unicode = 64289;
},
{
glyphname = "widedalet-hb";
lastChange = "2016-07-07 18:36:03 +0000";
layers = (
{
layerId = "1F954AD7-537E-453D-9D07-161C7E95D0AA";
shapes = (
{
closed = 1;
nodes = (
(502,0,l),
(502,572,l),
(476,572,l),
(476,0,l)
);
},
{
closed = 1;
nodes = (
(597,557,l),
(597,584,l),
(10,584,l),
(10,557,l)
);
}
);
width = 632;
},
{
layerId = "0C04772A-F31D-4E86-90EF-3402D1EA39CA";
shapes = (
{
closed = 1;
nodes = (
(533,0,l),
(533,525,l),
(443,525,l),
(443,0,l)
);
},
{
closed = 1;
nodes = (
(624,509,l),
(624,592,l),
(6,592,l),
(6,509,l)
);
}
);
width = 654;
},
{
layerId = "3FB868F8-5CDC-4A46-BA32-95627737ABE0";
shapes = (
{
closed = 1;
nodes = (
(639,0,l),
(639,570,l),
(447,570,l),
(447,0,l)
);
},
{
closed = 1;
nodes = (
(730,451,l),
(730,609,l),
(10,609,l),
(10,451,l)
);
}
);
width = 745;
},
{
layerId = "BD31AAF9-E65B-4A30-ACC0-7018B0C27C60";
shapes = (
{
closed = 1;
nodes = (
(372,0,l),
(372,574,l),
(346,574,l),
(346,0,l)
);
},
{
closed = 1;
nodes = (
(467,557,l),
(467,584,l),
(10,584,l),
(10,557,l)
);
}
);
width = 502;
},
{
layerId = "E193C3F6-581C-4255-BA06-39B2C55FEA85";
shapes = (
{
closed = 1;
nodes = (
(401,0,l),
(401,544,l),
(317,544,l),
(317,0,l)
);
},
{
closed = 1;
nodes = (
(492,511,l),
(492,592,l),
(10,592,l),
(10,511,l)
);
}
);
width = 502;
},
{
layerId = "AD6F6DAA-2D58-4E1D-98AF-ACAAF76D7B9E";
shapes = (
{
closed = 1;
nodes = (
(487,0,l),
(487,570,l),
(317,570,l),
(317,0,l)
);
},
{
closed = 1;
nodes = (
(578,463,l),
(578,609,l),
(10,609,l),
(10,463,l)
);
}
);
width = 588;
}
);
note = daletwide;
unicode = 64290;
},
{
glyphname = "widehe-hb";
lastChange = "2016-07-07 18:36:03 +0000";
layers = (
{
layerId = "1F954AD7-537E-453D-9D07-161C7E95D0AA";
shapes = (
{
closed = 1;
nodes = (
(681,0,l),
(681,419,ls),
(681,531,o),
(622,584,o),
(521,584,cs),
(90,584,l),
(90,557,l),
(516,557,ls),
(604,557,o),
(655,518,o),
(655,416,cs),
(655,0,l)
);
},
{
closed = 1;
nodes = (
(90,0,l),
(116,0,l),
(116,360,l),
(90,360,l)
);
}
);
width = 766;
},
{
layerId = "0C04772A-F31D-4E86-90EF-3402D1EA39CA";
shapes = (
{
closed = 1;
nodes = (
(702,0,l),
(702,403,ls),
(702,535,o),
(637,592,o),
(501,592,cs),
(85,592,l),
(85,509,l),
(495,509,ls),
(568,509,o),
(612,478,o),
(612,385,cs),
(612,0,l)
);
},
{
closed = 1;
nodes = (
(85,0,l),
(175,0,l),
(175,354,l),
(85,354,l)
);
}
);
width = 782;
},
{
layerId = "3FB868F8-5CDC-4A46-BA32-95627737ABE0";
shapes = (
{
closed = 1;
nodes = (
(789,0,l),
(789,382,ls),
(789,533,o),
(704,609,o),
(537,609,cs),
(70,609,l),
(70,451,l),
(528,451,ls),
(571,451,o),
(597,427,o),
(597,379,cs),
(597,0,l)
);
},
{
closed = 1;
nodes = (
(70,0,l),
(262,0,l),
(262,336,l),
(70,336,l)
);
}
);
width = 854;
},
{
layerId = "BD31AAF9-E65B-4A30-ACC0-7018B0C27C60";
shapes = (
{
closed = 1;
nodes = (
(536,0,l),
(536,419,ls),
(536,531,o),
(477,584,o),
(376,584,cs),
(75,584,l),
(75,557,l),
(371,557,ls),
(459,557,o),
(510,518,o),
(510,416,cs),
(510,0,l)
);
},
{
closed = 1;
nodes = (
(75,0,l),
(101,0,l),
(101,360,l),
(75,360,l)
);
}
);
width = 606;
},
{
layerId = "E193C3F6-581C-4255-BA06-39B2C55FEA85";
shapes = (
{
closed = 1;
nodes = (
(546,0,l),
(546,404,ls),
(546,534,o),
(484,592,o),
(348,592,cs),
(65,592,l),
(65,511,l),
(342,511,ls),
(424,511,o),
(462,472,o),
(462,386,cs),
(462,0,l)
);
},
{
closed = 1;
nodes = (
(65,0,l),
(149,0,l),
(149,354,l),
(65,354,l)
);
}
);
width = 606;
},
{
layerId = "AD6F6DAA-2D58-4E1D-98AF-ACAAF76D7B9E";
shapes = (
{
closed = 1;
nodes = (
(622,0,l),
(622,388,ls),
(622,536,o),
(543,609,o),
(381,609,cs),
(55,609,l),
(55,463,l),
(372,463,ls),
(423,463,o),
(452,435,o),
(452,385,cs),
(452,0,l)
);
},
{
closed = 1;
nodes = (
(55,0,l),
(225,0,l),
(225,336,l),
(55,336,l)
);
}
);
width = 672;
}
);
note = hewide;
unicode = 64291;
},
{
glyphname = "widekaf-hb";
lastChange = "2016-07-07 18:36:03 +0000";
layers = (
{
layerId = "1F954AD7-537E-453D-9D07-161C7E95D0AA";
shapes = (
{
closed = 1;
nodes = (
(325,0,ls),
(499,0,o),
(596,110,o),
(596,292,cs),
(596,474,o),
(499,584,o),
(325,584,cs),
(35,584,l),
(35,557,l),
(317,557,ls),
(471,557,o),
(568,459,o),
(568,292,cs),
(568,125,o),
(481,27,o),
(317,27,cs),
(35,27,l),
(35,0,l)
);
}
);
width = 650;
},
{
layerId = "0C04772A-F31D-4E86-90EF-3402D1EA39CA";
shapes = (
{
closed = 1;
nodes = (
(352,0,ls),
(527,0,o),
(620,130,o),
(620,299,cs),
(620,472,o),
(522,592,o),
(337,592,cs),
(30,592,l),
(30,509,l),
(327,509,ls),
(460,509,o),
(527,435,o),
(527,296,cs),
(527,171,o),
(473,83,o),
(352,83,cs),
(30,83,l),
(30,0,l)
);
}
);
width = 670;
},
{
layerId = "3FB868F8-5CDC-4A46-BA32-95627737ABE0";
shapes = (
{
closed = 1;
nodes = (
(358,0,ls),
(570,0,o),
(692,110,o),
(692,297,cs),
(692,490,o),
(563,609,o),
(358,609,cs),
(15,609,l),
(15,451,l),
(348,451,ls),
(446,451,o),
(497,398,o),
(497,297,cs),
(497,201,o),
(451,158,o),
(348,158,cs),
(15,158,l),
(15,0,l)
);
}
);
width = 727;
},
{
layerId = "BD31AAF9-E65B-4A30-ACC0-7018B0C27C60";
shapes = (
{
closed = 1;
nodes = (
(195,0,ls),
(369,0,o),
(466,110,o),
(466,292,cs),
(466,474,o),
(369,584,o),
(195,584,cs),
(35,584,l),
(35,557,l),
(187,557,ls),
(341,557,o),
(438,459,o),
(438,292,cs),
(438,125,o),
(351,27,o),
(187,27,cs),
(35,27,l),
(35,0,l)
);
}
);
width = 516;
},
{
layerId = "E193C3F6-581C-4255-BA06-39B2C55FEA85";
shapes = (
{
closed = 1;
nodes = (
(209,0,ls),
(382,0,o),
(474,130,o),
(474,299,cs),
(474,472,o),
(377,592,o),
(194,592,cs),
(20,592,l),
(20,511,l),
(184,511,ls),
(317,511,o),
(387,437,o),
(387,296,cs),
(387,160,o),
(323,81,o),
(209,81,cs),
(20,81,l),
(20,0,l)
);
}
);
width = 514;
},
{
layerId = "AD6F6DAA-2D58-4E1D-98AF-ACAAF76D7B9E";
shapes = (
{
closed = 1;
nodes = (
(212,0,ls),
(417,0,o),
(535,112,o),
(535,297,cs),
(535,486,o),
(412,609,o),
(212,609,cs),
(10,609,l),
(10,463,l),
(202,463,ls),
(306,463,o),
(362,401,o),
(362,297,cs),
(362,198,o),
(311,146,o),
(202,146,cs),
(10,146,l),
(10,0,l)
);
}
);
width = 565;
}
);
note = kafwide;
unicode = 64292;
},
{
glyphname = "widelamed-hb";
lastChange = "2016-07-07 18:36:03 +0000";
layers = (
{
layerId = "1F954AD7-537E-453D-9D07-161C7E95D0AA";
shapes = (
{
closed = 1;
nodes = (
(371,0,l),
(561,557,l),
(561,584,l),
(36,584,l),
(36,760,l),
(10,760,l),
(10,557,l),
(535,557,l),
(345,0,l)
);
}
);
width = 601;
},
{
layerId = "0C04772A-F31D-4E86-90EF-3402D1EA39CA";
shapes = (
{
closed = 1;
nodes = (
(398,0,l),
(585,524,l),
(585,592,l),
(95,592,l),
(95,760,l),
(5,760,l),
(5,509,l),
(491,509,l),
(303,0,l)
);
}
);
width = 620;
},
{
layerId = "3FB868F8-5CDC-4A46-BA32-95627737ABE0";
shapes = (
{
closed = 1;
nodes = (
(497,0,l),
(696,499,l),
(696,609,l),
(196,609,l),
(196,760,l),
(4,760,l),
(4,451,l),
(484,451,l),
(296,0,l)
);
}
);
width = 716;
},
{
layerId = "BD31AAF9-E65B-4A30-ACC0-7018B0C27C60";
shapes = (
{
closed = 1;
nodes = (
(241,0,l),
(431,557,l),
(431,584,l),
(36,584,l),
(36,760,l),
(10,760,l),
(10,557,l),
(405,557,l),
(215,0,l)
);
}
);
width = 461;
},
{
layerId = "E193C3F6-581C-4255-BA06-39B2C55FEA85";
shapes = (
{
closed = 1;
nodes = (
(277,0,l),
(464,525,l),
(464,592,l),
(94,592,l),
(94,760,l),
(10,760,l),
(10,511,l),
(376,511,l),
(188,0,l)
);
}
);
width = 484;
},
{
layerId = "AD6F6DAA-2D58-4E1D-98AF-ACAAF76D7B9E";
shapes = (
{
closed = 1;
nodes = (
(353,0,l),
(550,505,l),
(550,609,l),
(180,609,l),
(180,760,l),
(10,760,l),
(10,463,l),
(363,463,l),
(175,0,l)
);
}
);
width = 560;
}
);
note = lamedwide;
unicode = 64293;
},
{
glyphname = "finalwidemem-hb";
lastChange = "2016-07-07 18:36:03 +0000";
layers = (
{
layerId = "1F954AD7-537E-453D-9D07-161C7E95D0AA";
shapes = (
{
closed = 1;
nodes = (
(673,0,l),
(673,419,ls),
(673,531,o),
(614,584,o),
(513,584,cs),
(75,584,l),
(75,0,l)
);
},
{
closed = 1;
nodes = (
(101,557,l),
(508,557,ls),
(596,557,o),
(647,518,o),
(647,416,cs),
(647,27,l),
(101,27,l)
);
}
);
width = 758;
},
{
layerId = "0C04772A-F31D-4E86-90EF-3402D1EA39CA";
shapes = (
{
closed = 1;
nodes = (
(702,0,l),
(702,403,ls),
(702,535,o),
(637,592,o),
(501,592,cs),
(70,592,l),
(70,0,l)
);
},
{
closed = 1;
nodes = (
(160,509,l),
(495,509,ls),
(568,509,o),
(612,478,o),
(612,385,cs),
(612,83,l),
(160,83,l)
);
}
);
width = 782;
},
{
layerId = "3FB868F8-5CDC-4A46-BA32-95627737ABE0";
shapes = (
{
closed = 1;
nodes = (
(789,0,l),
(789,382,ls),
(789,533,o),
(704,609,o),
(537,609,cs),
(55,609,l),
(55,0,l)
);
},
{
closed = 1;
nodes = (
(247,451,l),
(528,451,ls),
(571,451,o),
(597,427,o),
(597,379,cs),
(597,158,l),
(247,158,l)
);
}
);
width = 854;
},
{
layerId = "BD31AAF9-E65B-4A30-ACC0-7018B0C27C60";
shapes = (
{
closed = 1;
nodes = (
(533,0,l),
(533,419,ls),
(533,531,o),
(474,584,o),
(373,584,cs),
(65,584,l),
(65,0,l)
);
},
{
closed = 1;
nodes = (
(91,557,l),
(368,557,ls),
(456,557,o),
(507,518,o),
(507,416,cs),
(507,27,l),
(91,27,l)
);
}
);
width = 603;
},
{
layerId = "E193C3F6-581C-4255-BA06-39B2C55FEA85";
shapes = (
{
closed = 1;
nodes = (
(546,0,l),
(546,404,ls),
(546,534,o),
(484,592,o),
(348,592,cs),
(50,592,l),
(50,0,l)
);
},
{
closed = 1;
nodes = (
(134,511,l),
(342,511,ls),
(424,511,o),
(462,472,o),
(462,386,cs),
(462,81,l),
(134,81,l)
);
}
);
width = 606;
},
{
layerId = "AD6F6DAA-2D58-4E1D-98AF-ACAAF76D7B9E";
shapes = (
{
closed = 1;
nodes = (
(622,0,l),
(622,388,ls),
(622,536,o),
(543,609,o),
(381,609,cs),
(40,609,l),
(40,0,l)
);
},
{
closed = 1;
nodes = (
(210,463,l),
(372,463,ls),
(423,463,o),
(452,435,o),
(452,385,cs),
(452,146,l),
(210,146,l)
);
}
);
width = 672;
}
);
note = finalmemwide;
unicode = 64294;
},
{
glyphname = "wideresh-hb";
lastChange = "2016-07-07 18:36:03 +0000";
layers = (
{
layerId = "1F954AD7-537E-453D-9D07-161C7E95D0AA";
shapes = (
{
closed = 1;
nodes = (
(552,0,l),
(552,419,ls),
(552,531,o),
(493,584,o),
(392,584,cs),
(10,584,l),
(10,557,l),
(387,557,ls),
(475,557,o),
(526,518,o),
(526,416,cs),
(526,0,l)
);
}
);
width = 637;
},
{
layerId = "0C04772A-F31D-4E86-90EF-3402D1EA39CA";
shapes = (
{
closed = 1;
nodes = (
(592,0,l),
(592,403,ls),
(592,535,o),
(527,592,o),
(391,592,cs),
(15,592,l),
(15,509,l),
(385,509,ls),
(458,509,o),
(502,478,o),
(502,385,cs),
(502,0,l)
);
}
);
width = 672;
},
{
layerId = "3FB868F8-5CDC-4A46-BA32-95627737ABE0";
shapes = (
{
closed = 1;
nodes = (
(682,0,l),
(682,382,ls),
(682,533,o),
(597,609,o),
(430,609,cs),
(3,609,l),
(3,451,l),
(421,451,ls),
(464,451,o),
(490,427,o),
(490,379,cs),
(490,0,l)
);
}
);
width = 747;
},
{
layerId = "BD31AAF9-E65B-4A30-ACC0-7018B0C27C60";
shapes = (
{
closed = 1;
nodes = (
(422,0,l),
(422,419,ls),
(422,531,o),
(363,584,o),
(262,584,cs),
(10,584,l),
(10,557,l),
(257,557,ls),
(345,557,o),
(396,518,o),
(396,416,cs),
(396,0,l)
);
}
);
width = 492;
},
{
layerId = "E193C3F6-581C-4255-BA06-39B2C55FEA85";
shapes = (
{
closed = 1;
nodes = (
(451,0,l),
(451,404,ls),
(451,534,o),
(389,592,o),
(253,592,cs),
(10,592,l),
(10,511,l),
(247,511,ls),
(329,511,o),
(367,472,o),
(367,386,cs),
(367,0,l)
);
}
);
width = 511;
},
{
layerId = "AD6F6DAA-2D58-4E1D-98AF-ACAAF76D7B9E";
shapes = (
{
closed = 1;
nodes = (
(537,0,l),
(537,388,ls),
(537,536,o),
(458,609,o),
(296,609,cs),
(10,609,l),
(10,463,l),
(287,463,ls),
(338,463,o),
(367,435,o),
(367,385,cs),
(367,0,l)
);
}
);
width = 587;
}
);
note = reshwide;
unicode = 64295;
},
{
glyphname = "widetav-hb";
lastChange = "2016-07-07 18:36:03 +0000";
layers = (
{
layerId = "1F954AD7-537E-453D-9D07-161C7E95D0AA";
shapes = (
{
closed = 1;
nodes = (
(697,0,l),
(697,419,ls),
(697,531,o),
(638,584,o),
(537,584,cs),
(44,584,l),
(44,557,l),
(532,557,ls),
(620,557,o),
(671,518,o),
(671,416,cs),
(671,0,l)
);
},
{
closed = 1;
nodes = (
(69,0,ls),
(131,0,o),
(177,37,o),
(177,120,cs),
(177,572,l),
(151,572,l),
(151,134,ls),
(151,58,o),
(125,27,o),
(69,27,cs),
(40,27,l),
(40,0,l)
);
}
);
width = 782;
},
{
layerId = "0C04772A-F31D-4E86-90EF-3402D1EA39CA";
shapes = (
{
closed = 1;
nodes = (
(717,0,l),
(717,403,ls),
(717,535,o),
(652,592,o),
(516,592,cs),
(39,592,l),
(39,509,l),
(510,509,ls),
(583,509,o),
(627,478,o),
(627,385,cs),
(627,0,l)
);
},
{
closed = 1;
nodes = (
(76,0,ls),
(183,0,o),
(226,60,o),
(226,180,cs),
(226,548,l),
(136,548,l),
(136,175,ls),
(136,113,o),
(117,83,o),
(81,83,cs),
(35,83,l),
(35,0,l)
);
}
);
width = 797;
},
{
layerId = "3FB868F8-5CDC-4A46-BA32-95627737ABE0";
shapes = (
{
closed = 1;
nodes = (
(800,0,l),
(800,382,ls),
(800,533,o),
(715,609,o),
(548,609,cs),
(20,609,l),
(20,451,l),
(539,451,ls),
(582,451,o),
(608,427,o),
(608,379,cs),
(608,0,l)
);
},
{
closed = 1;
nodes = (
(128,0,ls),
(249,0,o),
(309,66,o),
(309,198,cs),
(309,574,l),
(117,574,l),
(117,188,ls),
(117,165,o),
(106,158,o),
(87,158,cs),
(20,158,l),
(20,0,l)
);
}
);
width = 865;
},
{
layerId = "BD31AAF9-E65B-4A30-ACC0-7018B0C27C60";
shapes = (
{
closed = 1;
nodes = (
(567,0,l),
(567,419,ls),
(567,531,o),
(508,584,o),
(407,584,cs),
(44,584,l),
(44,557,l),
(402,557,ls),
(490,557,o),
(541,518,o),
(541,416,cs),
(541,0,l)
);
},
{
closed = 1;
nodes = (
(69,0,ls),
(131,0,o),
(177,37,o),
(177,120,cs),
(177,572,l),
(151,572,l),
(151,134,ls),
(151,58,o),
(125,27,o),
(69,27,cs),
(40,27,l),
(40,0,l)
);
}
);
width = 637;
},
{
layerId = "E193C3F6-581C-4255-BA06-39B2C55FEA85";
shapes = (
{
closed = 1;
nodes = (
(586,0,l),
(586,404,ls),
(586,534,o),
(524,592,o),
(388,592,cs),
(44,592,l),
(44,511,l),
(382,511,ls),
(464,511,o),
(502,472,o),
(502,386,cs),
(502,0,l)
);
},
{
closed = 1;
nodes = (
(78,0,ls),
(180,0,o),
(225,56,o),
(225,179,cs),
(225,548,l),
(141,548,l),
(141,174,ls),
(141,112,o),
(122,81,o),
(83,81,cs),
(40,81,l),
(40,0,l)
);
}
);
width = 646;
},
{
layerId = "AD6F6DAA-2D58-4E1D-98AF-ACAAF76D7B9E";
shapes = (
{
closed = 1;
nodes = (
(658,0,l),
(658,388,ls),
(658,536,o),
(579,609,o),
(417,609,cs),
(30,609,l),
(30,463,l),
(408,463,ls),
(459,463,o),
(488,435,o),
(488,385,cs),
(488,0,l)
);
},
{
closed = 1;
nodes = (
(127,0,ls),
(241,0,o),
(297,63,o),
(297,192,cs),
(297,574,l),
(127,574,l),
(127,182,ls),
(127,158,o),
(114,146,o),
(86,146,cs),
(30,146,l),
(30,0,l)
);
}
);
width = 708;
}
);
note = tavwide;
unicode = 64296;
},
{
glyphname = "vavvav-hb";
lastChange = "2024-02-28 22:25:16 +0000";
layers = (
{
anchors = (
{
name = bottom;
pos = (206,0);
},
{
name = bottomleft;
},
{
name = caret_1;
pos = (206,0);
},
{
name = center;
pos = (12,296);
},
{
name = top;
pos = (103,528);
},
{
name = topleft;
pos = (98,528);
}
);
layerId = "1F954AD7-537E-453D-9D07-161C7E95D0AA";
shapes = (
{
closed = 1;
nodes = (
(322,0,l),
(322,584,l),
(296,584,l),
(296,0,l)
);
},
{
closed = 1;
nodes = (
(116,0,l),
(116,584,l),
(90,584,l),
(90,0,l)
);
}
);
width = 412;
},
{
anchors = (
{
name = bottom;
pos = (260,0);
},
{
name = bottomleft;
pos = (-10,0);
},
{
name = caret_1;
pos = (270,0);
},
{
name = center;
pos = (-10,300);
},
{
name = top;
pos = (130,536);
},
{
name = topleft;
pos = (112,536);
}
);
layerId = "0C04772A-F31D-4E86-90EF-3402D1EA39CA";
shapes = (
{
closed = 1;
nodes = (
(435,0,l),
(435,592,l),
(345,592,l),
(345,0,l)
);
},
{
closed = 1;
nodes = (
(175,0,l),
(175,592,l),
(85,592,l),
(85,0,l)
);
}
);
width = 520;
},
{
anchors = (
{
name = bottom;
pos = (332,0);
},
{
name = bottomleft;
pos = (15,0);
},
{
name = caret_1;
pos = (275,0);
},
{
name = center;
pos = (-28,306);
},
{
name = top;
pos = (166,553);
},
{
name = topleft;
pos = (114,553);
}
);
layerId = "3FB868F8-5CDC-4A46-BA32-95627737ABE0";
shapes = (
{
closed = 1;
nodes = (
(594,0,l),
(594,609,l),
(402,609,l),
(402,0,l)
);
},
{
closed = 1;
nodes = (
(262,0,l),
(262,609,l),
(70,609,l),
(70,0,l)
);
}
);
width = 664;
},
{
anchors = (
{
name = bottom;
pos = (176,0);
},
{
name = bottomleft;
pos = (-15,0);
},
{
name = caret_1;
pos = (191,0);
},
{
name = center;
pos = (-3,296);
},
{
name = top;
pos = (88,528);
},
{
name = topleft;
pos = (83,528);
}
);
layerId = "BD31AAF9-E65B-4A30-ACC0-7018B0C27C60";
shapes = (
{
closed = 1;
nodes = (
(277,0,l),
(277,584,l),
(251,584,l),
(251,0,l)
);
},
{
closed = 1;
nodes = (
(101,0,l),
(101,584,l),
(75,584,l),
(75,0,l)
);
}
);
width = 352;
},
{
anchors = (
{
name = bottom;
pos = (214,0);
},
{
name = bottomleft;
pos = (-30,0);
},
{
name = caret_1;
pos = (250,0);
},
{
name = center;
pos = (-30,300);
},
{
name = top;
pos = (110,536);
},
{
name = topleft;
pos = (92,536);
}
);
layerId = "E193C3F6-581C-4255-BA06-39B2C55FEA85";
shapes = (
{
closed = 1;
nodes = (
(363,0,l),
(363,592,l),
(273,592,l),
(273,0,l)
);
},
{
closed = 1;
nodes = (
(155,0,l),
(155,592,l),
(65,592,l),
(65,0,l)
);
}
);
width = 428;
},
{
anchors = (
{
name = bottom;
pos = (280,0);
},
{
name = bottomleft;
},
{
name = caret_1;
pos = (260,0);
},
{
name = center;
pos = (-43,306);
},
{
name = top;
pos = (151,553);
},
{
name = topleft;
pos = (99,553);
}
);
layerId = "AD6F6DAA-2D58-4E1D-98AF-ACAAF76D7B9E";
shapes = (
{
closed = 1;
nodes = (
(505,0,l),
(505,609,l),
(313,609,l),
(313,0,l)
);
},
{
closed = 1;
nodes = (
(247,0,l),
(247,609,l),
(55,609,l),
(55,0,l)
);
}
);
width = 560;
}
);
note = vavvav;
unicode = 1520;
},
{
glyphname = "aleflamed-hb";
lastChange = "2016-07-07 18:36:03 +0000";
layers = (
{
anchors = (
{
name = caret_1;
pos = (227,0);
}
);
layerId = "1F954AD7-537E-453D-9D07-161C7E95D0AA";
shapes = (
{
closed = 1;
nodes = (
(494,0,l),
(98,584,l),
(66,584,l),
(463,0,l)
);
},
{
closed = 1;
nodes = (
(94,557,l),
(94,584,l),
(10,584,l),
(10,557,l)
);
},
{
closed = 1;
nodes = (
(36,569,l),
(36,760,l),
(10,760,l),
(10,569,l)
);
},
{
closed = 1;
nodes = (
(428,247,o),
(492,316,o),
(492,428,cs),
(492,584,l),
(466,584,l),
(466,436,ls),
(466,333,o),
(413,264,o),
(345,221,c),
(353,199,l)
);
}
);
width = 539;
},
{
anchors = (
{
name = caret_1;
pos = (299,0);
}
);
layerId = "0C04772A-F31D-4E86-90EF-3402D1EA39CA";
shapes = (
{
closed = 1;
nodes = (
(553,0,l),
(153,592,l),
(47,592,l),
(447,0,l)
);
},
{
closed = 1;
nodes = (
(138,509,l),
(138,592,l),
(10,592,l),
(10,509,l)
);
},
{
closed = 1;
nodes = (
(100,546,l),
(100,760,l),
(10,760,l),
(10,546,l)
);
},
{
closed = 1;
nodes = (
(481,218,o),
(539,301,o),
(539,446,cs),
(539,592,l),
(449,592,l),
(449,440,ls),
(449,336,o),
(417,274,o),
(352,250,c),
(382,184,l)
);
}
);
width = 593;
},
{
anchors = (
{
name = caret_1;
pos = (371,0);
}
);
layerId = "3FB868F8-5CDC-4A46-BA32-95627737ABE0";
shapes = (
{
closed = 1;
nodes = (
(717,0,l),
(290,609,l),
(74,609,l),
(502,0,l)
);
},
{
closed = 1;
nodes = (
(240,451,l),
(240,609,l),
(10,609,l),
(10,451,l)
);
},
{
closed = 1;
nodes = (
(202,487,l),
(202,760,l),
(10,760,l),
(10,487,l)
);
},
{
closed = 1;
nodes = (
(609,215,o),
(688,310,o),
(688,434,cs),
(688,609,l),
(499,609,l),
(499,447,ls),
(499,371,o),
(482,338,o),
(418,338,c),
(458,215,l)
);
}
);
width = 742;
},
{
anchors = (
{
name = caret_1;
pos = (227,0);
}
);
layerId = "BD31AAF9-E65B-4A30-ACC0-7018B0C27C60";
shapes = (
{
closed = 1;
nodes = (
(346,0,l),
(80,584,l),
(54,584,l),
(321,0,l)
);
},
{
closed = 1;
nodes = (
(75,555,l),
(75,584,l),
(10,584,l),
(10,555,l)
);
},
{
closed = 1;
nodes = (
(36,567,l),
(36,760,l),
(10,760,l),
(10,567,l)
);
},
{
closed = 1;
nodes = (
(300,254,o),
(344,310,o),
(344,408,cs),
(344,584,l),
(318,584,l),
(318,413,ls),
(318,324,o),
(283,276,o),
(224,233,c),
(232,207,l)
);
}
);
width = 396;
},
{
anchors = (
{
name = caret_1;
pos = (221,0);
}
);
layerId = "E193C3F6-581C-4255-BA06-39B2C55FEA85";
shapes = (
{
closed = 1;
nodes = (
(413,0,l),
(144,592,l),
(45,592,l),
(314,0,l)
);
},
{
closed = 1;
nodes = (
(137,511,l),
(137,592,l),
(15,592,l),
(15,511,l)
);
},
{
closed = 1;
nodes = (
(99,546,l),
(99,760,l),
(15,760,l),
(15,546,l)
);
},
{
closed = 1;
nodes = (
(349,222,o),
(400,310,o),
(400,446,cs),
(400,592,l),
(316,592,l),
(316,440,ls),
(316,337,o),
(285,275,o),
(219,250,c),
(248,186,l)
);
}
);
width = 443;
},
{
anchors = (
{
name = caret_1;
pos = (293,0);
}
);
layerId = "AD6F6DAA-2D58-4E1D-98AF-ACAAF76D7B9E";
shapes = (
{
closed = 1;
nodes = (
(561,0,l),
(255,609,l),
(86,609,l),
(392,0,l)
);
},
{
closed = 1;
nodes = (
(240,463,l),
(240,609,l),
(10,609,l),
(10,463,l)
);
},
{
closed = 1;
nodes = (
(180,487,l),
(180,760,l),
(10,760,l),
(10,487,l)
);
},
{
closed = 1;
nodes = (
(481,253,o),
(542,328,o),
(542,456,cs),
(542,609,l),
(381,609,l),
(381,469,ls),
(381,379,o),
(380,353,o),
(322,349,c),
(352,249,l)
);
}
);
width = 586;
}
);
note = aleflamed;
unicode = 64335;
},
{
glyphname = "nunhafukha-hb";
lastChange = "2016-07-07 18:36:03 +0000";
layers = (
{
layerId = "1F954AD7-537E-453D-9D07-161C7E95D0AA";
shapes = (
{
closed = 1;
nodes = (
(315,0,l),
(315,27,l),
(111,27,l),
(111,416,ls),
(111,518,o),
(162,557,o),
(250,557,cs),
(280,557,l),
(280,584,l),
(245,584,ls),
(144,584,o),
(85,531,o),
(85,419,cs),
(85,0,l)
);
}
);
width = 350;
},
{
layerId = "0C04772A-F31D-4E86-90EF-3402D1EA39CA";
shapes = (
{
closed = 1;
nodes = (
(367,0,l),
(367,83,l),
(180,83,l),
(180,445,ls),
(180,492,o),
(200,509,o),
(238,509,cs),
(334,509,l),
(334,592,l),
(212,592,ls),
(142,592,o),
(90,555,o),
(90,456,cs),
(90,0,l)
);
}
);
width = 407;
},
{
layerId = "3FB868F8-5CDC-4A46-BA32-95627737ABE0";
shapes = (
{
closed = 1;
nodes = (
(449,0,l),
(449,158,l),
(262,158,l),
(262,416,ls),
(262,440,o),
(271,451,o),
(296,451,cs),
(416,451,l),
(416,609,l),
(243,609,ls),
(126,609,o),
(70,540,o),
(70,435,cs),
(70,0,l)
);
}
);
width = 474;
},
{
layerId = "BD31AAF9-E65B-4A30-ACC0-7018B0C27C60";
shapes = (
{
closed = 1;
nodes = (
(210,0,l),
(210,29,l),
(96,29,l),
(96,479,l),
(96,537,o),
(109,557,o),
(152,557,cs),
(184,557,l),
(184,584,l),
(147,584,ls),
(93,584,o),
(70,553,o),
(70,487,cs),
(70,0,l)
);
}
);
width = 245;
},
{
layerId = "E193C3F6-581C-4255-BA06-39B2C55FEA85";
shapes = (
{
closed = 1;
nodes = (
(228,0,l),
(228,81,l),
(114,81,l),
(114,430,ls),
(114,484,o),
(124,511,o),
(163,511,cs),
(188,511,l),
(188,592,l),
(133,592,ls),
(62,592,o),
(30,545,o),
(30,449,cs),
(30,0,l)
);
}
);
width = 248;
},
{
layerId = "AD6F6DAA-2D58-4E1D-98AF-ACAAF76D7B9E";
shapes = (
{
closed = 1;
nodes = (
(338,0,l),
(338,146,l),
(220,146,l),
(220,409,ls),
(220,445,o),
(233,463,o),
(260,463,cs),
(306,463,l),
(306,609,l),
(204,609,ls),
(95,609,o),
(50,547,o),
(50,417,cs),
(50,0,l)
);
}
);
width = 358;
}
);
note = uni05C6;
unicode = 1478;
},
{
glyphname = "paseq-hb";
lastChange = "2016-07-07 18:36:03 +0000";
layers = (
{
layerId = "1F954AD7-537E-453D-9D07-161C7E95D0AA";
shapes = (
{
closed = 1;
nodes = (
(253,-251,l),
(278,-251,l),
(278,763,l),
(253,763,l)
);
}
);
width = 535;
},
{
layerId = "0C04772A-F31D-4E86-90EF-3402D1EA39CA";
shapes = (
{
closed = 1;
nodes = (
(239,-241,l),
(312,-241,l),
(312,760,l),
(239,760,l)
);
}
);
width = 551;
},
{
layerId = "3FB868F8-5CDC-4A46-BA32-95627737ABE0";
shapes = (
{
closed = 1;
nodes = (
(189,-218,l),
(320,-218,l),
(320,760,l),
(189,760,l)
);
}
);
width = 509;
},
{
layerId = "BD31AAF9-E65B-4A30-ACC0-7018B0C27C60";
shapes = (
{
closed = 1;
nodes = (
(176,-242,l),
(202,-242,l),
(202,761,l),
(176,761,l)
);
}
);
width = 378;
},
{
layerId = "E193C3F6-581C-4255-BA06-39B2C55FEA85";
shapes = (
{
closed = 1;
nodes = (
(165,-241,l),
(238,-241,l),
(238,760,l),
(165,760,l)
);
}
);
width = 403;
},
{
layerId = "AD6F6DAA-2D58-4E1D-98AF-ACAAF76D7B9E";
shapes = (
{
closed = 1;
nodes = (
(189,-218,l),
(320,-218,l),
(320,760,l),
(189,760,l)
);
}
);
width = 509;
}
);
note = paseq;
unicode = 1472;
},
{
glyphname = "sofpasuq-hb";
lastChange = "2016-07-07 18:36:03 +0000";
layers = (
{
layerId = "1F954AD7-537E-453D-9D07-161C7E95D0AA";
shapes = (
{
closed = 1;
nodes = (
(85,6,o),
(90,-8,o),
(110,-8,cs),
(134,-8,o),
(137,6,o),
(137,23,cs),
(137,39,o),
(134,54,o),
(110,54,cs),
(90,54,o),
(85,39,o),
(85,23,cs)
);
},
{
closed = 1;
nodes = (
(85,484,o),
(90,470,o),
(110,470,cs),
(134,470,o),
(137,484,o),
(137,501,cs),
(137,517,o),
(134,532,o),
(110,532,cs),
(90,532,o),
(85,517,o),
(85,501,cs)
);
}
);
width = 220;
},
{
layerId = "0C04772A-F31D-4E86-90EF-3402D1EA39CA";
shapes = (
{
closed = 1;
nodes = (
(72,6,o),
(99,-14,o),
(133,-14,cs),
(167,-14,o),
(196,6,o),
(196,54,cs),
(196,103,o),
(167,121,o),
(133,121,cs),
(99,121,o),
(72,103,o),
(72,54,cs)
);
},
{
closed = 1;
nodes = (
(72,434,o),
(99,414,o),
(133,414,cs),
(167,414,o),
(196,434,o),
(196,482,cs),
(196,532,o),
(167,550,o),
(133,550,cs),
(99,550,o),
(72,532,o),
(72,482,cs)
);
}
);
width = 268;
},
{
layerId = "3FB868F8-5CDC-4A46-BA32-95627737ABE0";
shapes = (
{
closed = 1;
nodes = (
(42,15,o),
(89,-12,o),
(146,-12,cs),
(200,-12,o),
(246,15,o),
(246,81,cs),
(246,150,o),
(200,175,o),
(146,175,cs),
(89,175,o),
(42,150,o),
(42,81,c)
);
},
{
closed = 1;
nodes = (
(42,400,o),
(89,373,o),
(146,373,cs),
(200,373,o),
(246,400,o),
(246,467,cs),
(246,535,o),
(200,560,o),
(146,560,cs),
(89,560,o),
(42,535,o),
(42,467,c)
);
}
);
width = 289;
},
{
layerId = "BD31AAF9-E65B-4A30-ACC0-7018B0C27C60";
shapes = (
{
closed = 1;
nodes = (
(65,12,o),
(67,-5,o),
(90,-5,cs),
(112,-5,o),
(116,11,o),
(116,31,cs),
(116,50,o),
(112,66,o),
(90,66,cs),
(69,66,o),
(65,50,o),
(65,31,cs)
);
},
{
closed = 1;
nodes = (
(65,476,o),
(70,461,o),
(90,461,cs),
(108,461,o),
(116,474,o),
(116,497,cs),
(116,521,o),
(109,532,o),
(91,532,cs),
(70,532,o),
(65,516,o),
(65,496,cs)
);
}
);
width = 180;
},
{
layerId = "E193C3F6-581C-4255-BA06-39B2C55FEA85";
shapes = (
{
closed = 1;
nodes = (
(60,13,o),
(79,-9,o),
(114,-9,cs),
(145,-9,o),
(168,11,o),
(168,55,cs),
(168,100,o),
(147,119,o),
(114,119,cs),
(78,119,o),
(60,97,o),
(60,55,cs)
);
},
{
closed = 1;
nodes = (
(60,433,o),
(79,411,o),
(114,411,cs),
(145,411,o),
(168,432,o),
(168,476,cs),
(168,518,o),
(149,540,o),
(114,540,cs),
(78,540,o),
(60,518,o),
(60,476,cs)
);
}
);
width = 228;
},
{
layerId = "AD6F6DAA-2D58-4E1D-98AF-ACAAF76D7B9E";
shapes = (
{
closed = 1;
nodes = (
(49,22,o),
(84,-12,o),
(142,-12,cs),
(198,-12,o),
(231,22,o),
(231,81,cs),
(231,141,o),
(200,175,o),
(142,175,cs),
(81,175,o),
(49,141,o),
(49,81,cs)
);
},
{
closed = 1;
nodes = (
(49,408,o),
(84,374,o),
(142,374,cs),
(198,374,o),
(231,408,o),
(231,467,cs),
(231,527,o),
(200,561,o),
(142,561,cs),
(81,561,o),
(49,527,o),
(49,467,cs)
);
}
);
width = 280;
}
);
note = sofpasuq;
unicode = 1475;
},
{
glyphname = "geresh-hb";
lastChange = "2016-07-07 18:36:03 +0000";
layers = (
{
layerId = "1F954AD7-537E-453D-9D07-161C7E95D0AA";
shapes = (
{
closed = 1;
nodes = (
(33,339,l),
(65,408,o),
(93,493,o),
(105,575,c),
(99,584,l),
(79,584,l),
(72,512,o),
(47,409,o),
(16,339,c)
);
}
);
width = 127;
},
{
layerId = "0C04772A-F31D-4E86-90EF-3402D1EA39CA";
shapes = (
{
closed = 1;
nodes = (
(76,347,l),
(108,418,o),
(144,510,o),
(162,581,c),
(155,592,l),
(61,592,l),
(51,522,o),
(31,422,o),
(12,347,c)
);
}
);
width = 182;
},
{
layerId = "3FB868F8-5CDC-4A46-BA32-95627737ABE0";
shapes = (
{
closed = 1;
nodes = (
(154,324,l),
(187,398,o),
(222,526,o),
(240,598,c),
(233,609,l),
(66,609,l),
(57,529,o),
(37,415,o),
(18,324,c)
);
}
);
width = 250;
},
{
layerId = "BD31AAF9-E65B-4A30-ACC0-7018B0C27C60";
shapes = (
{
closed = 1;
nodes = (
(37,365,l),
(68,437,o),
(89,506,o),
(107,573,c),
(99,584,l),
(73,584,l),
(63,512,o),
(46,448,o),
(21,365,c)
);
}
);
width = 128;
},
{
layerId = "E193C3F6-581C-4255-BA06-39B2C55FEA85";
shapes = (
{
closed = 1;
nodes = (
(87,346,l),
(119,421,o),
(144,498,o),
(163,581,c),
(156,592,l),
(70,592,l),
(64,523,o),
(46,426,o),
(25,346,c)
);
}
);
width = 188;
},
{
layerId = "AD6F6DAA-2D58-4E1D-98AF-ACAAF76D7B9E";
shapes = (
{
closed = 1;
nodes = (
(170,324,l),
(199,397,o),
(220,488,o),
(235,598,c),
(230,609,l),
(72,609,l),
(69,542,o),
(48,394,o),
(36,324,c)
);
}
);
width = 273;
}
);
unicode = 1523;
},
{
glyphname = "gershayim-hb";
lastChange = "2016-07-07 18:36:03 +0000";
layers = (
{
layerId = "1F954AD7-537E-453D-9D07-161C7E95D0AA";
shapes = (
{
closed = 1;
nodes = (
(171,339,l),
(203,408,o),
(231,493,o),
(243,575,c),
(237,584,l),
(217,584,l),
(210,512,o),
(185,409,o),
(154,339,c)
);
},
{
closed = 1;
nodes = (
(33,339,l),
(65,408,o),
(93,493,o),
(105,575,c),
(99,584,l),
(79,584,l),
(72,512,o),
(47,409,o),
(16,339,c)
);
}
);
width = 265;
},
{
layerId = "0C04772A-F31D-4E86-90EF-3402D1EA39CA";
shapes = (
{
closed = 1;
nodes = (
(261,347,l),
(293,418,o),
(329,510,o),
(347,581,c),
(340,592,l),
(246,592,l),
(236,522,o),
(214,422,o),
(195,347,c)
);
},
{
closed = 1;
nodes = (
(76,347,l),
(108,418,o),
(144,510,o),
(162,581,c),
(155,592,l),
(61,592,l),
(51,522,o),
(31,422,o),
(12,347,c)
);
}
);
width = 367;
},
{
layerId = "3FB868F8-5CDC-4A46-BA32-95627737ABE0";
shapes = (
{
closed = 1;
nodes = (
(403,324,l),
(436,398,o),
(471,526,o),
(489,598,c),
(482,609,l),
(315,609,l),
(306,529,o),
(286,415,o),
(267,324,c)
);
},
{
closed = 1;
nodes = (
(154,324,l),
(187,398,o),
(222,526,o),
(240,598,c),
(233,609,l),
(66,609,l),
(57,529,o),
(37,415,o),
(18,324,c)
);
}
);
width = 499;
},
{
layerId = "BD31AAF9-E65B-4A30-ACC0-7018B0C27C60";
shapes = (
{
closed = 1;
nodes = (
(145,365,l),
(176,437,o),
(197,506,o),
(215,573,c),
(207,584,l),
(181,584,l),
(171,512,o),
(154,448,o),
(129,365,c)
);
},
{
closed = 1;
nodes = (
(37,365,l),
(68,437,o),
(89,506,o),
(107,573,c),
(99,584,l),
(73,584,l),
(63,512,o),
(46,448,o),
(21,365,c)
);
}
);
width = 236;
},
{
layerId = "E193C3F6-581C-4255-BA06-39B2C55FEA85";
shapes = (
{
closed = 1;
nodes = (
(253,346,l),
(285,421,o),
(310,498,o),
(329,581,c),
(322,592,l),
(237,592,l),
(229,516,o),
(214,433,o),
(191,346,c)
);
},
{
closed = 1;
nodes = (
(87,346,l),
(119,421,o),
(144,498,o),
(163,581,c),
(156,592,l),
(70,592,l),
(64,523,o),
(46,426,o),
(25,346,c)
);
}
);
width = 354;
},
{
layerId = "AD6F6DAA-2D58-4E1D-98AF-ACAAF76D7B9E";
shapes = (
{
closed = 1;
nodes = (
(399,324,l),
(428,397,o),
(450,488,o),
(465,598,c),
(459,609,l),
(302,609,l),
(295,519,o),
(282,421,o),
(265,324,c)
);
},
{
closed = 1;
nodes = (
(170,324,l),
(199,397,o),
(220,488,o),
(235,598,c),
(230,609,l),
(72,609,l),
(69,542,o),
(48,394,o),
(36,324,c)
);
}
);
width = 503;
}
);
unicode = 1524;
},
{
glyphname = "maqaf-hb";
lastChange = "2016-07-07 18:36:03 +0000";
layers = (
{
layerId = "1F954AD7-537E-453D-9D07-161C7E95D0AA";
shapes = (
{
closed = 1;
nodes = (
(272,559,l),
(272,584,l),
(30,584,l),
(30,559,l)
);
}
);
width = 312;
},
{
layerId = "0C04772A-F31D-4E86-90EF-3402D1EA39CA";
shapes = (
{
closed = 1;
nodes = (
(272,514,l),
(272,592,l),
(30,592,l),
(30,514,l)
);
}
);
width = 312;
},
{
layerId = "3FB868F8-5CDC-4A46-BA32-95627737ABE0";
shapes = (
{
closed = 1;
nodes = (
(286,457,l),
(286,609,l),
(10,609,l),
(10,457,l)
);
}
);
width = 306;
},
{
layerId = "BD31AAF9-E65B-4A30-ACC0-7018B0C27C60";
shapes = (
{
closed = 1;
nodes = (
(237,557,l),
(237,584,l),
(26,584,l),
(26,557,l)
);
}
);
width = 263;
},
{
layerId = "E193C3F6-581C-4255-BA06-39B2C55FEA85";
shapes = (
{
closed = 1;
nodes = (
(247,511,l),
(247,592,l),
(27,592,l),
(27,511,l)
);
}
);
width = 274;
},
{
layerId = "AD6F6DAA-2D58-4E1D-98AF-ACAAF76D7B9E";
shapes = (
{
closed = 1;
nodes = (
(296,457,l),
(296,609,l),
(29,609,l),
(29,457,l)
);
}
);
width = 325;
}
);
unicode = 1470;
},
{
glyphname = hyphen;
kernLeft = hyphen.right;
kernRight = hyphen.left;
lastChange = "2016-07-07 18:36:03 +0000";
layers = (
{
layerId = "3FB868F8-5CDC-4A46-BA32-95627737ABE0";
shapes = (
{
closed = 1;
nodes = (
(297,192,l),
(297,344,l),
(21,344,l),
(21,192,l)
);
}
);
width = 318;
},
{
layerId = "AD6F6DAA-2D58-4E1D-98AF-ACAAF76D7B9E";
shapes = (
{
closed = 1;
nodes = (
(296,192,l),
(296,344,l),
(29,344,l),
(29,192,l)
);
}
);
width = 325;
},
{
layerId = "0C04772A-F31D-4E86-90EF-3402D1EA39CA";
shapes = (
{
closed = 1;
nodes = (
(282,229,l),
(282,307,l),
(40,307,l),
(40,229,l)
);
}
);
width = 322;
},
{
layerId = "E193C3F6-581C-4255-BA06-39B2C55FEA85";
shapes = (
{
closed = 1;
nodes = (
(247,229,l),
(247,310,l),
(27,310,l),
(27,229,l)
);
}
);
width = 274;
},
{
layerId = "1F954AD7-537E-453D-9D07-161C7E95D0AA";
shapes = (
{
closed = 1;
nodes = (
(282,259,l),
(282,284,l),
(40,284,l),
(40,259,l)
);
}
);
width = 322;
},
{
layerId = "BD31AAF9-E65B-4A30-ACC0-7018B0C27C60";
shapes = (
{
closed = 1;
nodes = (
(237,259,l),
(237,286,l),
(26,286,l),
(26,259,l)
);
}
);
width = 263;
}
);
subCategory = Dash;
unicode = 45;
},
{
glyphname = hyphentwo;
lastChange = "2016-07-07 18:36:03 +0000";
layers = (
{
layerId = "3FB868F8-5CDC-4A46-BA32-95627737ABE0";
shapes = (
{
closed = 1;
nodes = (
(297,192,l),
(297,344,l),
(21,344,l),
(21,192,l)
);
}
);
width = 318;
},
{
layerId = "AD6F6DAA-2D58-4E1D-98AF-ACAAF76D7B9E";
shapes = (
{
closed = 1;
nodes = (
(296,192,l),
(296,344,l),
(29,344,l),
(29,192,l)
);
}
);
width = 325;
},
{
layerId = "0C04772A-F31D-4E86-90EF-3402D1EA39CA";
shapes = (
{
closed = 1;
nodes = (
(282,229,l),
(282,307,l),
(40,307,l),
(40,229,l)
);
}
);
width = 322;
},
{
layerId = "E193C3F6-581C-4255-BA06-39B2C55FEA85";
shapes = (
{
closed = 1;
nodes = (
(247,229,l),
(247,310,l),
(27,310,l),
(27,229,l)
);
}
);
width = 274;
},
{
layerId = "1F954AD7-537E-453D-9D07-161C7E95D0AA";
shapes = (
{
closed = 1;
nodes = (
(282,259,l),
(282,284,l),
(40,284,l),
(40,259,l)
);
}
);
width = 322;
},
{
layerId = "BD31AAF9-E65B-4A30-ACC0-7018B0C27C60";
shapes = (
{
closed = 1;
nodes = (
(237,259,l),
(237,286,l),
(26,286,l),
(26,259,l)
);
}
);
width = 263;
}
);
metricWidth = "=hyphen";
subCategory = Dash;
unicode = 8208;
},
{
glyphname = "alternativeplus-hb";
lastChange = "2016-07-07 18:36:03 +0000";
layers = (
{
layerId = "1F954AD7-537E-453D-9D07-161C7E95D0AA";
shapes = (
{
closed = 1;
nodes = (
(297,583,l),
(273,583,l),
(273,365,l),
(55,365,l),
(55,341,l),
(515,341,l),
(515,365,l),
(297,365,l)
);
}
);
width = 570;
},
{
layerId = "0C04772A-F31D-4E86-90EF-3402D1EA39CA";
shapes = (
{
closed = 1;
nodes = (
(321,595,l),
(249,595,l),
(249,388,l),
(50,388,l),
(50,317,l),
(520,317,l),
(520,388,l),
(321,388,l)
);
}
);
width = 572;
},
{
layerId = "3FB868F8-5CDC-4A46-BA32-95627737ABE0";
shapes = (
{
closed = 1;
nodes = (
(348,640,l),
(217,640,l),
(217,461,l),
(35,461,l),
(35,330,l),
(530,330,l),
(530,461,l),
(348,461,l)
);
}
);
width = 566;
},
{
layerId = "BD31AAF9-E65B-4A30-ACC0-7018B0C27C60";
shapes = (
{
closed = 1;
nodes = (
(257,583,l),
(233,583,l),
(233,365,l),
(55,365,l),
(55,341,l),
(435,341,l),
(435,365,l),
(257,365,l)
);
}
);
width = 490;
},
{
layerId = "E193C3F6-581C-4255-BA06-39B2C55FEA85";
shapes = (
{
closed = 1;
nodes = (
(281,595,l),
(209,595,l),
(209,388,l),
(50,388,l),
(50,317,l),
(440,317,l),
(440,388,l),
(281,388,l)
);
}
);
width = 490;
},
{
layerId = "AD6F6DAA-2D58-4E1D-98AF-ACAAF76D7B9E";
shapes = (
{
closed = 1;
nodes = (
(309,640,l),
(178,640,l),
(178,461,l),
(36,461,l),
(36,330,l),
(451,330,l),
(451,461,l),
(309,461,l)
);
}
);
width = 487;
}
);
note = alt_plussign;
unicode = 64297;
},
{
glyphname = "shindot-hb";
lastChange = "2016-07-07 18:36:03 +0000";
layers = (
{
anchors = (
{
name = _topright;
pos = (72,528);
}
);
layerId = "1F954AD7-537E-453D-9D07-161C7E95D0AA";
shapes = (
{
closed = 1;
nodes = (
(91,650,o),
(94,663,o),
(94,678,cs),
(94,693,o),
(91,706,o),
(71,706,cs),
(55,706,o),
(50,693,o),
(50,678,cs),
(50,663,o),
(55,650,o),
(71,650,cs)
);
}
);
width = 144;
},
{
anchors = (
{
name = _topright;
pos = (84,536);
}
);
layerId = "0C04772A-F31D-4E86-90EF-3402D1EA39CA";
shapes = (
{
closed = 1;
nodes = (
(103,660,o),
(117,672,o),
(117,698,cs),
(117,723,o),
(103,735,o),
(83,735,cs),
(63,735,o),
(50,723,o),
(50,698,c),
(50,671,o),
(63,660,o),
(83,660,cs)
);
}
);
width = 167;
},
{
anchors = (
{
name = _topright;
pos = (101,553);
}
);
layerId = "3FB868F8-5CDC-4A46-BA32-95627737ABE0";
shapes = (
{
closed = 1;
nodes = (
(129,673,o),
(152,687,o),
(152,715,cs),
(152,744,o),
(129,757,o),
(101,757,cs),
(73,757,o),
(50,744,o),
(50,715,cs),
(50,687,o),
(73,673,o),
(101,673,cs)
);
}
);
width = 202;
},
{
anchors = (
{
name = _topright;
pos = (72,528);
}
);
layerId = "BD31AAF9-E65B-4A30-ACC0-7018B0C27C60";
shapes = (
{
closed = 1;
nodes = (
(91,650,o),
(94,663,o),
(94,678,cs),
(94,693,o),
(91,706,o),
(71,706,cs),
(55,706,o),
(50,693,o),
(50,678,cs),
(50,663,o),
(55,650,o),
(71,650,cs)
);
}
);
width = 144;
},
{
anchors = (
{
name = _topright;
pos = (82,536);
}
);
layerId = "E193C3F6-581C-4255-BA06-39B2C55FEA85";
shapes = (
{
closed = 1;
nodes = (
(100,660,o),
(113,671,o),
(113,695,cs),
(113,718,o),
(100,729,o),
(81,729,cs),
(63,729,o),
(50,718,o),
(50,695,c),
(50,670,o),
(63,660,o),
(81,660,cs)
);
}
);
width = 163;
},
{
anchors = (
{
name = _topright;
pos = (101,553);
}
);
layerId = "AD6F6DAA-2D58-4E1D-98AF-ACAAF76D7B9E";
shapes = (
{
closed = 1;
nodes = (
(126,673,o),
(146,685,o),
(146,710,cs),
(146,735,o),
(126,747,o),
(101,747,cs),
(76,747,o),
(56,735,o),
(56,710,cs),
(56,685,o),
(76,673,o),
(101,673,cs)
);
}
);
width = 202;
}
);
note = shindot;
unicode = 1473;
},
{
glyphname = "etnahtaleft-hb";
lastChange = "2016-07-07 18:36:03 +0000";
layers = (
{
anchors = (
{
name = _bottomleft;
pos = (114,0);
}
);
layerId = "1F954AD7-537E-453D-9D07-161C7E95D0AA";
shapes = (
{
closed = 1;
nodes = (
(83,-202,l),
(83,-185,ls),
(83,-158,o),
(92,-147,o),
(115,-147,cs),
(137,-147,o),
(146,-158,o),
(146,-185,cs),
(146,-202,l),
(171,-202,l),
(171,-185,ls),
(171,-147,o),
(157,-129,o),
(127,-124,c),
(127,-82,l),
(101,-82,l),
(101,-124,l),
(72,-129,o),
(58,-147,o),
(58,-185,cs),
(58,-202,l)
);
}
);
width = 229;
},
{
anchors = (
{
name = _bottomleft;
pos = (137,0);
}
);
layerId = "0C04772A-F31D-4E86-90EF-3402D1EA39CA";
shapes = (
{
closed = 1;
nodes = (
(96,-237,l),
(96,-215,ls),
(96,-182,o),
(107,-169,o),
(138,-169,cs),
(167,-169,o),
(178,-182,o),
(178,-215,cs),
(178,-237,l),
(225,-237,l),
(225,-214,ls),
(225,-160,o),
(205,-134,o),
(161,-127,c),
(161,-84,l),
(113,-84,l),
(113,-127,l),
(71,-134,o),
(50,-160,o),
(50,-214,cs),
(50,-237,l)
);
}
);
width = 275;
},
{
anchors = (
{
name = _bottomleft;
pos = (146,0);
}
);
layerId = "3FB868F8-5CDC-4A46-BA32-95627737ABE0";
shapes = (
{
closed = 1;
nodes = (
(101,-238,l),
(101,-214,ls),
(101,-178,o),
(113,-163,o),
(147,-163,cs),
(179,-163,o),
(191,-178,o),
(191,-214,cs),
(191,-238,l),
(243,-238,l),
(243,-213,ls),
(243,-154,o),
(221,-125,o),
(172,-117,c),
(172,-70,l),
(120,-70,l),
(120,-117,l),
(73,-125,o),
(50,-154,o),
(50,-213,cs),
(50,-238,l)
);
}
);
width = 293;
},
{
anchors = (
{
name = _bottomleft;
pos = (106,0);
}
);
layerId = "BD31AAF9-E65B-4A30-ACC0-7018B0C27C60";
shapes = (
{
closed = 1;
nodes = (
(75,-202,l),
(75,-185,ls),
(75,-158,o),
(84,-147,o),
(107,-147,cs),
(129,-147,o),
(138,-158,o),
(138,-185,cs),
(138,-202,l),
(163,-202,l),
(163,-185,ls),
(163,-147,o),
(149,-129,o),
(119,-124,c),
(119,-82,l),
(93,-82,l),
(93,-124,l),
(64,-129,o),
(50,-147,o),
(50,-185,cs),
(50,-202,l)
);
}
);
width = 213;
},
{
anchors = (
{
name = _bottomleft;
pos = (137,0);
}
);
layerId = "E193C3F6-581C-4255-BA06-39B2C55FEA85";
shapes = (
{
closed = 1;
nodes = (
(96,-237,l),
(96,-215,ls),
(96,-182,o),
(107,-169,o),
(138,-169,cs),
(167,-169,o),
(178,-182,o),
(178,-215,cs),
(178,-237,l),
(225,-237,l),
(225,-214,ls),
(225,-160,o),
(205,-134,o),
(161,-127,c),
(161,-84,l),
(113,-84,l),
(113,-127,l),
(71,-134,o),
(50,-160,o),
(50,-214,cs),
(50,-237,l)
);
}
);
width = 275;
},
{
anchors = (
{
name = _bottomleft;
pos = (146,0);
}
);
layerId = "AD6F6DAA-2D58-4E1D-98AF-ACAAF76D7B9E";
shapes = (
{
closed = 1;
nodes = (
(107,-217,l),
(107,-196,ls),
(107,-165,o),
(117,-152,o),
(147,-152,cs),
(175,-152,o),
(186,-165,o),
(186,-196,cs),
(186,-217,l),
(231,-217,l),
(231,-195,ls),
(231,-144,o),
(212,-118,o),
(169,-111,c),
(169,-70,l),
(123,-70,l),
(123,-111,l),
(82,-118,o),
(62,-144,o),
(62,-195,cs),
(62,-217,l)
);
}
);
width = 293;
}
);
note = uni0591;
unicode = 1425;
},
{
glyphname = "segolta-hb";
lastChange = "2016-07-07 18:36:03 +0000";
layers = (
{
anchors = (
{
name = _topleft;
pos = (120,528);
}
);
layerId = "1F954AD7-537E-453D-9D07-161C7E95D0AA";
shapes = (
{
closed = 1;
nodes = (
(138,739,o),
(141,753,o),
(141,767,cs),
(141,783,o),
(138,795,o),
(118,795,cs),
(102,795,o),
(97,783,o),
(97,767,cs),
(97,753,o),
(102,739,o),
(118,739,cs)
);
},
{
closed = 1;
nodes = (
(91,650,o),
(94,664,o),
(94,678,cs),
(94,694,o),
(91,706,o),
(71,706,cs),
(55,706,o),
(50,694,o),
(50,678,cs),
(50,664,o),
(55,650,o),
(71,650,cs)
);
},
{
closed = 1;
nodes = (
(186,650,o),
(189,664,o),
(189,678,cs),
(189,694,o),
(186,706,o),
(166,706,cs),
(150,706,o),
(145,694,o),
(145,678,cs),
(145,664,o),
(150,650,o),
(166,650,cs)
);
}
);
width = 239;
},
{
anchors = (
{
name = _topleft;
pos = (206,536);
}
);
layerId = "0C04772A-F31D-4E86-90EF-3402D1EA39CA";
shapes = (
{
closed = 1;
nodes = (
(164,767,o),
(178,779,o),
(178,804,cs),
(178,830,o),
(164,842,o),
(144,842,cs),
(124,842,o),
(110,831,o),
(110,804,cs),
(110,779,o),
(124,767,o),
(144,767,cs)
);
},
{
closed = 1;
nodes = (
(103,660,o),
(117,672,o),
(117,697,cs),
(117,723,o),
(103,735,o),
(83,735,cs),
(63,735,o),
(50,724,o),
(50,697,cs),
(50,672,o),
(63,660,o),
(83,660,cs)
);
},
{
closed = 1;
nodes = (
(225,660,o),
(239,672,o),
(239,697,cs),
(239,723,o),
(225,735,o),
(205,735,cs),
(185,735,o),
(172,724,o),
(172,697,cs),
(172,672,o),
(185,660,o),
(205,660,cs)
);
}
);
width = 289;
},
{
anchors = (
{
name = _topleft;
pos = (230,553);
}
);
layerId = "3FB868F8-5CDC-4A46-BA32-95627737ABE0";
shapes = (
{
closed = 1;
nodes = (
(191,778,o),
(216,791,o),
(216,820,cs),
(216,848,o),
(191,862,o),
(165,862,cs),
(136,862,o),
(114,848,o),
(114,820,cs),
(114,791,o),
(136,778,o),
(165,778,cs)
);
},
{
closed = 1;
nodes = (
(129,673,o),
(152,686,o),
(152,715,cs),
(152,743,o),
(129,757,o),
(101,757,cs),
(73,757,o),
(50,743,o),
(50,715,cs),
(50,686,o),
(73,673,o),
(101,673,cs)
);
},
{
closed = 1;
nodes = (
(256,673,o),
(281,686,o),
(281,715,cs),
(281,743,o),
(256,757,o),
(230,757,cs),
(201,757,o),
(179,743,o),
(179,715,cs),
(179,686,o),
(201,673,o),
(230,673,cs)
);
}
);
width = 331;
},
{
anchors = (
{
name = _topleft;
pos = (110,528);
}
);
layerId = "BD31AAF9-E65B-4A30-ACC0-7018B0C27C60";
shapes = (
{
closed = 1;
nodes = (
(128,739,o),
(131,753,o),
(131,767,cs),
(131,783,o),
(128,795,o),
(108,795,cs),
(92,795,o),
(87,783,o),
(87,767,cs),
(87,753,o),
(92,739,o),
(108,739,cs)
);
},
{
closed = 1;
nodes = (
(91,650,o),
(94,664,o),
(94,678,cs),
(94,694,o),
(91,706,o),
(71,706,cs),
(55,706,o),
(50,694,o),
(50,678,cs),
(50,664,o),
(55,650,o),
(71,650,cs)
);
},
{
closed = 1;
nodes = (
(166,650,o),
(169,664,o),
(169,678,cs),
(169,694,o),
(166,706,o),
(146,706,cs),
(130,706,o),
(125,694,o),
(125,678,cs),
(125,664,o),
(130,650,o),
(146,650,cs)
);
}
);
width = 219;
},
{
anchors = (
{
name = _topleft;
pos = (199,536);
}
);
layerId = "E193C3F6-581C-4255-BA06-39B2C55FEA85";
shapes = (
{
closed = 1;
nodes = (
(156,759,o),
(169,770,o),
(169,793,cs),
(169,817,o),
(156,829,o),
(137,829,cs),
(119,829,o),
(106,818,o),
(106,793,cs),
(106,770,o),
(119,759,o),
(137,759,cs)
);
},
{
closed = 1;
nodes = (
(99,660,o),
(112,671,o),
(112,694,cs),
(112,718,o),
(99,729,o),
(81,729,cs),
(62,729,o),
(50,719,o),
(50,694,cs),
(50,671,o),
(62,660,o),
(81,660,cs)
);
},
{
closed = 1;
nodes = (
(212,660,o),
(225,671,o),
(225,694,cs),
(225,718,o),
(212,729,o),
(194,729,cs),
(175,729,o),
(163,719,o),
(163,694,cs),
(163,671,o),
(175,660,o),
(194,660,cs)
);
}
);
width = 275;
},
{
anchors = (
{
name = _topleft;
pos = (222,553);
}
);
layerId = "AD6F6DAA-2D58-4E1D-98AF-ACAAF76D7B9E";
shapes = (
{
closed = 1;
nodes = (
(188,765,o),
(210,777,o),
(210,802,cs),
(210,827,o),
(188,839,o),
(165,839,cs),
(140,839,o),
(120,827,o),
(120,802,cs),
(120,777,o),
(140,765,o),
(165,765,cs)
);
},
{
closed = 1;
nodes = (
(133,673,o),
(154,684,o),
(154,710,cs),
(154,734,o),
(133,747,o),
(109,747,cs),
(84,747,o),
(64,734,o),
(64,710,cs),
(64,684,o),
(84,673,o),
(109,673,cs)
);
},
{
closed = 1;
nodes = (
(245,673,o),
(267,684,o),
(267,710,cs),
(267,734,o),
(245,747,o),
(222,747,cs),
(197,747,o),
(177,734,o),
(177,710,cs),
(177,684,o),
(197,673,o),
(222,673,cs)
);
}
);
width = 331;
}
);
note = uni0592;
unicode = 1426;
},
{
glyphname = "shalshelet-hb";
lastChange = "2016-07-07 18:36:03 +0000";
layers = (
{
anchors = (
{
name = _top;
pos = (94,528);
}
);
layerId = "1F954AD7-537E-453D-9D07-161C7E95D0AA";
shapes = (
{
closed = 1;
nodes = (
(86,650,l),
(132,673,l),
(92,696,l),
(132,719,l),
(92,742,l),
(132,765,l),
(95,765,l),
(55,742,l),
(95,719,l),
(55,696,l),
(95,673,l),
(50,650,l)
);
}
);
width = 188;
},
{
anchors = (
{
name = _top;
pos = (122,536);
}
);
layerId = "0C04772A-F31D-4E86-90EF-3402D1EA39CA";
shapes = (
{
closed = 1;
nodes = (
(108,659,l),
(194,701,l),
(118,743,l),
(194,785,l),
(118,827,l),
(194,869,l),
(126,869,l),
(50,827,l),
(126,785,l),
(50,743,l),
(126,701,l),
(50,659,l)
);
}
);
width = 244;
},
{
anchors = (
{
name = _top;
pos = (129,553);
}
);
layerId = "3FB868F8-5CDC-4A46-BA32-95627737ABE0";
shapes = (
{
closed = 1;
nodes = (
(114,659,l),
(208,705,l),
(125,751,l),
(208,798,l),
(125,844,l),
(208,890,l),
(133,890,l),
(50,844,l),
(133,798,l),
(50,751,l),
(133,705,l),
(50,659,l)
);
}
);
width = 258;
},
{
anchors = (
{
name = _top;
pos = (94,528);
}
);
layerId = "BD31AAF9-E65B-4A30-ACC0-7018B0C27C60";
shapes = (
{
closed = 1;
nodes = (
(86,650,l),
(132,673,l),
(92,696,l),
(132,719,l),
(92,742,l),
(132,765,l),
(95,765,l),
(55,742,l),
(95,719,l),
(55,696,l),
(95,673,l),
(50,650,l)
);
}
);
width = 182;
},
{
anchors = (
{
name = _top;
pos = (117,536);
}
);
layerId = "E193C3F6-581C-4255-BA06-39B2C55FEA85";
shapes = (
{
closed = 1;
nodes = (
(104,659,l),
(184,698,l),
(113,737,l),
(184,776,l),
(113,815,l),
(184,853,l),
(121,853,l),
(50,815,l),
(121,776,l),
(50,737,l),
(121,698,l),
(50,659,l)
);
}
);
width = 234;
},
{
anchors = (
{
name = _top;
pos = (129,553);
}
);
layerId = "AD6F6DAA-2D58-4E1D-98AF-ACAAF76D7B9E";
shapes = (
{
closed = 1;
nodes = (
(116,659,l),
(198,699,l),
(125,740,l),
(198,781,l),
(125,821,l),
(198,862,l),
(133,862,l),
(60,821,l),
(133,781,l),
(60,740,l),
(133,699,l),
(60,659,l)
);
}
);
width = 258;
}
);
note = uni0593;
unicode = 1427;
},
{
glyphname = "zaqefqatan-hb";
lastChange = "2016-07-07 18:36:03 +0000";
layers = (
{
anchors = (
{
name = _top;
pos = (72,528);
}
);
layerId = "1F954AD7-537E-453D-9D07-161C7E95D0AA";
shapes = (
{
closed = 1;
nodes = (
(91,739,o),
(94,752,o),
(94,767,cs),
(94,782,o),
(91,795,o),
(71,795,cs),
(55,795,o),
(50,782,o),
(50,767,cs),
(50,752,o),
(55,739,o),
(71,739,cs)
);
},
{
closed = 1;
nodes = (
(91,650,o),
(94,663,o),
(94,678,cs),
(94,693,o),
(91,706,o),
(71,706,cs),
(55,706,o),
(50,693,o),
(50,678,cs),
(50,663,o),
(55,650,o),
(71,650,cs)
);
}
);
width = 144;
},
{
anchors = (
{
name = _top;
pos = (84,536);
}
);
layerId = "0C04772A-F31D-4E86-90EF-3402D1EA39CA";
shapes = (
{
closed = 1;
nodes = (
(105,767,o),
(119,779,o),
(119,805,cs),
(119,830,o),
(105,842,o),
(85,842,cs),
(65,842,o),
(52,830,o),
(52,805,c),
(52,778,o),
(65,767,o),
(85,767,cs)
);
},
{
closed = 1;
nodes = (
(104,660,o),
(118,672,o),
(118,698,cs),
(118,723,o),
(104,735,o),
(84,735,cs),
(64,735,o),
(50,723,o),
(50,698,c),
(50,671,o),
(64,660,o),
(84,660,cs)
);
}
);
width = 169;
},
{
anchors = (
{
name = _top;
pos = (101,553);
}
);
layerId = "3FB868F8-5CDC-4A46-BA32-95627737ABE0";
shapes = (
{
closed = 1;
nodes = (
(127,778,o),
(152,791,o),
(152,820,cs),
(152,848,o),
(127,862,o),
(101,862,cs),
(72,862,o),
(50,848,o),
(50,820,c),
(50,791,o),
(72,778,o),
(101,778,cs)
);
},
{
closed = 1;
nodes = (
(129,673,o),
(152,686,o),
(152,715,cs),
(152,743,o),
(129,757,o),
(101,757,cs),
(73,757,o),
(50,743,o),
(50,715,cs),
(50,686,o),
(73,673,o),
(101,673,cs)
);
}
);
width = 202;
},
{
anchors = (
{
name = _top;
pos = (72,528);
}
);
layerId = "BD31AAF9-E65B-4A30-ACC0-7018B0C27C60";
shapes = (
{
closed = 1;
nodes = (
(91,739,o),
(94,752,o),
(94,767,cs),
(94,782,o),
(91,795,o),
(71,795,cs),
(55,795,o),
(50,782,o),
(50,767,cs),
(50,752,o),
(55,739,o),
(71,739,cs)
);
},
{
closed = 1;
nodes = (
(91,650,o),
(94,663,o),
(94,678,cs),
(94,693,o),
(91,706,o),
(71,706,cs),
(55,706,o),
(50,693,o),
(50,678,cs),
(50,663,o),
(55,650,o),
(71,650,cs)
);
}
);
width = 144;
},
{
anchors = (
{
name = _top;
pos = (81,536);
}
);
layerId = "E193C3F6-581C-4255-BA06-39B2C55FEA85";
shapes = (
{
closed = 1;
nodes = (
(100,759,o),
(113,770,o),
(113,794,cs),
(113,817,o),
(100,829,o),
(82,829,cs),
(63,829,o),
(51,817,o),
(51,794,c),
(51,769,o),
(63,759,o),
(82,759,cs)
);
},
{
closed = 1;
nodes = (
(100,660,o),
(113,671,o),
(113,695,cs),
(113,718,o),
(100,729,o),
(81,729,cs),
(63,729,o),
(50,718,o),
(50,695,c),
(50,670,o),
(63,660,o),
(81,660,cs)
);
}
);
width = 163;
},
{
anchors = (
{
name = _top;
pos = (101,553);
}
);
layerId = "AD6F6DAA-2D58-4E1D-98AF-ACAAF76D7B9E";
shapes = (
{
closed = 1;
nodes = (
(124,765,o),
(146,777,o),
(146,802,cs),
(146,827,o),
(124,839,o),
(101,839,cs),
(76,839,o),
(56,827,o),
(56,802,c),
(56,777,o),
(76,765,o),
(101,765,cs)
);
},
{
closed = 1;
nodes = (
(126,673,o),
(146,684,o),
(146,710,cs),
(146,734,o),
(126,747,o),
(101,747,cs),
(76,747,o),
(56,734,o),
(56,710,cs),
(56,684,o),
(76,673,o),
(101,673,cs)
);
}
);
width = 202;
}
);
note = uni0594;
unicode = 1428;
},
{
glyphname = "zaqefgadol-hb";
lastChange = "2023-11-23 07:28:28 +0000";
layers = (
{
anchors = (
{
name = _top;
pos = (102,528);
}
);
layerId = "1F954AD7-537E-453D-9D07-161C7E95D0AA";
shapes = (
{
closed = 1;
nodes = (
(75,650,l),
(75,795,l),
(50,795,l),
(50,650,l)
);
},
{
closed = 1;
nodes = (
(151,650,o),
(154,663,o),
(154,678,cs),
(154,693,o),
(151,706,o),
(131,706,cs),
(114,706,o),
(110,693,o),
(110,678,cs),
(110,663,o),
(114,650,o),
(131,650,cs)
);
},
{
closed = 1;
nodes = (
(151,739,o),
(154,752,o),
(154,767,cs),
(154,782,o),
(151,795,o),
(131,795,cs),
(114,795,o),
(110,782,o),
(110,767,cs),
(110,752,o),
(114,739,o),
(131,739,cs)
);
}
);
width = 204;
},
{
anchors = (
{
name = _top;
pos = (129,536);
}
);
layerId = "0C04772A-F31D-4E86-90EF-3402D1EA39CA";
shapes = (
{
closed = 1;
nodes = (
(97,660,l),
(97,842,l),
(50,842,l),
(50,660,l)
);
},
{
closed = 1;
nodes = (
(194,660,o),
(208,672,o),
(208,698,cs),
(208,723,o),
(194,735,o),
(174,735,cs),
(154,735,o),
(140,723,o),
(140,698,cs),
(140,671,o),
(154,660,o),
(174,660,cs)
);
},
{
closed = 1;
nodes = (
(195,767,o),
(209,779,o),
(209,805,cs),
(209,830,o),
(195,842,o),
(175,842,cs),
(155,842,o),
(142,830,o),
(142,805,cs),
(142,778,o),
(155,767,o),
(175,767,cs)
);
}
);
width = 259;
},
{
anchors = (
{
name = _top;
pos = (144,553);
}
);
layerId = "3FB868F8-5CDC-4A46-BA32-95627737ABE0";
shapes = (
{
closed = 1;
nodes = (
(107,673,l),
(107,862,l),
(50,862,l),
(50,673,l)
);
},
{
closed = 1;
nodes = (
(225,673,o),
(248,686,o),
(248,715,cs),
(248,743,o),
(225,757,o),
(197,757,cs),
(169,757,o),
(146,743,o),
(146,715,cs),
(146,686,o),
(169,673,o),
(197,673,cs)
);
},
{
closed = 1;
nodes = (
(223,778,o),
(248,791,o),
(248,820,cs),
(248,848,o),
(223,862,o),
(197,862,cs),
(168,862,o),
(146,848,o),
(146,820,c),
(146,791,o),
(168,778,o),
(197,778,cs)
);
}
);
width = 298;
},
{
anchors = (
{
name = _top;
pos = (97,528);
}
);
layerId = "BD31AAF9-E65B-4A30-ACC0-7018B0C27C60";
shapes = (
{
closed = 1;
nodes = (
(75,650,l),
(75,795,l),
(50,795,l),
(50,650,l)
);
},
{
closed = 1;
nodes = (
(141,650,o),
(144,663,o),
(144,678,cs),
(144,693,o),
(141,706,o),
(121,706,cs),
(104,706,o),
(100,693,o),
(100,678,cs),
(100,663,o),
(104,650,o),
(121,650,cs)
);
},
{
closed = 1;
nodes = (
(141,739,o),
(144,752,o),
(144,767,cs),
(144,782,o),
(141,795,o),
(121,795,cs),
(104,795,o),
(100,782,o),
(100,767,cs),
(100,752,o),
(104,739,o),
(121,739,cs)
);
}
);
width = 194;
},
{
anchors = (
{
name = _top;
pos = (123,536);
}
);
layerId = "E193C3F6-581C-4255-BA06-39B2C55FEA85";
shapes = (
{
closed = 1;
nodes = (
(93,660,l),
(93,829,l),
(50,829,l),
(50,660,l)
);
},
{
closed = 1;
nodes = (
(183,660,o),
(196,671,o),
(196,695,cs),
(196,718,o),
(183,729,o),
(165,729,cs),
(146,729,o),
(133,718,o),
(133,695,cs),
(133,670,o),
(146,660,o),
(165,660,cs)
);
},
{
closed = 1;
nodes = (
(184,759,o),
(197,770,o),
(197,794,cs),
(197,817,o),
(184,829,o),
(166,829,cs),
(147,829,o),
(135,817,o),
(135,794,cs),
(135,769,o),
(147,759,o),
(166,759,cs)
);
}
);
width = 247;
},
{
anchors = (
{
name = _top;
pos = (145,553);
}
);
layerId = "AD6F6DAA-2D58-4E1D-98AF-ACAAF76D7B9E";
shapes = (
{
closed = 1;
nodes = (
(112,673,l),
(112,839,l),
(62,839,l),
(62,673,l)
);
},
{
closed = 1;
nodes = (
(216,673,o),
(236,684,o),
(236,710,cs),
(236,734,o),
(216,747,o),
(191,747,cs),
(167,747,o),
(146,734,o),
(146,710,cs),
(146,684,o),
(167,673,o),
(191,673,cs)
);
},
{
closed = 1;
nodes = (
(214,765,o),
(236,777,o),
(236,802,cs),
(236,827,o),
(214,839,o),
(191,839,cs),
(166,839,o),
(146,827,o),
(146,802,c),
(146,777,o),
(166,765,o),
(191,765,cs)
);
}
);
width = 298;
}
);
note = uni0595;
unicode = 1429;
},
{
glyphname = "tipehaleft-hb";
lastChange = "2016-07-07 18:36:03 +0000";
layers = (
{
anchors = (
{
name = _bottomleft;
pos = (65,0);
}
);
layerId = "1F954AD7-537E-453D-9D07-161C7E95D0AA";
shapes = (
{
closed = 1;
nodes = (
(159,-159,l),
(99,-159,o),
(79,-131,o),
(79,-82,c),
(50,-82,l),
(50,-149,o),
(83,-188,o),
(159,-188,c)
);
}
);
width = 209;
},
{
anchors = (
{
name = _bottomleft;
pos = (75,0);
}
);
layerId = "0C04772A-F31D-4E86-90EF-3402D1EA39CA";
shapes = (
{
closed = 1;
nodes = (
(200,-175,l),
(138,-175,o),
(100,-141,o),
(100,-84,c),
(50,-84,l),
(50,-172,o),
(105,-224,o),
(200,-224,c)
);
}
);
width = 250;
},
{
anchors = (
{
name = _bottomleft;
pos = (78,0);
}
);
layerId = "3FB868F8-5CDC-4A46-BA32-95627737ABE0";
shapes = (
{
closed = 1;
nodes = (
(214,-170,l),
(146,-170,o),
(105,-133,o),
(105,-70,c),
(50,-70,l),
(50,-167,o),
(110,-224,o),
(214,-224,c)
);
}
);
width = 264;
},
{
anchors = (
{
name = _bottomleft;
pos = (65,0);
}
);
layerId = "BD31AAF9-E65B-4A30-ACC0-7018B0C27C60";
shapes = (
{
closed = 1;
nodes = (
(159,-159,l),
(99,-159,o),
(79,-131,o),
(79,-82,c),
(50,-82,l),
(50,-149,o),
(83,-188,o),
(159,-188,c)
);
}
);
width = 209;
},
{
anchors = (
{
name = _bottomleft;
pos = (69,0);
}
);
layerId = "E193C3F6-581C-4255-BA06-39B2C55FEA85";
shapes = (
{
closed = 1;
nodes = (
(188,-168,l),
(131,-168,o),
(96,-137,o),
(96,-84,c),
(50,-84,l),
(50,-165,o),
(100,-214,o),
(188,-214,c)
);
}
);
width = 238;
},
{
anchors = (
{
name = _bottomleft;
pos = (85,0);
}
);
layerId = "AD6F6DAA-2D58-4E1D-98AF-ACAAF76D7B9E";
shapes = (
{
closed = 1;
nodes = (
(204,-158,l),
(144,-158,o),
(108,-125,o),
(108,-70,c),
(60,-70,l),
(60,-155,o),
(113,-205,o),
(204,-205,c)
);
}
);
width = 264;
}
);
note = uni0596;
unicode = 1430;
},
{
glyphname = "reviamugrash-hb";
lastChange = "2016-07-07 18:36:03 +0000";
layers = (
{
anchors = (
{
name = _topleft;
pos = (115,528);
}
);
layerId = "1F954AD7-537E-453D-9D07-161C7E95D0AA";
shapes = (
{
closed = 1;
nodes = (
(131,692,l),
(93,735,l),
(55,692,l),
(93,650,l)
);
}
);
width = 186;
},
{
anchors = (
{
name = _topleft;
pos = (155,536);
}
);
layerId = "0C04772A-F31D-4E86-90EF-3402D1EA39CA";
shapes = (
{
closed = 1;
nodes = (
(190,727,l),
(120,805,l),
(50,727,l),
(120,650,l)
);
}
);
width = 240;
},
{
anchors = (
{
name = _topleft;
pos = (197,553);
}
);
layerId = "3FB868F8-5CDC-4A46-BA32-95627737ABE0";
shapes = (
{
closed = 1;
nodes = (
(204,735,l),
(127,820,l),
(50,735,l),
(127,650,l)
);
}
);
width = 254;
},
{
anchors = (
{
name = _topleft;
pos = (110,528);
}
);
layerId = "BD31AAF9-E65B-4A30-ACC0-7018B0C27C60";
shapes = (
{
closed = 1;
nodes = (
(126,692,l),
(88,735,l),
(50,692,l),
(88,650,l)
);
}
);
width = 176;
},
{
anchors = (
{
name = _topleft;
pos = (150,536);
}
);
layerId = "E193C3F6-581C-4255-BA06-39B2C55FEA85";
shapes = (
{
closed = 1;
nodes = (
(180,721,l),
(115,794,l),
(50,721,l),
(115,650,l)
);
}
);
width = 230;
},
{
anchors = (
{
name = _topleft;
pos = (188,553);
}
);
layerId = "AD6F6DAA-2D58-4E1D-98AF-ACAAF76D7B9E";
shapes = (
{
closed = 1;
nodes = (
(195,725,l),
(127,799,l),
(59,725,l),
(127,650,l)
);
}
);
width = 254;
}
);
note = uni0597;
unicode = 1431;
},
{
glyphname = "zarqa-hb";
lastChange = "2016-07-07 18:36:03 +0000";
layers = (
{
anchors = (
{
name = _top;
pos = (135,528);
}
);
layerId = "1F954AD7-537E-453D-9D07-161C7E95D0AA";
shapes = (
{
closed = 1;
nodes = (
(89,670,l),
(78,675,o),
(72,683,o),
(72,695,cs),
(72,709,o),
(80,717,o),
(91,717,cs),
(104,717,o),
(110,710,o),
(127,686,cs),
(147,659,o),
(160,651,o),
(179,651,cs),
(203,651,o),
(220,667,o),
(220,693,cs),
(220,715,o),
(210,730,o),
(189,738,c),
(181,717,l),
(192,712,o),
(198,705,o),
(198,693,cs),
(198,678,o),
(190,671,o),
(179,671,cs),
(167,671,o),
(158,679,o),
(143,701,cs),
(123,728,o),
(110,737,o),
(92,737,cs),
(67,737,o),
(50,720,o),
(50,695,cs),
(50,672,o),
(60,657,o),
(81,650,c)
);
}
);
width = 270;
},
{
anchors = (
{
name = _top;
pos = (188,536);
}
);
layerId = "0C04772A-F31D-4E86-90EF-3402D1EA39CA";
shapes = (
{
closed = 1;
nodes = (
(113,683,l),
(95,691,o),
(86,703,o),
(86,723,cs),
(86,745,o),
(99,758,o),
(116,758,cs),
(137,758,o),
(147,748,o),
(175,709,cs),
(207,665,o),
(229,651,o),
(260,651,cs),
(298,651,o),
(326,678,o),
(326,719,cs),
(326,755,o),
(309,779,o),
(276,792,c),
(263,758,l),
(281,751,o),
(290,739,o),
(290,719,cs),
(290,696,o),
(277,684,o),
(260,684,cs),
(240,684,o),
(226,697,o),
(201,732,cs),
(168,777,o),
(147,791,o),
(118,791,cs),
(78,791,o),
(50,763,o),
(50,723,cs),
(50,686,o),
(67,661,o),
(100,650,c)
);
}
);
width = 376;
},
{
anchors = (
{
name = _top;
pos = (202,553);
}
);
layerId = "3FB868F8-5CDC-4A46-BA32-95627737ABE0";
shapes = (
{
closed = 1;
nodes = (
(120,686,l),
(100,695,o),
(90,708,o),
(90,730,cs),
(90,754,o),
(104,769,o),
(123,769,cs),
(146,769,o),
(157,758,o),
(188,715,cs),
(223,666,o),
(247,651,o),
(281,651,cs),
(323,651,o),
(354,681,o),
(354,726,cs),
(354,765,o),
(335,792,o),
(299,806,c),
(284,769,l),
(304,761,o),
(314,748,o),
(314,726,cs),
(314,701,o),
(300,687,o),
(281,687,cs),
(259,687,o),
(244,702,o),
(216,740,cs),
(180,790,o),
(157,805,o),
(125,805,cs),
(81,805,o),
(50,774,o),
(50,730,cs),
(50,690,o),
(69,662,o),
(105,650,c)
);
}
);
width = 404;
},
{
anchors = (
{
name = _top;
pos = (135,528);
}
);
layerId = "BD31AAF9-E65B-4A30-ACC0-7018B0C27C60";
shapes = (
{
closed = 1;
nodes = (
(89,670,l),
(78,675,o),
(72,683,o),
(72,695,cs),
(72,709,o),
(80,717,o),
(91,717,cs),
(104,717,o),
(110,710,o),
(127,686,cs),
(147,659,o),
(160,651,o),
(179,651,cs),
(203,651,o),
(220,667,o),
(220,693,cs),
(220,715,o),
(210,730,o),
(189,738,c),
(181,717,l),
(192,712,o),
(198,705,o),
(198,693,cs),
(198,678,o),
(190,671,o),
(179,671,cs),
(167,671,o),
(158,679,o),
(143,701,cs),
(123,728,o),
(110,737,o),
(92,737,cs),
(67,737,o),
(50,720,o),
(50,695,cs),
(50,672,o),
(60,657,o),
(81,650,c)
);
}
);
width = 270;
},
{
anchors = (
{
name = _top;
pos = (178,536);
}
);
layerId = "E193C3F6-581C-4255-BA06-39B2C55FEA85";
shapes = (
{
closed = 1;
nodes = (
(109,681,l),
(92,688,o),
(84,699,o),
(84,718,cs),
(84,738,o),
(96,750,o),
(111,750,cs),
(131,750,o),
(140,741,o),
(166,705,cs),
(196,664,o),
(216,651,o),
(245,651,cs),
(280,651,o),
(306,676,o),
(306,714,cs),
(306,747,o),
(290,769,o),
(259,781,c),
(247,750,l),
(264,744,o),
(272,732,o),
(272,714,cs),
(272,693,o),
(260,681,o),
(245,681,cs),
(226,681,o),
(213,694,o),
(190,726,cs),
(159,768,o),
(140,781,o),
(113,781,cs),
(76,781,o),
(50,755,o),
(50,718,cs),
(50,683,o),
(66,660,o),
(97,650,c)
);
}
);
width = 356;
},
{
anchors = (
{
name = _top;
pos = (202,553);
}
);
layerId = "AD6F6DAA-2D58-4E1D-98AF-ACAAF76D7B9E";
shapes = (
{
closed = 1;
nodes = (
(130,682,l),
(113,689,o),
(104,701,o),
(104,720,cs),
(104,741,o),
(116,754,o),
(133,754,cs),
(153,754,o),
(163,745,o),
(190,707,cs),
(220,664,o),
(241,651,o),
(271,651,cs),
(308,651,o),
(335,677,o),
(335,717,cs),
(335,751,o),
(319,775,o),
(287,787,c),
(274,754,l),
(291,747,o),
(300,736,o),
(300,717,cs),
(300,695,o),
(288,682,o),
(271,682,cs),
(252,682,o),
(239,696,o),
(214,729,cs),
(183,773,o),
(163,786,o),
(134,786,cs),
(96,786,o),
(69,759,o),
(69,720,cs),
(69,685,o),
(85,661,o),
(117,650,c)
);
}
);
width = 404;
}
);
note = uni0598;
unicode = 1432;
},
{
glyphname = "pashta-hb";
lastChange = "2016-07-07 18:36:03 +0000";
layers = (
{
anchors = (
{
name = _topleft;
pos = (159,528);
}
);
layerId = "1F954AD7-537E-453D-9D07-161C7E95D0AA";
shapes = (
{
closed = 1;
nodes = (
(159,650,l),
(159,717,o),
(126,756,o),
(50,756,c),
(50,727,l),
(110,727,o),
(130,699,o),
(130,650,c)
);
}
);
width = 209;
},
{
anchors = (
{
name = _topleft;
pos = (200,536);
}
);
layerId = "0C04772A-F31D-4E86-90EF-3402D1EA39CA";
shapes = (
{
closed = 1;
nodes = (
(200,650,l),
(200,740,o),
(144,791,o),
(50,791,c),
(50,741,l),
(114,741,o),
(150,707,o),
(150,650,c)
);
}
);
width = 250;
},
{
anchors = (
{
name = _topleft;
pos = (214,553);
}
);
layerId = "3FB868F8-5CDC-4A46-BA32-95627737ABE0";
shapes = (
{
closed = 1;
nodes = (
(214,650,l),
(214,749,o),
(153,805,o),
(50,805,c),
(50,750,l),
(120,750,o),
(159,713,o),
(159,650,c)
);
}
);
width = 264;
},
{
anchors = (
{
name = _topleft;
pos = (159,528);
}
);
layerId = "BD31AAF9-E65B-4A30-ACC0-7018B0C27C60";
shapes = (
{
closed = 1;
nodes = (
(159,650,l),
(159,717,o),
(126,756,o),
(50,756,c),
(50,727,l),
(110,727,o),
(130,699,o),
(130,650,c)
);
}
);
width = 209;
},
{
anchors = (
{
name = _topleft;
pos = (189,536);
}
);
layerId = "E193C3F6-581C-4255-BA06-39B2C55FEA85";
shapes = (
{
closed = 1;
nodes = (
(189,650,l),
(189,733,o),
(137,781,o),
(50,781,c),
(50,734,l),
(109,734,o),
(143,703,o),
(143,650,c)
);
}
);
width = 239;
},
{
anchors = (
{
name = _topleft;
pos = (204,553);
}
);
layerId = "AD6F6DAA-2D58-4E1D-98AF-ACAAF76D7B9E";
shapes = (
{
closed = 1;
nodes = (
(204,650,l),
(204,737,o),
(150,786,o),
(60,786,c),
(60,738,l),
(121,738,o),
(156,705,o),
(156,650,c)
);
}
);
width = 264;
}
);
note = uni0599;
unicode = 1433;
},
{
glyphname = "yetiv-hb";
lastChange = "2016-07-07 18:36:03 +0000";
layers = (
{
anchors = (
{
name = _bottomleft;
pos = (102,0);
}
);
layerId = "1F954AD7-537E-453D-9D07-161C7E95D0AA";
shapes = (
{
closed = 1;
nodes = (
(154,-229,l),
(80,-154,l),
(151,-82,l),
(121,-82,l),
(50,-153,l),
(125,-229,l)
);
}
);
width = 229;
},
{
anchors = (
{
name = _bottomleft;
pos = (166,0);
}
);
layerId = "0C04772A-F31D-4E86-90EF-3402D1EA39CA";
shapes = (
{
closed = 1;
nodes = (
(199,-250,l),
(116,-167,l),
(199,-84,l),
(133,-84,l),
(50,-167,l),
(133,-250,l)
);
}
);
width = 249;
},
{
anchors = (
{
name = _bottomleft;
pos = (132,0);
}
);
layerId = "3FB868F8-5CDC-4A46-BA32-95627737ABE0";
shapes = (
{
closed = 1;
nodes = (
(213,-252,l),
(122,-160,l),
(213,-69,l),
(141,-69,l),
(50,-160,l),
(141,-252,l)
);
}
);
width = 263;
},
{
anchors = (
{
name = _bottomleft;
pos = (102,0);
}
);
layerId = "BD31AAF9-E65B-4A30-ACC0-7018B0C27C60";
shapes = (
{
closed = 1;
nodes = (
(154,-229,l),
(80,-154,l),
(151,-82,l),
(121,-82,l),
(50,-153,l),
(125,-229,l)
);
}
);
width = 204;
},
{
anchors = (
{
name = _bottomleft;
pos = (160,0);
}
);
layerId = "E193C3F6-581C-4255-BA06-39B2C55FEA85";
shapes = (
{
closed = 1;
nodes = (
(187,-238,l),
(111,-161,l),
(187,-84,l),
(126,-84,l),
(50,-161,l),
(126,-238,l)
);
}
);
width = 237;
},
{
anchors = (
{
name = _bottomleft;
pos = (132,0);
}
);
layerId = "AD6F6DAA-2D58-4E1D-98AF-ACAAF76D7B9E";
shapes = (
{
closed = 1;
nodes = (
(203,-230,l),
(123,-149,l),
(203,-69,l),
(140,-69,l),
(60,-149,l),
(140,-230,l)
);
}
);
width = 263;
}
);
note = uni059A;
unicode = 1434;
},
{
glyphname = "tevirleft-hb";
lastChange = "2016-07-07 18:36:03 +0000";
layers = (
{
anchors = (
{
name = _bottomleft;
pos = (145,0);
}
);
layerId = "1F954AD7-537E-453D-9D07-161C7E95D0AA";
shapes = (
{
closed = 1;
nodes = (
(126,-188,o),
(159,-149,o),
(159,-82,c),
(130,-82,l),
(130,-131,o),
(110,-159,o),
(50,-159,c),
(50,-188,l)
);
},
{
closed = 1;
nodes = (
(87,-123,o),
(97,-113,o),
(97,-100,cs),
(97,-87,o),
(87,-77,o),
(74,-77,cs),
(62,-77,o),
(52,-87,o),
(52,-100,cs),
(52,-113,o),
(62,-123,o),
(74,-123,cs)
);
}
);
width = 209;
},
{
anchors = (
{
name = _bottomleft;
pos = (193,0);
}
);
layerId = "0C04772A-F31D-4E86-90EF-3402D1EA39CA";
shapes = (
{
closed = 1;
nodes = (
(164,-224,o),
(218,-171,o),
(218,-84,c),
(168,-84,l),
(168,-141,o),
(129,-175,o),
(67,-175,c),
(67,-224,l)
);
},
{
closed = 1;
nodes = (
(107,-127,o),
(123,-111,o),
(123,-90,cs),
(123,-69,o),
(107,-53,o),
(86,-53,cs),
(66,-53,o),
(50,-70,o),
(50,-90,cs),
(50,-111,o),
(66,-127,o),
(86,-127,cs)
);
}
);
width = 268;
},
{
anchors = (
{
name = _bottomleft;
pos = (207,0);
}
);
layerId = "3FB868F8-5CDC-4A46-BA32-95627737ABE0";
shapes = (
{
closed = 1;
nodes = (
(175,-224,o),
(234,-166,o),
(234,-70,c),
(179,-70,l),
(179,-133,o),
(137,-170,o),
(68,-170,c),
(68,-224,l)
);
},
{
closed = 1;
nodes = (
(112,-117,o),
(130,-100,o),
(130,-77,cs),
(130,-54,o),
(112,-36,o),
(89,-36,cs),
(67,-36,o),
(50,-55,o),
(50,-77,cs),
(50,-100,o),
(67,-117,o),
(89,-117,cs)
);
}
);
width = 284;
},
{
anchors = (
{
name = _bottomleft;
pos = (145,0);
}
);
layerId = "BD31AAF9-E65B-4A30-ACC0-7018B0C27C60";
shapes = (
{
closed = 1;
nodes = (
(126,-188,o),
(159,-149,o),
(159,-82,c),
(130,-82,l),
(130,-131,o),
(110,-159,o),
(50,-159,c),
(50,-188,l)
);
},
{
closed = 1;
nodes = (
(87,-123,o),
(97,-113,o),
(97,-100,cs),
(97,-87,o),
(87,-77,o),
(74,-77,cs),
(62,-77,o),
(52,-87,o),
(52,-100,cs),
(52,-113,o),
(62,-123,o),
(74,-123,cs)
);
}
);
width = 209;
},
{
anchors = (
{
name = _bottomleft;
pos = (187,0);
}
);
layerId = "E193C3F6-581C-4255-BA06-39B2C55FEA85";
shapes = (
{
closed = 1;
nodes = (
(156,-211,o),
(206,-162,o),
(206,-82,c),
(159,-82,l),
(159,-134,o),
(123,-166,o),
(66,-166,c),
(66,-211,l)
);
},
{
closed = 1;
nodes = (
(103,-122,o),
(118,-107,o),
(118,-87,cs),
(118,-68,o),
(103,-53,o),
(84,-53,cs),
(65,-53,o),
(50,-69,o),
(50,-87,cs),
(50,-107,o),
(65,-122,o),
(84,-122,cs)
);
}
);
width = 256;
},
{
anchors = (
{
name = _bottomleft;
pos = (199,0);
}
);
layerId = "AD6F6DAA-2D58-4E1D-98AF-ACAAF76D7B9E";
shapes = (
{
closed = 1;
nodes = (
(171,-201,o),
(223,-150,o),
(223,-66,c),
(174,-66,l),
(174,-121,o),
(138,-154,o),
(77,-154,c),
(77,-201,l)
);
},
{
closed = 1;
nodes = (
(116,-107,o),
(131,-92,o),
(131,-72,cs),
(131,-52,o),
(116,-36,o),
(96,-36,cs),
(76,-36,o),
(61,-53,o),
(61,-72,cs),
(61,-92,o),
(76,-107,o),
(96,-107,cs)
);
}
);
width = 284;
}
);
note = uni059B;
unicode = 1435;
},
{
glyphname = "gereshaccent-hb";
lastChange = "2016-07-07 18:36:03 +0000";
layers = (
{
anchors = (
{
name = _topleft;
pos = (65,528);
}
);
layerId = "1F954AD7-537E-453D-9D07-161C7E95D0AA";
shapes = (
{
closed = 1;
nodes = (
(79,650,l),
(79,699,o),
(99,727,o),
(159,727,c),
(159,756,l),
(83,756,o),
(50,717,o),
(50,650,c)
);
}
);
width = 209;
},
{
anchors = (
{
name = _topleft;
pos = (75,536);
}
);
layerId = "0C04772A-F31D-4E86-90EF-3402D1EA39CA";
shapes = (
{
closed = 1;
nodes = (
(100,650,l),
(100,708,o),
(138,741,o),
(200,741,c),
(200,791,l),
(106,791,o),
(50,739,o),
(50,650,c)
);
}
);
width = 250;
},
{
anchors = (
{
name = _topleft;
pos = (78,553);
}
);
layerId = "3FB868F8-5CDC-4A46-BA32-95627737ABE0";
shapes = (
{
closed = 1;
nodes = (
(105,636,l),
(105,700,o),
(146,736,o),
(214,736,c),
(214,791,l),
(111,791,o),
(50,734,o),
(50,636,c)
);
}
);
width = 264;
},
{
anchors = (
{
name = _topleft;
pos = (65,528);
}
);
layerId = "BD31AAF9-E65B-4A30-ACC0-7018B0C27C60";
shapes = (
{
closed = 1;
nodes = (
(79,650,l),
(79,699,o),
(99,727,o),
(159,727,c),
(159,756,l),
(83,756,o),
(50,717,o),
(50,650,c)
);
}
);
width = 209;
},
{
anchors = (
{
name = _topleft;
pos = (69,536);
}
);
layerId = "E193C3F6-581C-4255-BA06-39B2C55FEA85";
shapes = (
{
closed = 1;
nodes = (
(96,650,l),
(96,704,o),
(131,734,o),
(188,734,c),
(188,781,l),
(101,781,o),
(50,732,o),
(50,650,c)
);
}
);
width = 238;
},
{
anchors = (
{
name = _topleft;
pos = (85,553);
}
);
layerId = "AD6F6DAA-2D58-4E1D-98AF-ACAAF76D7B9E";
shapes = (
{
closed = 1;
nodes = (
(108,636,l),
(108,692,o),
(144,724,o),
(204,724,c),
(204,772,l),
(114,772,o),
(60,722,o),
(60,636,c)
);
}
);
width = 264;
}
);
note = uni059C;
unicode = 1436;
},
{
glyphname = "gereshmuqdam-hb";
lastChange = "2016-07-07 18:36:03 +0000";
layers = (
{
anchors = (
{
name = _top;
pos = (119,528);
}
);
layerId = "1F954AD7-537E-453D-9D07-161C7E95D0AA";
shapes = (
{
closed = 1;
nodes = (
(79,650,l),
(79,699,o),
(99,727,o),
(159,727,c),
(159,756,l),
(83,756,o),
(50,717,o),
(50,650,c)
);
}
);
width = 209;
},
{
anchors = (
{
name = _top;
pos = (150,536);
}
);
layerId = "0C04772A-F31D-4E86-90EF-3402D1EA39CA";
shapes = (
{
closed = 1;
nodes = (
(100,650,l),
(100,708,o),
(138,741,o),
(200,741,c),
(200,791,l),
(106,791,o),
(50,739,o),
(50,650,c)
);
}
);
width = 250;
},
{
anchors = (
{
name = _top;
pos = (160,553);
}
);
layerId = "3FB868F8-5CDC-4A46-BA32-95627737ABE0";
shapes = (
{
closed = 1;
nodes = (
(105,636,l),
(105,700,o),
(146,736,o),
(214,736,c),
(214,791,l),
(111,791,o),
(50,734,o),
(50,636,c)
);
}
);
width = 264;
},
{
anchors = (
{
name = _top;
pos = (119,528);
}
);
layerId = "BD31AAF9-E65B-4A30-ACC0-7018B0C27C60";
shapes = (
{
closed = 1;
nodes = (
(79,650,l),
(79,699,o),
(99,727,o),
(159,727,c),
(159,756,l),
(83,756,o),
(50,717,o),
(50,650,c)
);
}
);
width = 209;
},
{
anchors = (
{
name = _top;
pos = (144,536);
}
);
layerId = "E193C3F6-581C-4255-BA06-39B2C55FEA85";
shapes = (
{
closed = 1;
nodes = (
(96,650,l),
(96,704,o),
(131,734,o),
(188,734,c),
(188,781,l),
(101,781,o),
(50,732,o),
(50,650,c)
);
}
);
width = 238;
},
{
anchors = (
{
name = _top;
pos = (157,553);
}
);
layerId = "AD6F6DAA-2D58-4E1D-98AF-ACAAF76D7B9E";
shapes = (
{
closed = 1;
nodes = (
(108,636,l),
(108,692,o),
(144,724,o),
(204,724,c),
(204,772,l),
(114,772,o),
(60,722,o),
(60,636,c)
);
}
);
width = 264;
}
);
note = uni059D;
unicode = 1437;
},
{
glyphname = "gershayimaccent-hb";
lastChange = "2016-07-07 18:36:03 +0000";
layers = (
{
anchors = (
{
name = _top;
pos = (119,528);
}
);
layerId = "1F954AD7-537E-453D-9D07-161C7E95D0AA";
shapes = (
{
closed = 1;
nodes = (
(188,650,l),
(188,699,o),
(208,727,o),
(268,727,c),
(268,756,l),
(192,756,o),
(159,717,o),
(159,650,c)
);
},
{
closed = 1;
nodes = (
(79,650,l),
(79,699,o),
(99,727,o),
(159,727,c),
(159,756,l),
(83,756,o),
(50,717,o),
(50,650,c)
);
}
);
width = 318;
},
{
anchors = (
{
name = _top;
pos = (151,536);
}
);
layerId = "0C04772A-F31D-4E86-90EF-3402D1EA39CA";
shapes = (
{
closed = 1;
nodes = (
(252,650,l),
(252,708,o),
(290,741,o),
(352,741,c),
(352,791,l),
(258,791,o),
(201,739,o),
(201,650,c)
);
},
{
closed = 1;
nodes = (
(101,650,l),
(101,708,o),
(139,741,o),
(201,741,c),
(201,791,l),
(105,791,o),
(50,738,o),
(50,650,c)
);
}
);
width = 402;
},
{
anchors = (
{
name = _top;
pos = (166,553);
}
);
layerId = "3FB868F8-5CDC-4A46-BA32-95627737ABE0";
shapes = (
{
closed = 1;
nodes = (
(272,636,l),
(272,700,o),
(314,736,o),
(382,736,c),
(382,791,l),
(279,791,o),
(216,734,o),
(216,636,c)
);
},
{
closed = 1;
nodes = (
(106,636,l),
(106,700,o),
(148,736,o),
(216,736,c),
(216,791,l),
(110,791,o),
(50,733,o),
(50,636,c)
);
}
);
width = 432;
},
{
anchors = (
{
name = _top;
pos = (119,528);
}
);
layerId = "BD31AAF9-E65B-4A30-ACC0-7018B0C27C60";
shapes = (
{
closed = 1;
nodes = (
(188,650,l),
(188,699,o),
(208,727,o),
(268,727,c),
(268,756,l),
(192,756,o),
(159,717,o),
(159,650,c)
);
},
{
closed = 1;
nodes = (
(79,650,l),
(79,699,o),
(99,727,o),
(159,727,c),
(159,756,l),
(83,756,o),
(50,717,o),
(50,650,c)
);
}
);
width = 318;
},
{
anchors = (
{
name = _top;
pos = (140,536);
}
);
layerId = "E193C3F6-581C-4255-BA06-39B2C55FEA85";
shapes = (
{
closed = 1;
nodes = (
(237,650,l),
(237,704,o),
(272,734,o),
(330,734,c),
(330,781,l),
(243,781,o),
(190,732,o),
(190,650,c)
);
},
{
closed = 1;
nodes = (
(97,650,l),
(97,704,o),
(133,734,o),
(190,734,c),
(190,781,l),
(101,781,o),
(50,731,o),
(50,650,c)
);
}
);
width = 380;
},
{
anchors = (
{
name = _top;
pos = (172,553);
}
);
layerId = "AD6F6DAA-2D58-4E1D-98AF-ACAAF76D7B9E";
shapes = (
{
closed = 1;
nodes = (
(265,636,l),
(265,692,o),
(302,724,o),
(362,724,c),
(362,772,l),
(271,772,o),
(216,722,o),
(216,636,c)
);
},
{
closed = 1;
nodes = (
(120,636,l),
(120,692,o),
(156,724,o),
(216,724,c),
(216,772,l),
(123,772,o),
(70,721,o),
(70,636,c)
);
}
);
width = 432;
}
);
note = uni059E;
unicode = 1438;
},
